0
SECTION
2
HEADER
9
$INSUNITS
70
4
0
ENDSEC
0
SECTION
2
ENTITIES
0
CIRCLE
8
CARRIER_CUT
10
0.00000000
20
0.00000000
30
0
40
98.00000000
0
CIRCLE
8
CARRIER_CUT
10
0.00000000
20
0.00000000
30
0
40
7.10000000
0
CIRCLE
8
CARRIER_CUT
10
40.00000000
20
0.00000000
30
0
40
4.20000000
0
CIRCLE
8
CARRIER_CUT
10
28.28427125
20
28.28427125
30
0
40
4.20000000
0
CIRCLE
8
CARRIER_CUT
10
0.00000000
20
40.00000000
30
0
40
4.20000000
0
CIRCLE
8
CARRIER_CUT
10
-28.28427125
20
28.28427125
30
0
40
4.20000000
0
CIRCLE
8
CARRIER_CUT
10
-40.00000000
20
0.00000000
30
0
40
4.20000000
0
CIRCLE
8
CARRIER_CUT
10
-28.28427125
20
-28.28427125
30
0
40
4.20000000
0
CIRCLE
8
CARRIER_CUT
10
-0.00000000
20
-40.00000000
30
0
40
4.20000000
0
CIRCLE
8
CARRIER_CUT
10
28.28427125
20
-28.28427125
30
0
40
4.20000000
0
CIRCLE
8
CARRIER_CUT
10
52.00000000
20
0.00000000
30
0
40
4.20000000
0
CIRCLE
8
CARRIER_CUT
10
36.76955262
20
36.76955262
30
0
40
4.20000000
0
CIRCLE
8
CARRIER_CUT
10
0.00000000
20
52.00000000
30
0
40
4.20000000
0
CIRCLE
8
CARRIER_CUT
10
-36.76955262
20
36.76955262
30
0
40
4.20000000
0
CIRCLE
8
CARRIER_CUT
10
-52.00000000
20
0.00000000
30
0
40
4.20000000
0
CIRCLE
8
CARRIER_CUT
10
-36.76955262
20
-36.76955262
30
0
40
4.20000000
0
CIRCLE
8
CARRIER_CUT
10
-0.00000000
20
-52.00000000
30
0
40
4.20000000
0
CIRCLE
8
CARRIER_CUT
10
36.76955262
20
-36.76955262
30
0
40
4.20000000
0
CIRCLE
8
CARRIER_CUT
10
80.00000000
20
0.00000000
30
0
40
4.20000000
0
CIRCLE
8
CARRIER_CUT
10
56.56854249
20
56.56854249
30
0
40
4.20000000
0
CIRCLE
8
CARRIER_CUT
10
0.00000000
20
80.00000000
30
0
40
4.20000000
0
CIRCLE
8
CARRIER_CUT
10
-56.56854249
20
56.56854249
30
0
40
4.20000000
0
CIRCLE
8
CARRIER_CUT
10
-80.00000000
20
0.00000000
30
0
40
4.20000000
0
CIRCLE
8
CARRIER_CUT
10
-56.56854249
20
-56.56854249
30
0
40
4.20000000
0
CIRCLE
8
CARRIER_CUT
10
-0.00000000
20
-80.00000000
30
0
40
4.20000000
0
CIRCLE
8
CARRIER_CUT
10
56.56854249
20
-56.56854249
30
0
40
4.20000000
0
CIRCLE
8
CARRIER_CUT
10
10.16267486
20
4.20951776
30
0
40
1.70000000
0
CIRCLE
8
CARRIER_CUT
10
-4.20951776
20
10.16267486
30
0
40
1.70000000
0
CIRCLE
8
CARRIER_CUT
10
-10.16267486
20
-4.20951776
30
0
40
1.70000000
0
CIRCLE
8
CARRIER_CUT
10
4.20951776
20
-10.16267486
30
0
40
1.70000000
0
ENDSEC
0
EOF
