0
SECTION
2
HEADER
9
$INSUNITS
70
4
0
ENDSEC
0
SECTION
2
ENTITIES
0
CIRCLE
8
CARRIER_CUT
10
0.00000000
20
0.00000000
30
0
40
36.00000000
0
CIRCLE
8
CARRIER_CUT
10
0.00000000
20
0.00000000
30
0
40
7.10000000
0
CIRCLE
8
CARRIER_CUT
10
26.00000000
20
0.00000000
30
0
40
3.30000000
0
CIRCLE
8
CARRIER_CUT
10
18.38477631
20
18.38477631
30
0
40
3.30000000
0
CIRCLE
8
CARRIER_CUT
10
0.00000000
20
26.00000000
30
0
40
3.30000000
0
CIRCLE
8
CARRIER_CUT
10
-18.38477631
20
18.38477631
30
0
40
3.30000000
0
CIRCLE
8
CARRIER_CUT
10
-26.00000000
20
0.00000000
30
0
40
3.30000000
0
CIRCLE
8
CARRIER_CUT
10
-18.38477631
20
-18.38477631
30
0
40
3.30000000
0
CIRCLE
8
CARRIER_CUT
10
-0.00000000
20
-26.00000000
30
0
40
3.30000000
0
CIRCLE
8
CARRIER_CUT
10
18.38477631
20
-18.38477631
30
0
40
3.30000000
0
CIRCLE
8
CARRIER_CUT
10
10.16267486
20
4.20951776
30
0
40
1.70000000
0
CIRCLE
8
CARRIER_CUT
10
-4.20951776
20
10.16267486
30
0
40
1.70000000
0
CIRCLE
8
CARRIER_CUT
10
-10.16267486
20
-4.20951776
30
0
40
1.70000000
0
CIRCLE
8
CARRIER_CUT
10
4.20951776
20
-10.16267486
30
0
40
1.70000000
0
ENDSEC
0
EOF
