ISO-10303-21;
HEADER;
/* Generated by software containing ST-Developer
 * from STEP Tools, Inc. (www.steptools.com) 
 */

FILE_DESCRIPTION(
/* description */ (''),
/* implementation_level */ '2;1');

FILE_NAME(
/* name */ 'bearing_block.step',
/* time_stamp */ '2026-10-07T21:06:46-07:00',
/* author */ (''),
/* organization */ (''),
/* preprocessor_version */ 'ST-DEVELOPER v20.2',
/* originating_system */ 'Autodesk Translation Framework v15.15.0.0',
/* authorisation */ '');

FILE_SCHEMA (('AUTOMOTIVE_DESIGN { 1 0 10303 214 3 1 1 }'));
ENDSEC;

DATA;
#10=MECHANICAL_DESIGN_GEOMETRIC_PRESENTATION_REPRESENTATION('',(#13),#1647);
#11=SHAPE_REPRESENTATION_RELATIONSHIP('SRR','None',#1654,#12);
#12=ADVANCED_BREP_SHAPE_REPRESENTATION('',(#14),#1646);
#13=STYLED_ITEM('',(#1663),#14);
#14=MANIFOLD_SOLID_BREP('Body1',#939);
#15=FACE_BOUND('',#125,.T.);
#16=FACE_BOUND('',#126,.T.);
#17=FACE_BOUND('',#127,.T.);
#18=FACE_BOUND('',#128,.T.);
#19=FACE_BOUND('',#138,.T.);
#20=FACE_BOUND('',#139,.T.);
#21=FACE_BOUND('',#143,.T.);
#22=FACE_BOUND('',#144,.T.);
#23=FACE_BOUND('',#145,.T.);
#24=FACE_BOUND('',#146,.T.);
#25=FACE_BOUND('',#156,.T.);
#26=FACE_BOUND('',#157,.T.);
#27=FACE_BOUND('',#159,.T.);
#28=FACE_BOUND('',#160,.T.);
#29=FACE_BOUND('',#162,.T.);
#30=FACE_BOUND('',#163,.T.);
#31=PLANE('',#971);
#32=PLANE('',#979);
#33=PLANE('',#989);
#34=PLANE('',#995);
#35=PLANE('',#997);
#36=PLANE('',#1003);
#37=PLANE('',#1007);
#38=PLANE('',#1019);
#39=PLANE('',#1023);
#40=PLANE('',#1028);
#41=PLANE('',#1035);
#42=PLANE('',#1040);
#43=PLANE('',#1043);
#44=PLANE('',#1044);
#45=PLANE('',#1045);
#46=PLANE('',#1046);
#47=PLANE('',#1047);
#48=PLANE('',#1052);
#49=PLANE('',#1053);
#50=PLANE('',#1054);
#51=B_SPLINE_CURVE_WITH_KNOTS('',3,(#1369,#1370,#1371,#1372,#1373,#1374,
#1375,#1376,#1377,#1378),.UNSPECIFIED.,.F.,.F.,(4,2,2,2,4),(0.,0.117562819132908,
0.235125638265816,0.311588864828486,0.388052091391156),.UNSPECIFIED.);
#52=B_SPLINE_CURVE_WITH_KNOTS('',3,(#1404,#1405,#1406,#1407,#1408,#1409,
#1410,#1411,#1412,#1413),.UNSPECIFIED.,.F.,.F.,(4,2,2,2,4),(1.01106448007702,
1.08752770663969,1.16399093320236,1.28155375233527,1.39911657146818),
 .UNSPECIFIED.);
#53=B_SPLINE_CURVE_WITH_KNOTS('',3,(#1429,#1430,#1431,#1432,#1433,#1434,
#1435,#1436,#1437,#1438),.UNSPECIFIED.,.F.,.F.,(4,2,2,2,4),(0.,0.117562819132908,
0.235125638265817,0.311588864828486,0.388052091391156),.UNSPECIFIED.);
#54=B_SPLINE_CURVE_WITH_KNOTS('',3,(#1464,#1465,#1466,#1467,#1468,#1469,
#1470,#1471,#1472,#1473),.UNSPECIFIED.,.F.,.F.,(4,2,2,2,4),(1.01106448007702,
1.08752770663969,1.16399093320236,1.28155375233527,1.39911657146818),
 .UNSPECIFIED.);
#55=TOROIDAL_SURFACE('',#965,4.,2.);
#56=TOROIDAL_SURFACE('',#976,4.,2.);
#57=TOROIDAL_SURFACE('',#981,4.,2.);
#58=TOROIDAL_SURFACE('',#993,4.,2.);
#59=FACE_OUTER_BOUND('',#107,.T.);
#60=FACE_OUTER_BOUND('',#108,.T.);
#61=FACE_OUTER_BOUND('',#109,.T.);
#62=FACE_OUTER_BOUND('',#110,.T.);
#63=FACE_OUTER_BOUND('',#111,.T.);
#64=FACE_OUTER_BOUND('',#112,.T.);
#65=FACE_OUTER_BOUND('',#113,.T.);
#66=FACE_OUTER_BOUND('',#114,.T.);
#67=FACE_OUTER_BOUND('',#115,.T.);
#68=FACE_OUTER_BOUND('',#116,.T.);
#69=FACE_OUTER_BOUND('',#117,.T.);
#70=FACE_OUTER_BOUND('',#118,.T.);
#71=FACE_OUTER_BOUND('',#119,.T.);
#72=FACE_OUTER_BOUND('',#120,.T.);
#73=FACE_OUTER_BOUND('',#121,.T.);
#74=FACE_OUTER_BOUND('',#122,.T.);
#75=FACE_OUTER_BOUND('',#123,.T.);
#76=FACE_OUTER_BOUND('',#124,.T.);
#77=FACE_OUTER_BOUND('',#129,.T.);
#78=FACE_OUTER_BOUND('',#130,.T.);
#79=FACE_OUTER_BOUND('',#131,.T.);
#80=FACE_OUTER_BOUND('',#132,.T.);
#81=FACE_OUTER_BOUND('',#133,.T.);
#82=FACE_OUTER_BOUND('',#134,.T.);
#83=FACE_OUTER_BOUND('',#135,.T.);
#84=FACE_OUTER_BOUND('',#136,.T.);
#85=FACE_OUTER_BOUND('',#137,.T.);
#86=FACE_OUTER_BOUND('',#140,.T.);
#87=FACE_OUTER_BOUND('',#141,.T.);
#88=FACE_OUTER_BOUND('',#142,.T.);
#89=FACE_OUTER_BOUND('',#147,.T.);
#90=FACE_OUTER_BOUND('',#148,.T.);
#91=FACE_OUTER_BOUND('',#149,.T.);
#92=FACE_OUTER_BOUND('',#150,.T.);
#93=FACE_OUTER_BOUND('',#151,.T.);
#94=FACE_OUTER_BOUND('',#152,.T.);
#95=FACE_OUTER_BOUND('',#153,.T.);
#96=FACE_OUTER_BOUND('',#154,.T.);
#97=FACE_OUTER_BOUND('',#155,.T.);
#98=FACE_OUTER_BOUND('',#158,.T.);
#99=FACE_OUTER_BOUND('',#161,.T.);
#100=FACE_OUTER_BOUND('',#164,.T.);
#101=FACE_OUTER_BOUND('',#165,.T.);
#102=FACE_OUTER_BOUND('',#166,.T.);
#103=FACE_OUTER_BOUND('',#167,.T.);
#104=FACE_OUTER_BOUND('',#168,.T.);
#105=FACE_OUTER_BOUND('',#169,.T.);
#106=FACE_OUTER_BOUND('',#170,.T.);
#107=EDGE_LOOP('',(#599,#600,#601,#602));
#108=EDGE_LOOP('',(#603,#604,#605,#606));
#109=EDGE_LOOP('',(#607,#608,#609,#610));
#110=EDGE_LOOP('',(#611,#612,#613,#614));
#111=EDGE_LOOP('',(#615,#616,#617,#618));
#112=EDGE_LOOP('',(#619,#620,#621,#622));
#113=EDGE_LOOP('',(#623,#624,#625,#626,#627));
#114=EDGE_LOOP('',(#628,#629,#630,#631));
#115=EDGE_LOOP('',(#632,#633,#634,#635));
#116=EDGE_LOOP('',(#636,#637,#638,#639,#640));
#117=EDGE_LOOP('',(#641,#642,#643,#644));
#118=EDGE_LOOP('',(#645,#646,#647,#648));
#119=EDGE_LOOP('',(#649,#650,#651,#652));
#120=EDGE_LOOP('',(#653,#654,#655,#656));
#121=EDGE_LOOP('',(#657,#658,#659,#660));
#122=EDGE_LOOP('',(#661,#662,#663,#664));
#123=EDGE_LOOP('',(#665,#666,#667,#668,#669));
#124=EDGE_LOOP('',(#670,#671,#672,#673,#674,#675,#676,#677,#678,#679));
#125=EDGE_LOOP('',(#680));
#126=EDGE_LOOP('',(#681));
#127=EDGE_LOOP('',(#682));
#128=EDGE_LOOP('',(#683));
#129=EDGE_LOOP('',(#684,#685,#686,#687));
#130=EDGE_LOOP('',(#688,#689,#690,#691,#692,#693,#694,#695,#696,#697));
#131=EDGE_LOOP('',(#698,#699,#700,#701));
#132=EDGE_LOOP('',(#702,#703,#704,#705,#706,#707,#708,#709,#710,#711,#712,
#713,#714,#715,#716,#717,#718,#719,#720,#721));
#133=EDGE_LOOP('',(#722,#723,#724,#725));
#134=EDGE_LOOP('',(#726,#727,#728,#729,#730,#731,#732,#733,#734,#735));
#135=EDGE_LOOP('',(#736,#737,#738,#739));
#136=EDGE_LOOP('',(#740,#741,#742,#743));
#137=EDGE_LOOP('',(#744,#745,#746,#747));
#138=EDGE_LOOP('',(#748));
#139=EDGE_LOOP('',(#749));
#140=EDGE_LOOP('',(#750,#751,#752,#753));
#141=EDGE_LOOP('',(#754,#755,#756,#757,#758,#759,#760,#761));
#142=EDGE_LOOP('',(#762,#763,#764,#765,#766,#767));
#143=EDGE_LOOP('',(#768));
#144=EDGE_LOOP('',(#769));
#145=EDGE_LOOP('',(#770));
#146=EDGE_LOOP('',(#771));
#147=EDGE_LOOP('',(#772,#773,#774,#775));
#148=EDGE_LOOP('',(#776,#777,#778,#779));
#149=EDGE_LOOP('',(#780,#781,#782,#783));
#150=EDGE_LOOP('',(#784,#785,#786,#787));
#151=EDGE_LOOP('',(#788,#789,#790,#791));
#152=EDGE_LOOP('',(#792,#793,#794,#795));
#153=EDGE_LOOP('',(#796,#797,#798,#799,#800));
#154=EDGE_LOOP('',(#801,#802,#803,#804));
#155=EDGE_LOOP('',(#805,#806,#807,#808));
#156=EDGE_LOOP('',(#809));
#157=EDGE_LOOP('',(#810));
#158=EDGE_LOOP('',(#811,#812,#813,#814));
#159=EDGE_LOOP('',(#815));
#160=EDGE_LOOP('',(#816));
#161=EDGE_LOOP('',(#817,#818,#819,#820));
#162=EDGE_LOOP('',(#821));
#163=EDGE_LOOP('',(#822));
#164=EDGE_LOOP('',(#823,#824,#825,#826));
#165=EDGE_LOOP('',(#827,#828,#829,#830));
#166=EDGE_LOOP('',(#831,#832,#833,#834));
#167=EDGE_LOOP('',(#835,#836,#837,#838));
#168=EDGE_LOOP('',(#839,#840,#841,#842));
#169=EDGE_LOOP('',(#843,#844,#845,#846,#847,#848,#849,#850,#851,#852,#853,
#854,#855,#856,#857,#858,#859,#860,#861,#862));
#170=EDGE_LOOP('',(#863,#864,#865,#866));
#171=LINE('',#1342,#247);
#172=LINE('',#1348,#248);
#173=LINE('',#1354,#249);
#174=LINE('',#1360,#250);
#175=LINE('',#1384,#251);
#176=LINE('',#1385,#252);
#177=LINE('',#1388,#253);
#178=LINE('',#1391,#254);
#179=LINE('',#1397,#255);
#180=LINE('',#1400,#256);
#181=LINE('',#1418,#257);
#182=LINE('',#1421,#258);
#183=LINE('',#1444,#259);
#184=LINE('',#1445,#260);
#185=LINE('',#1448,#261);
#186=LINE('',#1451,#262);
#187=LINE('',#1454,#263);
#188=LINE('',#1455,#264);
#189=LINE('',#1460,#265);
#190=LINE('',#1477,#266);
#191=LINE('',#1480,#267);
#192=LINE('',#1483,#268);
#193=LINE('',#1485,#269);
#194=LINE('',#1487,#270);
#195=LINE('',#1489,#271);
#196=LINE('',#1491,#272);
#197=LINE('',#1492,#273);
#198=LINE('',#1502,#274);
#199=LINE('',#1503,#275);
#200=LINE('',#1506,#276);
#201=LINE('',#1508,#277);
#202=LINE('',#1510,#278);
#203=LINE('',#1512,#279);
#204=LINE('',#1513,#280);
#205=LINE('',#1519,#281);
#206=LINE('',#1522,#282);
#207=LINE('',#1526,#283);
#208=LINE('',#1530,#284);
#209=LINE('',#1532,#285);
#210=LINE('',#1534,#286);
#211=LINE('',#1538,#287);
#212=LINE('',#1542,#288);
#213=LINE('',#1546,#289);
#214=LINE('',#1551,#290);
#215=LINE('',#1557,#291);
#216=LINE('',#1560,#292);
#217=LINE('',#1562,#293);
#218=LINE('',#1563,#294);
#219=LINE('',#1564,#295);
#220=LINE('',#1568,#296);
#221=LINE('',#1572,#297);
#222=LINE('',#1573,#298);
#223=LINE('',#1577,#299);
#224=LINE('',#1581,#300);
#225=LINE('',#1582,#301);
#226=LINE('',#1584,#302);
#227=LINE('',#1595,#303);
#228=LINE('',#1598,#304);
#229=LINE('',#1601,#305);
#230=LINE('',#1602,#306);
#231=LINE('',#1606,#307);
#232=LINE('',#1609,#308);
#233=LINE('',#1612,#309);
#234=LINE('',#1615,#310);
#235=LINE('',#1616,#311);
#236=LINE('',#1623,#312);
#237=LINE('',#1624,#313);
#238=LINE('',#1626,#314);
#239=LINE('',#1629,#315);
#240=LINE('',#1630,#316);
#241=LINE('',#1632,#317);
#242=LINE('',#1634,#318);
#243=LINE('',#1636,#319);
#244=LINE('',#1638,#320);
#245=LINE('',#1640,#321);
#246=LINE('',#1642,#322);
#247=VECTOR('',#1061,2.7);
#248=VECTOR('',#1068,2.7);
#249=VECTOR('',#1075,2.7);
#250=VECTOR('',#1082,2.7);
#251=VECTOR('',#1097,10.);
#252=VECTOR('',#1098,10.);
#253=VECTOR('',#1101,10.);
#254=VECTOR('',#1104,10.);
#255=VECTOR('',#1109,10.);
#256=VECTOR('',#1112,10.);
#257=VECTOR('',#1121,10.);
#258=VECTOR('',#1124,10.);
#259=VECTOR('',#1137,10.);
#260=VECTOR('',#1138,10.);
#261=VECTOR('',#1141,10.);
#262=VECTOR('',#1144,10.);
#263=VECTOR('',#1147,10.);
#264=VECTOR('',#1148,10.);
#265=VECTOR('',#1153,10.);
#266=VECTOR('',#1162,10.);
#267=VECTOR('',#1165,10.);
#268=VECTOR('',#1168,10.);
#269=VECTOR('',#1169,10.);
#270=VECTOR('',#1170,10.);
#271=VECTOR('',#1171,10.);
#272=VECTOR('',#1172,10.);
#273=VECTOR('',#1173,10.);
#274=VECTOR('',#1184,10.);
#275=VECTOR('',#1185,10.);
#276=VECTOR('',#1188,10.);
#277=VECTOR('',#1189,10.);
#278=VECTOR('',#1190,10.);
#279=VECTOR('',#1191,10.);
#280=VECTOR('',#1192,10.);
#281=VECTOR('',#1199,10.);
#282=VECTOR('',#1202,10.);
#283=VECTOR('',#1205,10.);
#284=VECTOR('',#1208,10.);
#285=VECTOR('',#1209,10.);
#286=VECTOR('',#1210,10.);
#287=VECTOR('',#1213,10.);
#288=VECTOR('',#1216,10.);
#289=VECTOR('',#1219,10.);
#290=VECTOR('',#1224,10.);
#291=VECTOR('',#1231,10.);
#292=VECTOR('',#1236,10.);
#293=VECTOR('',#1237,10.);
#294=VECTOR('',#1238,10.);
#295=VECTOR('',#1239,10.);
#296=VECTOR('',#1244,10.);
#297=VECTOR('',#1249,10.);
#298=VECTOR('',#1250,10.);
#299=VECTOR('',#1255,10.);
#300=VECTOR('',#1260,10.);
#301=VECTOR('',#1261,10.);
#302=VECTOR('',#1264,10.);
#303=VECTOR('',#1275,10.);
#304=VECTOR('',#1278,10.);
#305=VECTOR('',#1281,10.);
#306=VECTOR('',#1282,10.);
#307=VECTOR('',#1287,10.);
#308=VECTOR('',#1290,10.);
#309=VECTOR('',#1293,10.);
#310=VECTOR('',#1296,10.);
#311=VECTOR('',#1297,10.);
#312=VECTOR('',#1308,10.);
#313=VECTOR('',#1309,10.);
#314=VECTOR('',#1312,10.);
#315=VECTOR('',#1315,10.);
#316=VECTOR('',#1316,10.);
#317=VECTOR('',#1319,11.);
#318=VECTOR('',#1322,0.75);
#319=VECTOR('',#1325,0.75);
#320=VECTOR('',#1328,0.75);
#321=VECTOR('',#1331,10.);
#322=VECTOR('',#1334,10.);
#323=CIRCLE('',#954,2.7);
#324=CIRCLE('',#955,2.7);
#325=CIRCLE('',#957,2.7);
#326=CIRCLE('',#958,2.7);
#327=CIRCLE('',#960,2.7);
#328=CIRCLE('',#961,2.7);
#329=CIRCLE('',#963,2.7);
#330=CIRCLE('',#964,2.7);
#331=CIRCLE('',#966,2.);
#332=CIRCLE('',#967,2.);
#333=CIRCLE('',#968,4.);
#334=CIRCLE('',#970,2.);
#335=CIRCLE('',#972,2.);
#336=CIRCLE('',#974,2.);
#337=CIRCLE('',#975,2.);
#338=CIRCLE('',#977,2.);
#339=CIRCLE('',#978,4.);
#340=CIRCLE('',#980,2.);
#341=CIRCLE('',#982,2.);
#342=CIRCLE('',#983,2.);
#343=CIRCLE('',#984,4.);
#344=CIRCLE('',#986,2.);
#345=CIRCLE('',#988,2.);
#346=CIRCLE('',#991,2.);
#347=CIRCLE('',#992,2.);
#348=CIRCLE('',#994,4.);
#349=CIRCLE('',#996,2.);
#350=CIRCLE('',#998,0.75);
#351=CIRCLE('',#999,0.75);
#352=CIRCLE('',#1000,0.75);
#353=CIRCLE('',#1001,11.);
#354=CIRCLE('',#1005,2.);
#355=CIRCLE('',#1006,2.);
#356=CIRCLE('',#1008,2.);
#357=CIRCLE('',#1009,2.);
#358=CIRCLE('',#1010,2.);
#359=CIRCLE('',#1011,2.);
#360=CIRCLE('',#1012,2.);
#361=CIRCLE('',#1013,2.);
#362=CIRCLE('',#1014,2.);
#363=CIRCLE('',#1015,2.);
#364=CIRCLE('',#1017,2.);
#365=CIRCLE('',#1018,2.);
#366=CIRCLE('',#1022,2.);
#367=CIRCLE('',#1025,2.);
#368=CIRCLE('',#1027,2.);
#369=CIRCLE('',#1029,0.75);
#370=CIRCLE('',#1030,0.75);
#371=CIRCLE('',#1031,0.75);
#372=CIRCLE('',#1032,11.);
#373=CIRCLE('',#1034,2.);
#374=CIRCLE('',#1037,2.);
#375=CIRCLE('',#1039,2.);
#376=CIRCLE('',#1042,2.);
#377=VERTEX_POINT('',#1339);
#378=VERTEX_POINT('',#1341);
#379=VERTEX_POINT('',#1345);
#380=VERTEX_POINT('',#1347);
#381=VERTEX_POINT('',#1351);
#382=VERTEX_POINT('',#1353);
#383=VERTEX_POINT('',#1357);
#384=VERTEX_POINT('',#1359);
#385=VERTEX_POINT('',#1363);
#386=VERTEX_POINT('',#1364);
#387=VERTEX_POINT('',#1366);
#388=VERTEX_POINT('',#1368);
#389=VERTEX_POINT('',#1381);
#390=VERTEX_POINT('',#1382);
#391=VERTEX_POINT('',#1387);
#392=VERTEX_POINT('',#1389);
#393=VERTEX_POINT('',#1393);
#394=VERTEX_POINT('',#1394);
#395=VERTEX_POINT('',#1396);
#396=VERTEX_POINT('',#1398);
#397=VERTEX_POINT('',#1402);
#398=VERTEX_POINT('',#1403);
#399=VERTEX_POINT('',#1417);
#400=VERTEX_POINT('',#1419);
#401=VERTEX_POINT('',#1423);
#402=VERTEX_POINT('',#1424);
#403=VERTEX_POINT('',#1426);
#404=VERTEX_POINT('',#1428);
#405=VERTEX_POINT('',#1441);
#406=VERTEX_POINT('',#1442);
#407=VERTEX_POINT('',#1447);
#408=VERTEX_POINT('',#1449);
#409=VERTEX_POINT('',#1453);
#410=VERTEX_POINT('',#1457);
#411=VERTEX_POINT('',#1459);
#412=VERTEX_POINT('',#1463);
#413=VERTEX_POINT('',#1476);
#414=VERTEX_POINT('',#1478);
#415=VERTEX_POINT('',#1482);
#416=VERTEX_POINT('',#1484);
#417=VERTEX_POINT('',#1486);
#418=VERTEX_POINT('',#1488);
#419=VERTEX_POINT('',#1490);
#420=VERTEX_POINT('',#1493);
#421=VERTEX_POINT('',#1495);
#422=VERTEX_POINT('',#1497);
#423=VERTEX_POINT('',#1499);
#424=VERTEX_POINT('',#1505);
#425=VERTEX_POINT('',#1507);
#426=VERTEX_POINT('',#1509);
#427=VERTEX_POINT('',#1511);
#428=VERTEX_POINT('',#1515);
#429=VERTEX_POINT('',#1517);
#430=VERTEX_POINT('',#1521);
#431=VERTEX_POINT('',#1523);
#432=VERTEX_POINT('',#1525);
#433=VERTEX_POINT('',#1527);
#434=VERTEX_POINT('',#1529);
#435=VERTEX_POINT('',#1531);
#436=VERTEX_POINT('',#1533);
#437=VERTEX_POINT('',#1535);
#438=VERTEX_POINT('',#1537);
#439=VERTEX_POINT('',#1539);
#440=VERTEX_POINT('',#1541);
#441=VERTEX_POINT('',#1543);
#442=VERTEX_POINT('',#1545);
#443=VERTEX_POINT('',#1548);
#444=VERTEX_POINT('',#1550);
#445=VERTEX_POINT('',#1554);
#446=VERTEX_POINT('',#1556);
#447=VERTEX_POINT('',#1561);
#448=VERTEX_POINT('',#1567);
#449=VERTEX_POINT('',#1571);
#450=VERTEX_POINT('',#1575);
#451=VERTEX_POINT('',#1579);
#452=VERTEX_POINT('',#1585);
#453=VERTEX_POINT('',#1587);
#454=VERTEX_POINT('',#1589);
#455=VERTEX_POINT('',#1591);
#456=VERTEX_POINT('',#1594);
#457=VERTEX_POINT('',#1596);
#458=VERTEX_POINT('',#1600);
#459=VERTEX_POINT('',#1604);
#460=VERTEX_POINT('',#1608);
#461=VERTEX_POINT('',#1610);
#462=VERTEX_POINT('',#1614);
#463=VERTEX_POINT('',#1622);
#464=VERTEX_POINT('',#1628);
#465=EDGE_CURVE('',#377,#377,#323,.T.);
#466=EDGE_CURVE('',#377,#378,#171,.T.);
#467=EDGE_CURVE('',#378,#378,#324,.T.);
#468=EDGE_CURVE('',#379,#379,#325,.T.);
#469=EDGE_CURVE('',#379,#380,#172,.T.);
#470=EDGE_CURVE('',#380,#380,#326,.T.);
#471=EDGE_CURVE('',#381,#381,#327,.T.);
#472=EDGE_CURVE('',#381,#382,#173,.T.);
#473=EDGE_CURVE('',#382,#382,#328,.T.);
#474=EDGE_CURVE('',#383,#383,#329,.T.);
#475=EDGE_CURVE('',#383,#384,#174,.T.);
#476=EDGE_CURVE('',#384,#384,#330,.T.);
#477=EDGE_CURVE('',#385,#386,#331,.T.);
#478=EDGE_CURVE('',#386,#387,#332,.T.);
#479=EDGE_CURVE('',#387,#388,#51,.T.);
#480=EDGE_CURVE('',#388,#385,#333,.T.);
#481=EDGE_CURVE('',#389,#390,#334,.T.);
#482=EDGE_CURVE('',#389,#386,#175,.T.);
#483=EDGE_CURVE('',#385,#390,#176,.T.);
#484=EDGE_CURVE('',#388,#391,#177,.T.);
#485=EDGE_CURVE('',#392,#391,#335,.T.);
#486=EDGE_CURVE('',#390,#392,#178,.T.);
#487=EDGE_CURVE('',#393,#394,#336,.T.);
#488=EDGE_CURVE('',#393,#395,#179,.T.);
#489=EDGE_CURVE('',#395,#396,#337,.T.);
#490=EDGE_CURVE('',#396,#394,#180,.T.);
#491=EDGE_CURVE('',#397,#398,#52,.T.);
#492=EDGE_CURVE('',#398,#396,#338,.T.);
#493=EDGE_CURVE('',#395,#397,#339,.T.);
#494=EDGE_CURVE('',#399,#393,#181,.T.);
#495=EDGE_CURVE('',#400,#399,#340,.T.);
#496=EDGE_CURVE('',#400,#397,#182,.T.);
#497=EDGE_CURVE('',#401,#402,#341,.T.);
#498=EDGE_CURVE('',#402,#403,#342,.T.);
#499=EDGE_CURVE('',#403,#404,#53,.T.);
#500=EDGE_CURVE('',#404,#401,#343,.T.);
#501=EDGE_CURVE('',#405,#406,#344,.T.);
#502=EDGE_CURVE('',#405,#402,#183,.T.);
#503=EDGE_CURVE('',#401,#406,#184,.T.);
#504=EDGE_CURVE('',#402,#407,#185,.T.);
#505=EDGE_CURVE('',#408,#407,#345,.T.);
#506=EDGE_CURVE('',#408,#403,#186,.T.);
#507=EDGE_CURVE('',#409,#405,#187,.T.);
#508=EDGE_CURVE('',#407,#409,#188,.T.);
#509=EDGE_CURVE('',#410,#409,#346,.T.);
#510=EDGE_CURVE('',#410,#411,#189,.T.);
#511=EDGE_CURVE('',#411,#407,#347,.T.);
#512=EDGE_CURVE('',#412,#408,#54,.T.);
#513=EDGE_CURVE('',#411,#412,#348,.T.);
#514=EDGE_CURVE('',#413,#410,#190,.T.);
#515=EDGE_CURVE('',#414,#413,#349,.T.);
#516=EDGE_CURVE('',#414,#412,#191,.T.);
#517=EDGE_CURVE('',#406,#415,#192,.T.);
#518=EDGE_CURVE('',#416,#415,#193,.T.);
#519=EDGE_CURVE('',#416,#417,#194,.T.);
#520=EDGE_CURVE('',#418,#417,#195,.T.);
#521=EDGE_CURVE('',#418,#419,#196,.T.);
#522=EDGE_CURVE('',#413,#419,#197,.T.);
#523=EDGE_CURVE('',#420,#420,#350,.T.);
#524=EDGE_CURVE('',#421,#421,#351,.T.);
#525=EDGE_CURVE('',#422,#422,#352,.T.);
#526=EDGE_CURVE('',#423,#423,#353,.T.);
#527=EDGE_CURVE('',#386,#396,#198,.T.);
#528=EDGE_CURVE('',#398,#387,#199,.T.);
#529=EDGE_CURVE('',#424,#400,#200,.T.);
#530=EDGE_CURVE('',#425,#424,#201,.T.);
#531=EDGE_CURVE('',#426,#425,#202,.T.);
#532=EDGE_CURVE('',#426,#427,#203,.T.);
#533=EDGE_CURVE('',#391,#427,#204,.T.);
#534=EDGE_CURVE('',#428,#426,#354,.T.);
#535=EDGE_CURVE('',#425,#429,#355,.T.);
#536=EDGE_CURVE('',#429,#428,#205,.T.);
#537=EDGE_CURVE('',#430,#428,#206,.T.);
#538=EDGE_CURVE('',#431,#430,#356,.T.);
#539=EDGE_CURVE('',#432,#431,#207,.T.);
#540=EDGE_CURVE('',#433,#432,#357,.T.);
#541=EDGE_CURVE('',#434,#433,#208,.T.);
#542=EDGE_CURVE('',#434,#435,#209,.T.);
#543=EDGE_CURVE('',#436,#435,#210,.T.);
#544=EDGE_CURVE('',#437,#436,#358,.T.);
#545=EDGE_CURVE('',#438,#437,#211,.T.);
#546=EDGE_CURVE('',#439,#438,#359,.T.);
#547=EDGE_CURVE('',#440,#439,#212,.T.);
#548=EDGE_CURVE('',#441,#440,#360,.T.);
#549=EDGE_CURVE('',#442,#441,#213,.T.);
#550=EDGE_CURVE('',#419,#442,#361,.T.);
#551=EDGE_CURVE('',#443,#418,#362,.T.);
#552=EDGE_CURVE('',#444,#443,#214,.T.);
#553=EDGE_CURVE('',#427,#444,#363,.T.);
#554=EDGE_CURVE('',#415,#445,#364,.T.);
#555=EDGE_CURVE('',#445,#446,#215,.T.);
#556=EDGE_CURVE('',#446,#416,#365,.T.);
#557=EDGE_CURVE('',#442,#414,#216,.T.);
#558=EDGE_CURVE('',#447,#441,#217,.T.);
#559=EDGE_CURVE('',#447,#446,#218,.T.);
#560=EDGE_CURVE('',#404,#445,#219,.T.);
#561=EDGE_CURVE('',#440,#448,#220,.T.);
#562=EDGE_CURVE('',#448,#447,#366,.T.);
#563=EDGE_CURVE('',#449,#439,#221,.T.);
#564=EDGE_CURVE('',#449,#448,#222,.T.);
#565=EDGE_CURVE('',#417,#450,#367,.T.);
#566=EDGE_CURVE('',#450,#443,#223,.T.);
#567=EDGE_CURVE('',#451,#424,#368,.T.);
#568=EDGE_CURVE('',#399,#392,#224,.T.);
#569=EDGE_CURVE('',#444,#451,#225,.T.);
#570=EDGE_CURVE('',#394,#389,#226,.T.);
#571=EDGE_CURVE('',#452,#452,#369,.T.);
#572=EDGE_CURVE('',#453,#453,#370,.T.);
#573=EDGE_CURVE('',#454,#454,#371,.T.);
#574=EDGE_CURVE('',#455,#455,#372,.T.);
#575=EDGE_CURVE('',#430,#456,#227,.T.);
#576=EDGE_CURVE('',#456,#457,#373,.T.);
#577=EDGE_CURVE('',#457,#431,#228,.T.);
#578=EDGE_CURVE('',#457,#458,#229,.T.);
#579=EDGE_CURVE('',#432,#458,#230,.T.);
#580=EDGE_CURVE('',#458,#459,#374,.T.);
#581=EDGE_CURVE('',#459,#433,#231,.T.);
#582=EDGE_CURVE('',#436,#460,#232,.T.);
#583=EDGE_CURVE('',#460,#461,#375,.T.);
#584=EDGE_CURVE('',#461,#437,#233,.T.);
#585=EDGE_CURVE('',#461,#462,#234,.T.);
#586=EDGE_CURVE('',#438,#462,#235,.T.);
#587=EDGE_CURVE('',#462,#449,#376,.T.);
#588=EDGE_CURVE('',#459,#463,#236,.T.);
#589=EDGE_CURVE('',#463,#434,#237,.T.);
#590=EDGE_CURVE('',#429,#456,#238,.T.);
#591=EDGE_CURVE('',#435,#464,#239,.T.);
#592=EDGE_CURVE('',#464,#460,#240,.T.);
#593=EDGE_CURVE('',#423,#455,#241,.T.);
#594=EDGE_CURVE('',#422,#454,#242,.T.);
#595=EDGE_CURVE('',#421,#453,#243,.T.);
#596=EDGE_CURVE('',#420,#452,#244,.T.);
#597=EDGE_CURVE('',#451,#450,#245,.T.);
#598=EDGE_CURVE('',#463,#464,#246,.T.);
#599=ORIENTED_EDGE('',*,*,#465,.F.);
#600=ORIENTED_EDGE('',*,*,#466,.T.);
#601=ORIENTED_EDGE('',*,*,#467,.F.);
#602=ORIENTED_EDGE('',*,*,#466,.F.);
#603=ORIENTED_EDGE('',*,*,#468,.F.);
#604=ORIENTED_EDGE('',*,*,#469,.T.);
#605=ORIENTED_EDGE('',*,*,#470,.F.);
#606=ORIENTED_EDGE('',*,*,#469,.F.);
#607=ORIENTED_EDGE('',*,*,#471,.F.);
#608=ORIENTED_EDGE('',*,*,#472,.T.);
#609=ORIENTED_EDGE('',*,*,#473,.F.);
#610=ORIENTED_EDGE('',*,*,#472,.F.);
#611=ORIENTED_EDGE('',*,*,#474,.F.);
#612=ORIENTED_EDGE('',*,*,#475,.T.);
#613=ORIENTED_EDGE('',*,*,#476,.F.);
#614=ORIENTED_EDGE('',*,*,#475,.F.);
#615=ORIENTED_EDGE('',*,*,#477,.T.);
#616=ORIENTED_EDGE('',*,*,#478,.T.);
#617=ORIENTED_EDGE('',*,*,#479,.T.);
#618=ORIENTED_EDGE('',*,*,#480,.T.);
#619=ORIENTED_EDGE('',*,*,#481,.F.);
#620=ORIENTED_EDGE('',*,*,#482,.T.);
#621=ORIENTED_EDGE('',*,*,#477,.F.);
#622=ORIENTED_EDGE('',*,*,#483,.T.);
#623=ORIENTED_EDGE('',*,*,#483,.F.);
#624=ORIENTED_EDGE('',*,*,#480,.F.);
#625=ORIENTED_EDGE('',*,*,#484,.T.);
#626=ORIENTED_EDGE('',*,*,#485,.F.);
#627=ORIENTED_EDGE('',*,*,#486,.F.);
#628=ORIENTED_EDGE('',*,*,#487,.F.);
#629=ORIENTED_EDGE('',*,*,#488,.T.);
#630=ORIENTED_EDGE('',*,*,#489,.T.);
#631=ORIENTED_EDGE('',*,*,#490,.T.);
#632=ORIENTED_EDGE('',*,*,#491,.T.);
#633=ORIENTED_EDGE('',*,*,#492,.T.);
#634=ORIENTED_EDGE('',*,*,#489,.F.);
#635=ORIENTED_EDGE('',*,*,#493,.T.);
#636=ORIENTED_EDGE('',*,*,#493,.F.);
#637=ORIENTED_EDGE('',*,*,#488,.F.);
#638=ORIENTED_EDGE('',*,*,#494,.F.);
#639=ORIENTED_EDGE('',*,*,#495,.F.);
#640=ORIENTED_EDGE('',*,*,#496,.T.);
#641=ORIENTED_EDGE('',*,*,#497,.T.);
#642=ORIENTED_EDGE('',*,*,#498,.T.);
#643=ORIENTED_EDGE('',*,*,#499,.T.);
#644=ORIENTED_EDGE('',*,*,#500,.T.);
#645=ORIENTED_EDGE('',*,*,#501,.F.);
#646=ORIENTED_EDGE('',*,*,#502,.T.);
#647=ORIENTED_EDGE('',*,*,#497,.F.);
#648=ORIENTED_EDGE('',*,*,#503,.T.);
#649=ORIENTED_EDGE('',*,*,#498,.F.);
#650=ORIENTED_EDGE('',*,*,#504,.T.);
#651=ORIENTED_EDGE('',*,*,#505,.F.);
#652=ORIENTED_EDGE('',*,*,#506,.T.);
#653=ORIENTED_EDGE('',*,*,#502,.F.);
#654=ORIENTED_EDGE('',*,*,#507,.F.);
#655=ORIENTED_EDGE('',*,*,#508,.F.);
#656=ORIENTED_EDGE('',*,*,#504,.F.);
#657=ORIENTED_EDGE('',*,*,#509,.F.);
#658=ORIENTED_EDGE('',*,*,#510,.T.);
#659=ORIENTED_EDGE('',*,*,#511,.T.);
#660=ORIENTED_EDGE('',*,*,#508,.T.);
#661=ORIENTED_EDGE('',*,*,#512,.T.);
#662=ORIENTED_EDGE('',*,*,#505,.T.);
#663=ORIENTED_EDGE('',*,*,#511,.F.);
#664=ORIENTED_EDGE('',*,*,#513,.T.);
#665=ORIENTED_EDGE('',*,*,#513,.F.);
#666=ORIENTED_EDGE('',*,*,#510,.F.);
#667=ORIENTED_EDGE('',*,*,#514,.F.);
#668=ORIENTED_EDGE('',*,*,#515,.F.);
#669=ORIENTED_EDGE('',*,*,#516,.T.);
#670=ORIENTED_EDGE('',*,*,#501,.T.);
#671=ORIENTED_EDGE('',*,*,#517,.T.);
#672=ORIENTED_EDGE('',*,*,#518,.F.);
#673=ORIENTED_EDGE('',*,*,#519,.T.);
#674=ORIENTED_EDGE('',*,*,#520,.F.);
#675=ORIENTED_EDGE('',*,*,#521,.T.);
#676=ORIENTED_EDGE('',*,*,#522,.F.);
#677=ORIENTED_EDGE('',*,*,#514,.T.);
#678=ORIENTED_EDGE('',*,*,#509,.T.);
#679=ORIENTED_EDGE('',*,*,#507,.T.);
#680=ORIENTED_EDGE('',*,*,#523,.T.);
#681=ORIENTED_EDGE('',*,*,#524,.T.);
#682=ORIENTED_EDGE('',*,*,#525,.T.);
#683=ORIENTED_EDGE('',*,*,#526,.T.);
#684=ORIENTED_EDGE('',*,*,#478,.F.);
#685=ORIENTED_EDGE('',*,*,#527,.T.);
#686=ORIENTED_EDGE('',*,*,#492,.F.);
#687=ORIENTED_EDGE('',*,*,#528,.T.);
#688=ORIENTED_EDGE('',*,*,#479,.F.);
#689=ORIENTED_EDGE('',*,*,#528,.F.);
#690=ORIENTED_EDGE('',*,*,#491,.F.);
#691=ORIENTED_EDGE('',*,*,#496,.F.);
#692=ORIENTED_EDGE('',*,*,#529,.F.);
#693=ORIENTED_EDGE('',*,*,#530,.F.);
#694=ORIENTED_EDGE('',*,*,#531,.F.);
#695=ORIENTED_EDGE('',*,*,#532,.T.);
#696=ORIENTED_EDGE('',*,*,#533,.F.);
#697=ORIENTED_EDGE('',*,*,#484,.F.);
#698=ORIENTED_EDGE('',*,*,#534,.T.);
#699=ORIENTED_EDGE('',*,*,#531,.T.);
#700=ORIENTED_EDGE('',*,*,#535,.T.);
#701=ORIENTED_EDGE('',*,*,#536,.T.);
#702=ORIENTED_EDGE('',*,*,#534,.F.);
#703=ORIENTED_EDGE('',*,*,#537,.F.);
#704=ORIENTED_EDGE('',*,*,#538,.F.);
#705=ORIENTED_EDGE('',*,*,#539,.F.);
#706=ORIENTED_EDGE('',*,*,#540,.F.);
#707=ORIENTED_EDGE('',*,*,#541,.F.);
#708=ORIENTED_EDGE('',*,*,#542,.T.);
#709=ORIENTED_EDGE('',*,*,#543,.F.);
#710=ORIENTED_EDGE('',*,*,#544,.F.);
#711=ORIENTED_EDGE('',*,*,#545,.F.);
#712=ORIENTED_EDGE('',*,*,#546,.F.);
#713=ORIENTED_EDGE('',*,*,#547,.F.);
#714=ORIENTED_EDGE('',*,*,#548,.F.);
#715=ORIENTED_EDGE('',*,*,#549,.F.);
#716=ORIENTED_EDGE('',*,*,#550,.F.);
#717=ORIENTED_EDGE('',*,*,#521,.F.);
#718=ORIENTED_EDGE('',*,*,#551,.F.);
#719=ORIENTED_EDGE('',*,*,#552,.F.);
#720=ORIENTED_EDGE('',*,*,#553,.F.);
#721=ORIENTED_EDGE('',*,*,#532,.F.);
#722=ORIENTED_EDGE('',*,*,#554,.T.);
#723=ORIENTED_EDGE('',*,*,#555,.T.);
#724=ORIENTED_EDGE('',*,*,#556,.T.);
#725=ORIENTED_EDGE('',*,*,#518,.T.);
#726=ORIENTED_EDGE('',*,*,#516,.F.);
#727=ORIENTED_EDGE('',*,*,#557,.F.);
#728=ORIENTED_EDGE('',*,*,#549,.T.);
#729=ORIENTED_EDGE('',*,*,#558,.F.);
#730=ORIENTED_EDGE('',*,*,#559,.T.);
#731=ORIENTED_EDGE('',*,*,#555,.F.);
#732=ORIENTED_EDGE('',*,*,#560,.F.);
#733=ORIENTED_EDGE('',*,*,#499,.F.);
#734=ORIENTED_EDGE('',*,*,#506,.F.);
#735=ORIENTED_EDGE('',*,*,#512,.F.);
#736=ORIENTED_EDGE('',*,*,#515,.T.);
#737=ORIENTED_EDGE('',*,*,#522,.T.);
#738=ORIENTED_EDGE('',*,*,#550,.T.);
#739=ORIENTED_EDGE('',*,*,#557,.T.);
#740=ORIENTED_EDGE('',*,*,#548,.T.);
#741=ORIENTED_EDGE('',*,*,#561,.T.);
#742=ORIENTED_EDGE('',*,*,#562,.T.);
#743=ORIENTED_EDGE('',*,*,#558,.T.);
#744=ORIENTED_EDGE('',*,*,#561,.F.);
#745=ORIENTED_EDGE('',*,*,#547,.T.);
#746=ORIENTED_EDGE('',*,*,#563,.F.);
#747=ORIENTED_EDGE('',*,*,#564,.T.);
#748=ORIENTED_EDGE('',*,*,#465,.T.);
#749=ORIENTED_EDGE('',*,*,#471,.T.);
#750=ORIENTED_EDGE('',*,*,#551,.T.);
#751=ORIENTED_EDGE('',*,*,#520,.T.);
#752=ORIENTED_EDGE('',*,*,#565,.T.);
#753=ORIENTED_EDGE('',*,*,#566,.T.);
#754=ORIENTED_EDGE('',*,*,#567,.T.);
#755=ORIENTED_EDGE('',*,*,#529,.T.);
#756=ORIENTED_EDGE('',*,*,#495,.T.);
#757=ORIENTED_EDGE('',*,*,#568,.T.);
#758=ORIENTED_EDGE('',*,*,#485,.T.);
#759=ORIENTED_EDGE('',*,*,#533,.T.);
#760=ORIENTED_EDGE('',*,*,#553,.T.);
#761=ORIENTED_EDGE('',*,*,#569,.T.);
#762=ORIENTED_EDGE('',*,*,#481,.T.);
#763=ORIENTED_EDGE('',*,*,#486,.T.);
#764=ORIENTED_EDGE('',*,*,#568,.F.);
#765=ORIENTED_EDGE('',*,*,#494,.T.);
#766=ORIENTED_EDGE('',*,*,#487,.T.);
#767=ORIENTED_EDGE('',*,*,#570,.T.);
#768=ORIENTED_EDGE('',*,*,#571,.F.);
#769=ORIENTED_EDGE('',*,*,#572,.F.);
#770=ORIENTED_EDGE('',*,*,#573,.F.);
#771=ORIENTED_EDGE('',*,*,#574,.F.);
#772=ORIENTED_EDGE('',*,*,#538,.T.);
#773=ORIENTED_EDGE('',*,*,#575,.T.);
#774=ORIENTED_EDGE('',*,*,#576,.T.);
#775=ORIENTED_EDGE('',*,*,#577,.T.);
#776=ORIENTED_EDGE('',*,*,#577,.F.);
#777=ORIENTED_EDGE('',*,*,#578,.T.);
#778=ORIENTED_EDGE('',*,*,#579,.F.);
#779=ORIENTED_EDGE('',*,*,#539,.T.);
#780=ORIENTED_EDGE('',*,*,#540,.T.);
#781=ORIENTED_EDGE('',*,*,#579,.T.);
#782=ORIENTED_EDGE('',*,*,#580,.T.);
#783=ORIENTED_EDGE('',*,*,#581,.T.);
#784=ORIENTED_EDGE('',*,*,#544,.T.);
#785=ORIENTED_EDGE('',*,*,#582,.T.);
#786=ORIENTED_EDGE('',*,*,#583,.T.);
#787=ORIENTED_EDGE('',*,*,#584,.T.);
#788=ORIENTED_EDGE('',*,*,#584,.F.);
#789=ORIENTED_EDGE('',*,*,#585,.T.);
#790=ORIENTED_EDGE('',*,*,#586,.F.);
#791=ORIENTED_EDGE('',*,*,#545,.T.);
#792=ORIENTED_EDGE('',*,*,#546,.T.);
#793=ORIENTED_EDGE('',*,*,#586,.T.);
#794=ORIENTED_EDGE('',*,*,#587,.T.);
#795=ORIENTED_EDGE('',*,*,#563,.T.);
#796=ORIENTED_EDGE('',*,*,#500,.F.);
#797=ORIENTED_EDGE('',*,*,#560,.T.);
#798=ORIENTED_EDGE('',*,*,#554,.F.);
#799=ORIENTED_EDGE('',*,*,#517,.F.);
#800=ORIENTED_EDGE('',*,*,#503,.F.);
#801=ORIENTED_EDGE('',*,*,#482,.F.);
#802=ORIENTED_EDGE('',*,*,#570,.F.);
#803=ORIENTED_EDGE('',*,*,#490,.F.);
#804=ORIENTED_EDGE('',*,*,#527,.F.);
#805=ORIENTED_EDGE('',*,*,#581,.F.);
#806=ORIENTED_EDGE('',*,*,#588,.T.);
#807=ORIENTED_EDGE('',*,*,#589,.T.);
#808=ORIENTED_EDGE('',*,*,#541,.T.);
#809=ORIENTED_EDGE('',*,*,#468,.T.);
#810=ORIENTED_EDGE('',*,*,#474,.T.);
#811=ORIENTED_EDGE('',*,*,#536,.F.);
#812=ORIENTED_EDGE('',*,*,#590,.T.);
#813=ORIENTED_EDGE('',*,*,#575,.F.);
#814=ORIENTED_EDGE('',*,*,#537,.T.);
#815=ORIENTED_EDGE('',*,*,#470,.T.);
#816=ORIENTED_EDGE('',*,*,#476,.T.);
#817=ORIENTED_EDGE('',*,*,#582,.F.);
#818=ORIENTED_EDGE('',*,*,#543,.T.);
#819=ORIENTED_EDGE('',*,*,#591,.T.);
#820=ORIENTED_EDGE('',*,*,#592,.T.);
#821=ORIENTED_EDGE('',*,*,#467,.T.);
#822=ORIENTED_EDGE('',*,*,#473,.T.);
#823=ORIENTED_EDGE('',*,*,#526,.F.);
#824=ORIENTED_EDGE('',*,*,#593,.T.);
#825=ORIENTED_EDGE('',*,*,#574,.T.);
#826=ORIENTED_EDGE('',*,*,#593,.F.);
#827=ORIENTED_EDGE('',*,*,#525,.F.);
#828=ORIENTED_EDGE('',*,*,#594,.T.);
#829=ORIENTED_EDGE('',*,*,#573,.T.);
#830=ORIENTED_EDGE('',*,*,#594,.F.);
#831=ORIENTED_EDGE('',*,*,#524,.F.);
#832=ORIENTED_EDGE('',*,*,#595,.T.);
#833=ORIENTED_EDGE('',*,*,#572,.T.);
#834=ORIENTED_EDGE('',*,*,#595,.F.);
#835=ORIENTED_EDGE('',*,*,#523,.F.);
#836=ORIENTED_EDGE('',*,*,#596,.T.);
#837=ORIENTED_EDGE('',*,*,#571,.T.);
#838=ORIENTED_EDGE('',*,*,#596,.F.);
#839=ORIENTED_EDGE('',*,*,#566,.F.);
#840=ORIENTED_EDGE('',*,*,#597,.F.);
#841=ORIENTED_EDGE('',*,*,#569,.F.);
#842=ORIENTED_EDGE('',*,*,#552,.T.);
#843=ORIENTED_EDGE('',*,*,#535,.F.);
#844=ORIENTED_EDGE('',*,*,#530,.T.);
#845=ORIENTED_EDGE('',*,*,#567,.F.);
#846=ORIENTED_EDGE('',*,*,#597,.T.);
#847=ORIENTED_EDGE('',*,*,#565,.F.);
#848=ORIENTED_EDGE('',*,*,#519,.F.);
#849=ORIENTED_EDGE('',*,*,#556,.F.);
#850=ORIENTED_EDGE('',*,*,#559,.F.);
#851=ORIENTED_EDGE('',*,*,#562,.F.);
#852=ORIENTED_EDGE('',*,*,#564,.F.);
#853=ORIENTED_EDGE('',*,*,#587,.F.);
#854=ORIENTED_EDGE('',*,*,#585,.F.);
#855=ORIENTED_EDGE('',*,*,#583,.F.);
#856=ORIENTED_EDGE('',*,*,#592,.F.);
#857=ORIENTED_EDGE('',*,*,#598,.F.);
#858=ORIENTED_EDGE('',*,*,#588,.F.);
#859=ORIENTED_EDGE('',*,*,#580,.F.);
#860=ORIENTED_EDGE('',*,*,#578,.F.);
#861=ORIENTED_EDGE('',*,*,#576,.F.);
#862=ORIENTED_EDGE('',*,*,#590,.F.);
#863=ORIENTED_EDGE('',*,*,#589,.F.);
#864=ORIENTED_EDGE('',*,*,#598,.T.);
#865=ORIENTED_EDGE('',*,*,#591,.F.);
#866=ORIENTED_EDGE('',*,*,#542,.F.);
#867=CYLINDRICAL_SURFACE('',#953,2.7);
#868=CYLINDRICAL_SURFACE('',#956,2.7);
#869=CYLINDRICAL_SURFACE('',#959,2.7);
#870=CYLINDRICAL_SURFACE('',#962,2.7);
#871=CYLINDRICAL_SURFACE('',#969,2.);
#872=CYLINDRICAL_SURFACE('',#973,2.);
#873=CYLINDRICAL_SURFACE('',#985,2.);
#874=CYLINDRICAL_SURFACE('',#987,2.);
#875=CYLINDRICAL_SURFACE('',#990,2.);
#876=CYLINDRICAL_SURFACE('',#1002,2.);
#877=CYLINDRICAL_SURFACE('',#1004,2.);
#878=CYLINDRICAL_SURFACE('',#1016,2.);
#879=CYLINDRICAL_SURFACE('',#1020,2.);
#880=CYLINDRICAL_SURFACE('',#1021,2.);
#881=CYLINDRICAL_SURFACE('',#1024,2.);
#882=CYLINDRICAL_SURFACE('',#1026,2.);
#883=CYLINDRICAL_SURFACE('',#1033,2.);
#884=CYLINDRICAL_SURFACE('',#1036,2.);
#885=CYLINDRICAL_SURFACE('',#1038,2.);
#886=CYLINDRICAL_SURFACE('',#1041,2.);
#887=CYLINDRICAL_SURFACE('',#1048,11.);
#888=CYLINDRICAL_SURFACE('',#1049,0.75);
#889=CYLINDRICAL_SURFACE('',#1050,0.75);
#890=CYLINDRICAL_SURFACE('',#1051,0.75);
#891=ADVANCED_FACE('',(#59),#867,.F.);
#892=ADVANCED_FACE('',(#60),#868,.F.);
#893=ADVANCED_FACE('',(#61),#869,.F.);
#894=ADVANCED_FACE('',(#62),#870,.F.);
#895=ADVANCED_FACE('',(#63),#55,.F.);
#896=ADVANCED_FACE('',(#64),#871,.F.);
#897=ADVANCED_FACE('',(#65),#31,.T.);
#898=ADVANCED_FACE('',(#66),#872,.F.);
#899=ADVANCED_FACE('',(#67),#56,.F.);
#900=ADVANCED_FACE('',(#68),#32,.T.);
#901=ADVANCED_FACE('',(#69),#57,.F.);
#902=ADVANCED_FACE('',(#70),#873,.F.);
#903=ADVANCED_FACE('',(#71),#874,.T.);
#904=ADVANCED_FACE('',(#72),#33,.T.);
#905=ADVANCED_FACE('',(#73),#875,.F.);
#906=ADVANCED_FACE('',(#74),#58,.F.);
#907=ADVANCED_FACE('',(#75),#34,.T.);
#908=ADVANCED_FACE('',(#76,#15,#16,#17,#18),#35,.T.);
#909=ADVANCED_FACE('',(#77),#876,.T.);
#910=ADVANCED_FACE('',(#78),#36,.T.);
#911=ADVANCED_FACE('',(#79),#877,.T.);
#912=ADVANCED_FACE('',(#80),#37,.T.);
#913=ADVANCED_FACE('',(#81),#878,.F.);
#914=ADVANCED_FACE('',(#82),#38,.T.);
#915=ADVANCED_FACE('',(#83),#879,.F.);
#916=ADVANCED_FACE('',(#84),#880,.T.);
#917=ADVANCED_FACE('',(#85,#19,#20),#39,.T.);
#918=ADVANCED_FACE('',(#86),#881,.T.);
#919=ADVANCED_FACE('',(#87),#882,.T.);
#920=ADVANCED_FACE('',(#88,#21,#22,#23,#24),#40,.F.);
#921=ADVANCED_FACE('',(#89),#883,.T.);
#922=ADVANCED_FACE('',(#90),#41,.T.);
#923=ADVANCED_FACE('',(#91),#884,.T.);
#924=ADVANCED_FACE('',(#92),#885,.T.);
#925=ADVANCED_FACE('',(#93),#42,.T.);
#926=ADVANCED_FACE('',(#94),#886,.T.);
#927=ADVANCED_FACE('',(#95),#43,.T.);
#928=ADVANCED_FACE('',(#96),#44,.T.);
#929=ADVANCED_FACE('',(#97,#25,#26),#45,.T.);
#930=ADVANCED_FACE('',(#98,#27,#28),#46,.T.);
#931=ADVANCED_FACE('',(#99,#29,#30),#47,.T.);
#932=ADVANCED_FACE('',(#100),#887,.F.);
#933=ADVANCED_FACE('',(#101),#888,.F.);
#934=ADVANCED_FACE('',(#102),#889,.F.);
#935=ADVANCED_FACE('',(#103),#890,.F.);
#936=ADVANCED_FACE('',(#104),#48,.T.);
#937=ADVANCED_FACE('',(#105),#49,.T.);
#938=ADVANCED_FACE('',(#106),#50,.T.);
#939=CLOSED_SHELL('',(#891,#892,#893,#894,#895,#896,#897,#898,#899,#900,
#901,#902,#903,#904,#905,#906,#907,#908,#909,#910,#911,#912,#913,#914,#915,
#916,#917,#918,#919,#920,#921,#922,#923,#924,#925,#926,#927,#928,#929,#930,
#931,#932,#933,#934,#935,#936,#937,#938));
#940=DERIVED_UNIT_ELEMENT(#942,1.);
#941=DERIVED_UNIT_ELEMENT(#1649,-3.);
#942=(
MASS_UNIT()
NAMED_UNIT(*)
SI_UNIT(.KILO.,.GRAM.)
);
#943=DERIVED_UNIT((#940,#941));
#944=MEASURE_REPRESENTATION_ITEM('density measure',
POSITIVE_RATIO_MEASURE(7850.),#943);
#945=PROPERTY_DEFINITION_REPRESENTATION(#950,#947);
#946=PROPERTY_DEFINITION_REPRESENTATION(#951,#948);
#947=REPRESENTATION('material name',(#949),#1646);
#948=REPRESENTATION('density',(#944),#1646);
#949=DESCRIPTIVE_REPRESENTATION_ITEM('Steel','Steel');
#950=PROPERTY_DEFINITION('material property','material name',#1656);
#951=PROPERTY_DEFINITION('material property','density of part',#1656);
#952=AXIS2_PLACEMENT_3D('',#1337,#1055,#1056);
#953=AXIS2_PLACEMENT_3D('',#1338,#1057,#1058);
#954=AXIS2_PLACEMENT_3D('',#1340,#1059,#1060);
#955=AXIS2_PLACEMENT_3D('',#1343,#1062,#1063);
#956=AXIS2_PLACEMENT_3D('',#1344,#1064,#1065);
#957=AXIS2_PLACEMENT_3D('',#1346,#1066,#1067);
#958=AXIS2_PLACEMENT_3D('',#1349,#1069,#1070);
#959=AXIS2_PLACEMENT_3D('',#1350,#1071,#1072);
#960=AXIS2_PLACEMENT_3D('',#1352,#1073,#1074);
#961=AXIS2_PLACEMENT_3D('',#1355,#1076,#1077);
#962=AXIS2_PLACEMENT_3D('',#1356,#1078,#1079);
#963=AXIS2_PLACEMENT_3D('',#1358,#1080,#1081);
#964=AXIS2_PLACEMENT_3D('',#1361,#1083,#1084);
#965=AXIS2_PLACEMENT_3D('',#1362,#1085,#1086);
#966=AXIS2_PLACEMENT_3D('',#1365,#1087,#1088);
#967=AXIS2_PLACEMENT_3D('',#1367,#1089,#1090);
#968=AXIS2_PLACEMENT_3D('',#1379,#1091,#1092);
#969=AXIS2_PLACEMENT_3D('',#1380,#1093,#1094);
#970=AXIS2_PLACEMENT_3D('',#1383,#1095,#1096);
#971=AXIS2_PLACEMENT_3D('',#1386,#1099,#1100);
#972=AXIS2_PLACEMENT_3D('',#1390,#1102,#1103);
#973=AXIS2_PLACEMENT_3D('',#1392,#1105,#1106);
#974=AXIS2_PLACEMENT_3D('',#1395,#1107,#1108);
#975=AXIS2_PLACEMENT_3D('',#1399,#1110,#1111);
#976=AXIS2_PLACEMENT_3D('',#1401,#1113,#1114);
#977=AXIS2_PLACEMENT_3D('',#1414,#1115,#1116);
#978=AXIS2_PLACEMENT_3D('',#1415,#1117,#1118);
#979=AXIS2_PLACEMENT_3D('',#1416,#1119,#1120);
#980=AXIS2_PLACEMENT_3D('',#1420,#1122,#1123);
#981=AXIS2_PLACEMENT_3D('',#1422,#1125,#1126);
#982=AXIS2_PLACEMENT_3D('',#1425,#1127,#1128);
#983=AXIS2_PLACEMENT_3D('',#1427,#1129,#1130);
#984=AXIS2_PLACEMENT_3D('',#1439,#1131,#1132);
#985=AXIS2_PLACEMENT_3D('',#1440,#1133,#1134);
#986=AXIS2_PLACEMENT_3D('',#1443,#1135,#1136);
#987=AXIS2_PLACEMENT_3D('',#1446,#1139,#1140);
#988=AXIS2_PLACEMENT_3D('',#1450,#1142,#1143);
#989=AXIS2_PLACEMENT_3D('',#1452,#1145,#1146);
#990=AXIS2_PLACEMENT_3D('',#1456,#1149,#1150);
#991=AXIS2_PLACEMENT_3D('',#1458,#1151,#1152);
#992=AXIS2_PLACEMENT_3D('',#1461,#1154,#1155);
#993=AXIS2_PLACEMENT_3D('',#1462,#1156,#1157);
#994=AXIS2_PLACEMENT_3D('',#1474,#1158,#1159);
#995=AXIS2_PLACEMENT_3D('',#1475,#1160,#1161);
#996=AXIS2_PLACEMENT_3D('',#1479,#1163,#1164);
#997=AXIS2_PLACEMENT_3D('',#1481,#1166,#1167);
#998=AXIS2_PLACEMENT_3D('',#1494,#1174,#1175);
#999=AXIS2_PLACEMENT_3D('',#1496,#1176,#1177);
#1000=AXIS2_PLACEMENT_3D('',#1498,#1178,#1179);
#1001=AXIS2_PLACEMENT_3D('',#1500,#1180,#1181);
#1002=AXIS2_PLACEMENT_3D('',#1501,#1182,#1183);
#1003=AXIS2_PLACEMENT_3D('',#1504,#1186,#1187);
#1004=AXIS2_PLACEMENT_3D('',#1514,#1193,#1194);
#1005=AXIS2_PLACEMENT_3D('',#1516,#1195,#1196);
#1006=AXIS2_PLACEMENT_3D('',#1518,#1197,#1198);
#1007=AXIS2_PLACEMENT_3D('',#1520,#1200,#1201);
#1008=AXIS2_PLACEMENT_3D('',#1524,#1203,#1204);
#1009=AXIS2_PLACEMENT_3D('',#1528,#1206,#1207);
#1010=AXIS2_PLACEMENT_3D('',#1536,#1211,#1212);
#1011=AXIS2_PLACEMENT_3D('',#1540,#1214,#1215);
#1012=AXIS2_PLACEMENT_3D('',#1544,#1217,#1218);
#1013=AXIS2_PLACEMENT_3D('',#1547,#1220,#1221);
#1014=AXIS2_PLACEMENT_3D('',#1549,#1222,#1223);
#1015=AXIS2_PLACEMENT_3D('',#1552,#1225,#1226);
#1016=AXIS2_PLACEMENT_3D('',#1553,#1227,#1228);
#1017=AXIS2_PLACEMENT_3D('',#1555,#1229,#1230);
#1018=AXIS2_PLACEMENT_3D('',#1558,#1232,#1233);
#1019=AXIS2_PLACEMENT_3D('',#1559,#1234,#1235);
#1020=AXIS2_PLACEMENT_3D('',#1565,#1240,#1241);
#1021=AXIS2_PLACEMENT_3D('',#1566,#1242,#1243);
#1022=AXIS2_PLACEMENT_3D('',#1569,#1245,#1246);
#1023=AXIS2_PLACEMENT_3D('',#1570,#1247,#1248);
#1024=AXIS2_PLACEMENT_3D('',#1574,#1251,#1252);
#1025=AXIS2_PLACEMENT_3D('',#1576,#1253,#1254);
#1026=AXIS2_PLACEMENT_3D('',#1578,#1256,#1257);
#1027=AXIS2_PLACEMENT_3D('',#1580,#1258,#1259);
#1028=AXIS2_PLACEMENT_3D('',#1583,#1262,#1263);
#1029=AXIS2_PLACEMENT_3D('',#1586,#1265,#1266);
#1030=AXIS2_PLACEMENT_3D('',#1588,#1267,#1268);
#1031=AXIS2_PLACEMENT_3D('',#1590,#1269,#1270);
#1032=AXIS2_PLACEMENT_3D('',#1592,#1271,#1272);
#1033=AXIS2_PLACEMENT_3D('',#1593,#1273,#1274);
#1034=AXIS2_PLACEMENT_3D('',#1597,#1276,#1277);
#1035=AXIS2_PLACEMENT_3D('',#1599,#1279,#1280);
#1036=AXIS2_PLACEMENT_3D('',#1603,#1283,#1284);
#1037=AXIS2_PLACEMENT_3D('',#1605,#1285,#1286);
#1038=AXIS2_PLACEMENT_3D('',#1607,#1288,#1289);
#1039=AXIS2_PLACEMENT_3D('',#1611,#1291,#1292);
#1040=AXIS2_PLACEMENT_3D('',#1613,#1294,#1295);
#1041=AXIS2_PLACEMENT_3D('',#1617,#1298,#1299);
#1042=AXIS2_PLACEMENT_3D('',#1618,#1300,#1301);
#1043=AXIS2_PLACEMENT_3D('',#1619,#1302,#1303);
#1044=AXIS2_PLACEMENT_3D('',#1620,#1304,#1305);
#1045=AXIS2_PLACEMENT_3D('',#1621,#1306,#1307);
#1046=AXIS2_PLACEMENT_3D('',#1625,#1310,#1311);
#1047=AXIS2_PLACEMENT_3D('',#1627,#1313,#1314);
#1048=AXIS2_PLACEMENT_3D('',#1631,#1317,#1318);
#1049=AXIS2_PLACEMENT_3D('',#1633,#1320,#1321);
#1050=AXIS2_PLACEMENT_3D('',#1635,#1323,#1324);
#1051=AXIS2_PLACEMENT_3D('',#1637,#1326,#1327);
#1052=AXIS2_PLACEMENT_3D('',#1639,#1329,#1330);
#1053=AXIS2_PLACEMENT_3D('',#1641,#1332,#1333);
#1054=AXIS2_PLACEMENT_3D('',#1643,#1335,#1336);
#1055=DIRECTION('axis',(0.,0.,1.));
#1056=DIRECTION('refdir',(1.,0.,0.));
#1057=DIRECTION('center_axis',(-1.,0.,0.));
#1058=DIRECTION('ref_axis',(0.,0.,-1.));
#1059=DIRECTION('center_axis',(-1.,0.,0.));
#1060=DIRECTION('ref_axis',(0.,0.,-1.));
#1061=DIRECTION('',(-1.,0.,0.));
#1062=DIRECTION('center_axis',(1.,0.,0.));
#1063=DIRECTION('ref_axis',(0.,0.,-1.));
#1064=DIRECTION('center_axis',(-1.,0.,0.));
#1065=DIRECTION('ref_axis',(0.,0.,-1.));
#1066=DIRECTION('center_axis',(-1.,3.72529029846191E-9,0.));
#1067=DIRECTION('ref_axis',(0.,0.,-1.));
#1068=DIRECTION('',(-1.,0.,0.));
#1069=DIRECTION('center_axis',(1.,-2.22044604925031E-16,0.));
#1070=DIRECTION('ref_axis',(0.,0.,-1.));
#1071=DIRECTION('center_axis',(-1.,0.,0.));
#1072=DIRECTION('ref_axis',(0.,0.,-1.));
#1073=DIRECTION('center_axis',(-1.,0.,0.));
#1074=DIRECTION('ref_axis',(0.,0.,-1.));
#1075=DIRECTION('',(-1.,0.,0.));
#1076=DIRECTION('center_axis',(1.,0.,0.));
#1077=DIRECTION('ref_axis',(0.,0.,-1.));
#1078=DIRECTION('center_axis',(-1.,0.,0.));
#1079=DIRECTION('ref_axis',(0.,0.,-1.));
#1080=DIRECTION('center_axis',(-1.,3.72529029846191E-9,0.));
#1081=DIRECTION('ref_axis',(0.,0.,-1.));
#1082=DIRECTION('',(-1.,0.,0.));
#1083=DIRECTION('center_axis',(1.,-2.22044604925031E-16,0.));
#1084=DIRECTION('ref_axis',(0.,0.,-1.));
#1085=DIRECTION('center_axis',(0.,0.,-1.));
#1086=DIRECTION('ref_axis',(-1.,0.,0.));
#1087=DIRECTION('center_axis',(1.,-1.11022302462516E-15,0.));
#1088=DIRECTION('ref_axis',(0.,0.,1.));
#1089=DIRECTION('center_axis',(0.,0.,1.));
#1090=DIRECTION('ref_axis',(-0.593254257838036,0.805015146166233,0.));
#1091=DIRECTION('center_axis',(0.,0.,-1.));
#1092=DIRECTION('ref_axis',(-0.593254257838036,0.805015146166232,0.));
#1093=DIRECTION('center_axis',(1.,-6.53072367426563E-17,0.));
#1094=DIRECTION('ref_axis',(-4.9065389333868E-17,-0.707106781186548,0.707106781186547));
#1095=DIRECTION('center_axis',(-1.,0.,0.));
#1096=DIRECTION('ref_axis',(-4.9065389333868E-17,-0.707106781186548,0.707106781186547));
#1097=DIRECTION('',(-1.,6.53072367426563E-17,0.));
#1098=DIRECTION('',(1.,-6.53072367426563E-17,0.));
#1099=DIRECTION('center_axis',(0.,0.,-1.));
#1100=DIRECTION('ref_axis',(-1.,0.,0.));
#1101=DIRECTION('',(0.296098771114081,0.955157326174453,0.));
#1102=DIRECTION('center_axis',(0.,0.,1.));
#1103=DIRECTION('ref_axis',(-0.593254257838035,0.805015146166233,0.));
#1104=DIRECTION('',(0.,1.,0.));
#1105=DIRECTION('center_axis',(-1.,6.53072367426563E-17,0.));
#1106=DIRECTION('ref_axis',(0.,-0.707106781186548,-0.707106781186547));
#1107=DIRECTION('center_axis',(-1.,0.,0.));
#1108=DIRECTION('ref_axis',(0.,-0.707106781186548,-0.707106781186547));
#1109=DIRECTION('',(-1.,6.53072367426563E-17,0.));
#1110=DIRECTION('center_axis',(-1.,0.,0.));
#1111=DIRECTION('ref_axis',(0.,0.,-1.));
#1112=DIRECTION('',(1.,-6.53072367426563E-17,0.));
#1113=DIRECTION('center_axis',(0.,0.,1.));
#1114=DIRECTION('ref_axis',(1.,0.,0.));
#1115=DIRECTION('center_axis',(0.,0.,-1.));
#1116=DIRECTION('ref_axis',(-0.593254257838036,0.805015146166233,0.));
#1117=DIRECTION('center_axis',(0.,0.,1.));
#1118=DIRECTION('ref_axis',(-0.593254257838036,0.805015146166232,0.));
#1119=DIRECTION('center_axis',(0.,0.,1.));
#1120=DIRECTION('ref_axis',(1.,0.,0.));
#1121=DIRECTION('',(0.,-1.,0.));
#1122=DIRECTION('center_axis',(0.,0.,-1.));
#1123=DIRECTION('ref_axis',(-0.593254257838035,0.805015146166233,0.));
#1124=DIRECTION('',(-0.296098771114081,-0.955157326174453,0.));
#1125=DIRECTION('center_axis',(0.,0.,1.));
#1126=DIRECTION('ref_axis',(1.,0.,0.));
#1127=DIRECTION('center_axis',(-1.,1.11022302462516E-15,0.));
#1128=DIRECTION('ref_axis',(0.,0.,-1.));
#1129=DIRECTION('center_axis',(0.,0.,-1.));
#1130=DIRECTION('ref_axis',(0.633988905605538,0.773342141337902,0.));
#1131=DIRECTION('center_axis',(0.,0.,1.));
#1132=DIRECTION('ref_axis',(0.633988905605538,0.773342141337902,0.));
#1133=DIRECTION('center_axis',(-1.,-2.22044604925031E-16,0.));
#1134=DIRECTION('ref_axis',(0.,-0.707106781186548,-0.707106781186547));
#1135=DIRECTION('center_axis',(1.,0.,0.));
#1136=DIRECTION('ref_axis',(0.,-0.707106781186548,-0.707106781186547));
#1137=DIRECTION('',(1.,2.22044604925031E-16,0.));
#1138=DIRECTION('',(-1.,-2.22044604925031E-16,0.));
#1139=DIRECTION('center_axis',(0.,0.,1.));
#1140=DIRECTION('ref_axis',(0.633988905605539,0.773342141337902,0.));
#1141=DIRECTION('',(0.,0.,1.));
#1142=DIRECTION('center_axis',(0.,0.,1.));
#1143=DIRECTION('ref_axis',(0.633988905605538,0.773342141337902,0.));
#1144=DIRECTION('',(0.,0.,-1.));
#1145=DIRECTION('center_axis',(-2.22044604925031E-16,1.,0.));
#1146=DIRECTION('ref_axis',(-1.,-2.22044604925031E-16,0.));
#1147=DIRECTION('',(0.,0.,-1.));
#1148=DIRECTION('',(-1.,-2.22044604925031E-16,0.));
#1149=DIRECTION('center_axis',(1.,2.22044604925031E-16,0.));
#1150=DIRECTION('ref_axis',(0.,-0.707106781186548,0.707106781186547));
#1151=DIRECTION('center_axis',(1.,0.,0.));
#1152=DIRECTION('ref_axis',(0.,-0.707106781186548,0.707106781186547));
#1153=DIRECTION('',(1.,2.22044604925031E-16,0.));
#1154=DIRECTION('center_axis',(1.,0.,0.));
#1155=DIRECTION('ref_axis',(0.,0.,1.));
#1156=DIRECTION('center_axis',(0.,0.,-1.));
#1157=DIRECTION('ref_axis',(-1.,0.,0.));
#1158=DIRECTION('center_axis',(0.,0.,-1.));
#1159=DIRECTION('ref_axis',(0.633988905605538,0.773342141337902,0.));
#1160=DIRECTION('center_axis',(0.,0.,-1.));
#1161=DIRECTION('ref_axis',(-1.,0.,0.));
#1162=DIRECTION('',(0.,-1.,0.));
#1163=DIRECTION('center_axis',(0.,0.,-1.));
#1164=DIRECTION('ref_axis',(-0.99513332666807,-0.0985376179666413,0.));
#1165=DIRECTION('',(0.196116135138184,-0.98058067569092,0.));
#1166=DIRECTION('center_axis',(1.,0.,0.));
#1167=DIRECTION('ref_axis',(0.,0.,-1.));
#1168=DIRECTION('',(0.,1.,0.));
#1169=DIRECTION('',(0.,0.,1.));
#1170=DIRECTION('',(0.,1.,0.));
#1171=DIRECTION('',(0.,0.,-1.));
#1172=DIRECTION('',(0.,-1.,0.));
#1173=DIRECTION('',(0.,0.,1.));
#1174=DIRECTION('center_axis',(-1.,0.,0.));
#1175=DIRECTION('ref_axis',(0.,0.,-1.));
#1176=DIRECTION('center_axis',(-1.,0.,0.));
#1177=DIRECTION('ref_axis',(0.,0.,-1.));
#1178=DIRECTION('center_axis',(-1.,0.,0.));
#1179=DIRECTION('ref_axis',(0.,0.,-1.));
#1180=DIRECTION('center_axis',(-1.,0.,0.));
#1181=DIRECTION('ref_axis',(0.,0.,-1.));
#1182=DIRECTION('center_axis',(0.,0.,1.));
#1183=DIRECTION('ref_axis',(-0.593254257838037,0.805015146166232,0.));
#1184=DIRECTION('',(0.,0.,-1.));
#1185=DIRECTION('',(0.,0.,1.));
#1186=DIRECTION('center_axis',(-0.955157326174453,0.296098771114081,0.));
#1187=DIRECTION('ref_axis',(-0.296098771114081,-0.955157326174453,0.));
#1188=DIRECTION('',(0.,0.,1.));
#1189=DIRECTION('',(0.296098771114081,0.955157326174453,0.));
#1190=DIRECTION('',(0.,0.,-1.));
#1191=DIRECTION('',(0.296098771114081,0.955157326174453,0.));
#1192=DIRECTION('',(0.,0.,1.));
#1193=DIRECTION('center_axis',(0.,0.,1.));
#1194=DIRECTION('ref_axis',(-0.988725777497091,0.149737560126955,0.));
#1195=DIRECTION('center_axis',(0.,0.,-1.));
#1196=DIRECTION('ref_axis',(-0.988725777497091,0.149737560126955,0.));
#1197=DIRECTION('center_axis',(0.,0.,1.));
#1198=DIRECTION('ref_axis',(-0.988725777497091,0.149737560126955,0.));
#1199=DIRECTION('',(0.,0.,1.));
#1200=DIRECTION('center_axis',(0.,0.,1.));
#1201=DIRECTION('ref_axis',(0.,-1.,0.));
#1202=DIRECTION('',(2.22044604925031E-16,1.,0.));
#1203=DIRECTION('center_axis',(0.,0.,-1.));
#1204=DIRECTION('ref_axis',(-0.707106781186548,-0.707106781186548,0.));
#1205=DIRECTION('',(-1.,0.,0.));
#1206=DIRECTION('center_axis',(0.,0.,-1.));
#1207=DIRECTION('ref_axis',(0.707106779869459,-0.707106782503636,0.));
#1208=DIRECTION('',(-3.72529029846191E-9,-1.,0.));
#1209=DIRECTION('',(1.,0.,0.));
#1210=DIRECTION('',(0.,1.,0.));
#1211=DIRECTION('center_axis',(0.,0.,-1.));
#1212=DIRECTION('ref_axis',(-0.707106781186548,-0.707106781186548,0.));
#1213=DIRECTION('',(-1.,0.,0.));
#1214=DIRECTION('center_axis',(0.,0.,-1.));
#1215=DIRECTION('ref_axis',(0.707106781186547,-0.707106781186548,0.));
#1216=DIRECTION('',(0.,-1.,0.));
#1217=DIRECTION('center_axis',(0.,0.,-1.));
#1218=DIRECTION('ref_axis',(0.99513332666807,0.0985376179666422,0.));
#1219=DIRECTION('',(0.196116135138184,-0.98058067569092,0.));
#1220=DIRECTION('center_axis',(0.,0.,1.));
#1221=DIRECTION('ref_axis',(-0.99513332666807,-0.0985376179666413,0.));
#1222=DIRECTION('center_axis',(0.,0.,-1.));
#1223=DIRECTION('ref_axis',(0.707106781186546,0.707106781186549,0.));
#1224=DIRECTION('',(1.,0.,0.));
#1225=DIRECTION('center_axis',(0.,0.,-1.));
#1226=DIRECTION('ref_axis',(-0.593254257838035,0.805015146166233,0.));
#1227=DIRECTION('center_axis',(0.,0.,-1.));
#1228=DIRECTION('ref_axis',(-0.99513332666807,-0.0985376179666413,0.));
#1229=DIRECTION('center_axis',(0.,0.,1.));
#1230=DIRECTION('ref_axis',(-0.99513332666807,-0.0985376179666413,0.));
#1231=DIRECTION('',(0.,0.,-1.));
#1232=DIRECTION('center_axis',(0.,0.,-1.));
#1233=DIRECTION('ref_axis',(-0.99513332666807,-0.0985376179666413,0.));
#1234=DIRECTION('center_axis',(0.98058067569092,0.196116135138184,0.));
#1235=DIRECTION('ref_axis',(-0.196116135138184,0.98058067569092,0.));
#1236=DIRECTION('',(0.,0.,-1.));
#1237=DIRECTION('',(0.,0.,1.));
#1238=DIRECTION('',(-0.196116135138184,0.98058067569092,0.));
#1239=DIRECTION('',(-0.196116135138184,0.98058067569092,0.));
#1240=DIRECTION('center_axis',(0.,0.,-1.));
#1241=DIRECTION('ref_axis',(-0.99513332666807,-0.0985376179666413,0.));
#1242=DIRECTION('center_axis',(0.,0.,1.));
#1243=DIRECTION('ref_axis',(0.99513332666807,0.0985376179666422,0.));
#1244=DIRECTION('',(0.,0.,-1.));
#1245=DIRECTION('center_axis',(0.,0.,1.));
#1246=DIRECTION('ref_axis',(0.99513332666807,0.0985376179666422,0.));
#1247=DIRECTION('center_axis',(1.,0.,0.));
#1248=DIRECTION('ref_axis',(0.,1.,0.));
#1249=DIRECTION('',(0.,0.,1.));
#1250=DIRECTION('',(0.,1.,0.));
#1251=DIRECTION('center_axis',(0.,0.,1.));
#1252=DIRECTION('ref_axis',(0.707106781186546,0.707106781186549,0.));
#1253=DIRECTION('center_axis',(0.,0.,1.));
#1254=DIRECTION('ref_axis',(0.707106781186546,0.707106781186549,0.));
#1255=DIRECTION('',(0.,0.,1.));
#1256=DIRECTION('center_axis',(0.,0.,1.));
#1257=DIRECTION('ref_axis',(-0.593254257838035,0.805015146166233,0.));
#1258=DIRECTION('center_axis',(0.,0.,1.));
#1259=DIRECTION('ref_axis',(-0.593254257838035,0.805015146166233,0.));
#1260=DIRECTION('',(0.,0.,1.));
#1261=DIRECTION('',(0.,0.,-1.));
#1262=DIRECTION('center_axis',(1.,0.,0.));
#1263=DIRECTION('ref_axis',(0.,0.,-1.));
#1264=DIRECTION('',(0.,0.,1.));
#1265=DIRECTION('center_axis',(-1.,0.,0.));
#1266=DIRECTION('ref_axis',(0.,0.,-1.));
#1267=DIRECTION('center_axis',(-1.,0.,0.));
#1268=DIRECTION('ref_axis',(0.,0.,-1.));
#1269=DIRECTION('center_axis',(-1.,0.,0.));
#1270=DIRECTION('ref_axis',(0.,0.,-1.));
#1271=DIRECTION('center_axis',(-1.,0.,0.));
#1272=DIRECTION('ref_axis',(0.,0.,-1.));
#1273=DIRECTION('center_axis',(0.,0.,1.));
#1274=DIRECTION('ref_axis',(-0.707106781186548,-0.707106781186548,0.));
#1275=DIRECTION('',(0.,0.,-1.));
#1276=DIRECTION('center_axis',(0.,0.,1.));
#1277=DIRECTION('ref_axis',(-0.707106781186548,-0.707106781186548,0.));
#1278=DIRECTION('',(0.,0.,1.));
#1279=DIRECTION('center_axis',(0.,-1.,0.));
#1280=DIRECTION('ref_axis',(1.,0.,0.));
#1281=DIRECTION('',(1.,0.,0.));
#1282=DIRECTION('',(0.,0.,-1.));
#1283=DIRECTION('center_axis',(0.,0.,1.));
#1284=DIRECTION('ref_axis',(0.707106779869459,-0.707106782503636,0.));
#1285=DIRECTION('center_axis',(0.,0.,1.));
#1286=DIRECTION('ref_axis',(0.707106779869459,-0.707106782503636,0.));
#1287=DIRECTION('',(0.,0.,1.));
#1288=DIRECTION('center_axis',(0.,0.,1.));
#1289=DIRECTION('ref_axis',(-0.707106781186548,-0.707106781186548,0.));
#1290=DIRECTION('',(0.,0.,-1.));
#1291=DIRECTION('center_axis',(0.,0.,1.));
#1292=DIRECTION('ref_axis',(-0.707106781186548,-0.707106781186548,0.));
#1293=DIRECTION('',(0.,0.,1.));
#1294=DIRECTION('center_axis',(0.,-1.,0.));
#1295=DIRECTION('ref_axis',(1.,0.,0.));
#1296=DIRECTION('',(1.,0.,0.));
#1297=DIRECTION('',(0.,0.,-1.));
#1298=DIRECTION('center_axis',(0.,0.,1.));
#1299=DIRECTION('ref_axis',(0.707106781186547,-0.707106781186548,0.));
#1300=DIRECTION('center_axis',(0.,0.,1.));
#1301=DIRECTION('ref_axis',(0.707106781186547,-0.707106781186548,0.));
#1302=DIRECTION('center_axis',(0.,0.,1.));
#1303=DIRECTION('ref_axis',(1.,0.,0.));
#1304=DIRECTION('center_axis',(6.53072367426563E-17,1.,0.));
#1305=DIRECTION('ref_axis',(-1.,6.53072367426563E-17,0.));
#1306=DIRECTION('center_axis',(1.,-3.72529029846191E-9,0.));
#1307=DIRECTION('ref_axis',(3.72529029846191E-9,1.,0.));
#1308=DIRECTION('',(3.72529029846191E-9,1.,0.));
#1309=DIRECTION('',(0.,0.,1.));
#1310=DIRECTION('center_axis',(-1.,2.22044604925031E-16,0.));
#1311=DIRECTION('ref_axis',(-2.22044604925031E-16,-1.,0.));
#1312=DIRECTION('',(-2.22044604925031E-16,-1.,0.));
#1313=DIRECTION('center_axis',(-1.,0.,0.));
#1314=DIRECTION('ref_axis',(0.,-1.,0.));
#1315=DIRECTION('',(0.,0.,-1.));
#1316=DIRECTION('',(0.,-1.,0.));
#1317=DIRECTION('center_axis',(1.,0.,0.));
#1318=DIRECTION('ref_axis',(0.,0.,-1.));
#1319=DIRECTION('',(-1.,0.,0.));
#1320=DIRECTION('center_axis',(1.,0.,0.));
#1321=DIRECTION('ref_axis',(0.,0.,-1.));
#1322=DIRECTION('',(-1.,0.,0.));
#1323=DIRECTION('center_axis',(1.,0.,0.));
#1324=DIRECTION('ref_axis',(0.,0.,-1.));
#1325=DIRECTION('',(-1.,0.,0.));
#1326=DIRECTION('center_axis',(1.,0.,0.));
#1327=DIRECTION('ref_axis',(0.,0.,-1.));
#1328=DIRECTION('',(-1.,0.,0.));
#1329=DIRECTION('center_axis',(0.,1.,0.));
#1330=DIRECTION('ref_axis',(0.,0.,1.));
#1331=DIRECTION('',(1.,0.,0.));
#1332=DIRECTION('center_axis',(0.,0.,-1.));
#1333=DIRECTION('ref_axis',(0.,1.,0.));
#1334=DIRECTION('',(1.,0.,0.));
#1335=DIRECTION('center_axis',(0.,-1.,0.));
#1336=DIRECTION('ref_axis',(0.,0.,-1.));
#1337=CARTESIAN_POINT('',(0.,0.,0.));
#1338=CARTESIAN_POINT('Origin',(15.,-10.,10.));
#1339=CARTESIAN_POINT('',(15.,-10.,12.7));
#1340=CARTESIAN_POINT('Origin',(15.,-10.,10.));
#1341=CARTESIAN_POINT('',(10.,-10.,12.7));
#1342=CARTESIAN_POINT('',(15.,-10.,12.7));
#1343=CARTESIAN_POINT('Origin',(10.,-10.,10.));
#1344=CARTESIAN_POINT('Origin',(15.,-10.,10.));
#1345=CARTESIAN_POINT('',(-10.4999999627471,-10.,12.7));
#1346=CARTESIAN_POINT('Origin',(-10.4999999627471,-10.,10.));
#1347=CARTESIAN_POINT('',(-15.5,-10.,12.7));
#1348=CARTESIAN_POINT('',(15.,-10.,12.7));
#1349=CARTESIAN_POINT('Origin',(-15.5,-10.,10.));
#1350=CARTESIAN_POINT('Origin',(15.,-10.,-10.));
#1351=CARTESIAN_POINT('',(15.,-10.,-7.3));
#1352=CARTESIAN_POINT('Origin',(15.,-10.,-10.));
#1353=CARTESIAN_POINT('',(10.,-10.,-7.3));
#1354=CARTESIAN_POINT('',(15.,-10.,-7.3));
#1355=CARTESIAN_POINT('Origin',(10.,-10.,-10.));
#1356=CARTESIAN_POINT('Origin',(15.,-10.,-10.));
#1357=CARTESIAN_POINT('',(-10.4999999627471,-10.,-7.3));
#1358=CARTESIAN_POINT('Origin',(-10.4999999627471,-10.,-10.));
#1359=CARTESIAN_POINT('',(-15.5,-10.,-7.3));
#1360=CARTESIAN_POINT('',(15.,-10.,-7.3));
#1361=CARTESIAN_POINT('Origin',(-15.5,-10.,-10.));
#1362=CARTESIAN_POINT('Origin',(-12.4761041095604,3.,12.));
#1363=CARTESIAN_POINT('',(-12.4761041095604,7.,14.));
#1364=CARTESIAN_POINT('',(-12.4761041095604,5.,12.));
#1365=CARTESIAN_POINT('Origin',(-12.4761041095604,7.,12.));
#1366=CARTESIAN_POINT('',(-14.3864187619093,3.59219754222816,12.));
#1367=CARTESIAN_POINT('Origin',(-12.4761041095604,3.,12.));
#1368=CARTESIAN_POINT('',(-13.3607025306527,6.90095957853974,14.));
#1369=CARTESIAN_POINT('Ctrl Pts',(-14.3864187619093,3.59219754222816,12.));
#1370=CARTESIAN_POINT('Ctrl Pts',(-14.3043703188732,3.8568699391187,12.277098222081));
#1371=CARTESIAN_POINT('Ctrl Pts',(-14.2142223226005,4.14766992709525,12.5826819747121));
#1372=CARTESIAN_POINT('Ctrl Pts',(-14.0223022767926,4.76676684905603,13.1421224634465));
#1373=CARTESIAN_POINT('Ctrl Pts',(-13.9199097845929,5.09706521099076,13.3935468944369));
#1374=CARTESIAN_POINT('Ctrl Pts',(-13.7512794022519,5.64103418628427,13.7000621783504));
#1375=CARTESIAN_POINT('Ctrl Pts',(-13.6752241767472,5.88637362339613,13.8108377382864));
#1376=CARTESIAN_POINT('Ctrl Pts',(-13.5176939697846,6.3945355813401,13.9610913437372));
#1377=CARTESIAN_POINT('Ctrl Pts',(-13.4361714220548,6.65751154175884,14.));
#1378=CARTESIAN_POINT('Ctrl Pts',(-13.3607025306527,6.90095957853974,14.));
#1379=CARTESIAN_POINT('Origin',(-12.4761041095604,3.,14.));
#1380=CARTESIAN_POINT('Origin',(-0.125000000000001,7.,12.));
#1381=CARTESIAN_POINT('',(0.,5.,12.));
#1382=CARTESIAN_POINT('',(0.,7.,14.));
#1383=CARTESIAN_POINT('Origin',(-1.17961196366423E-15,7.,12.));
#1384=CARTESIAN_POINT('',(-0.125000000000001,5.,12.));
#1385=CARTESIAN_POINT('',(-0.125000000000001,7.,14.));
#1386=CARTESIAN_POINT('Origin',(-0.250000000000001,25.,14.));
#1387=CARTESIAN_POINT('',(-0.436418761909271,48.5921975422282,14.));
#1388=CARTESIAN_POINT('',(-3.54622069154274,38.5605784143782,14.));
#1389=CARTESIAN_POINT('',(0.,49.3518989992396,14.));
#1390=CARTESIAN_POINT('Origin',(1.47389589043963,48.,14.));
#1391=CARTESIAN_POINT('',(0.,25.,14.));
#1392=CARTESIAN_POINT('Origin',(-3.875,7.,-12.));
#1393=CARTESIAN_POINT('',(0.,7.,-14.));
#1394=CARTESIAN_POINT('',(0.,5.,-12.));
#1395=CARTESIAN_POINT('Origin',(-1.11022302462516E-15,7.,-12.));
#1396=CARTESIAN_POINT('',(-12.4761041095604,7.,-14.));
#1397=CARTESIAN_POINT('',(-3.875,7.,-14.));
#1398=CARTESIAN_POINT('',(-12.4761041095604,5.,-12.));
#1399=CARTESIAN_POINT('Origin',(-12.4761041095604,7.,-12.));
#1400=CARTESIAN_POINT('',(-3.875,5.,-12.));
#1401=CARTESIAN_POINT('Origin',(-12.4761041095604,3.,-12.));
#1402=CARTESIAN_POINT('',(-13.3607025306527,6.90095957853974,-14.));
#1403=CARTESIAN_POINT('',(-14.3864187619093,3.59219754222816,-12.));
#1404=CARTESIAN_POINT('Ctrl Pts',(-13.3607025306527,6.90095957853974,-14.));
#1405=CARTESIAN_POINT('Ctrl Pts',(-13.4361714220548,6.65751154175884,-14.));
#1406=CARTESIAN_POINT('Ctrl Pts',(-13.5176939697846,6.3945355813401,-13.9610913437372));
#1407=CARTESIAN_POINT('Ctrl Pts',(-13.6752241767472,5.88637362339613,-13.8108377382864));
#1408=CARTESIAN_POINT('Ctrl Pts',(-13.7512794022519,5.64103418628427,-13.7000621783504));
#1409=CARTESIAN_POINT('Ctrl Pts',(-13.9199097845929,5.09706521099076,-13.3935468944369));
#1410=CARTESIAN_POINT('Ctrl Pts',(-14.0223022767926,4.76676684905603,-13.1421224634465));
#1411=CARTESIAN_POINT('Ctrl Pts',(-14.2142223226005,4.14766992709525,-12.5826819747121));
#1412=CARTESIAN_POINT('Ctrl Pts',(-14.3043703188732,3.8568699391187,-12.277098222081));
#1413=CARTESIAN_POINT('Ctrl Pts',(-14.3864187619093,3.59219754222816,-12.));
#1414=CARTESIAN_POINT('Origin',(-12.4761041095604,3.,-12.));
#1415=CARTESIAN_POINT('Origin',(-12.4761041095604,3.,-14.));
#1416=CARTESIAN_POINT('Origin',(-7.75,25.,-14.));
#1417=CARTESIAN_POINT('',(0.,49.3518989992396,-14.));
#1418=CARTESIAN_POINT('',(0.,25.,-14.));
#1419=CARTESIAN_POINT('',(-0.43641876190927,48.5921975422282,-14.));
#1420=CARTESIAN_POINT('Origin',(1.47389589043963,48.,-14.));
#1421=CARTESIAN_POINT('',(-15.5,0.,-14.));
#1422=CARTESIAN_POINT('Origin',(12.3603921945629,3.,-12.));
#1423=CARTESIAN_POINT('',(12.3603921945629,7.,-14.));
#1424=CARTESIAN_POINT('',(12.3603921945629,5.,-12.));
#1425=CARTESIAN_POINT('Origin',(12.3603921945629,7.,-12.));
#1426=CARTESIAN_POINT('',(14.3215535459447,3.39223227027637,-12.));
#1427=CARTESIAN_POINT('Origin',(12.3603921945629,3.,-12.));
#1428=CARTESIAN_POINT('',(13.642187325458,6.78906337271016,-14.));
#1429=CARTESIAN_POINT('Ctrl Pts',(14.3215535459447,3.39223227027637,-12.));
#1430=CARTESIAN_POINT('Ctrl Pts',(14.2672101135765,3.66394943211727,-12.277098222081));
#1431=CARTESIAN_POINT('Ctrl Pts',(14.2075020757723,3.96248962113831,-12.5826819747121));
#1432=CARTESIAN_POINT('Ctrl Pts',(14.0803870002934,4.59806499853283,-13.1421224634465));
#1433=CARTESIAN_POINT('Ctrl Pts',(14.0125690226577,4.93715488671153,-13.3935468944369));
#1434=CARTESIAN_POINT('Ctrl Pts',(13.9008794714746,5.49560264262686,-13.7000621783504));
#1435=CARTESIAN_POINT('Ctrl Pts',(13.8505055478446,5.7474722607769,-13.8108377382864));
#1436=CARTESIAN_POINT('Ctrl Pts',(13.74616801466,6.26915992669981,-13.9610913437372));
#1437=CARTESIAN_POINT('Ctrl Pts',(13.6921729003702,6.53913549814905,-14.));
#1438=CARTESIAN_POINT('Ctrl Pts',(13.642187325458,6.78906337271016,-14.));
#1439=CARTESIAN_POINT('Origin',(12.3603921945629,3.,-14.));
#1440=CARTESIAN_POINT('Origin',(13.25,7.,-12.));
#1441=CARTESIAN_POINT('',(10.,5.,-12.));
#1442=CARTESIAN_POINT('',(10.,7.,-14.));
#1443=CARTESIAN_POINT('Origin',(10.,7.,-12.));
#1444=CARTESIAN_POINT('',(13.25,5.,-12.));
#1445=CARTESIAN_POINT('',(13.25,7.,-14.));
#1446=CARTESIAN_POINT('Origin',(12.3603921945629,3.,-20.));
#1447=CARTESIAN_POINT('',(12.3603921945629,5.,12.));
#1448=CARTESIAN_POINT('',(12.3603921945629,5.,-20.));
#1449=CARTESIAN_POINT('',(14.3215535459447,3.39223227027637,12.));
#1450=CARTESIAN_POINT('Origin',(12.3603921945629,3.,12.));
#1451=CARTESIAN_POINT('',(14.3215535459447,3.39223227027637,-20.));
#1452=CARTESIAN_POINT('Origin',(14.,5.,-20.));
#1453=CARTESIAN_POINT('',(10.,5.,12.));
#1454=CARTESIAN_POINT('',(10.,5.,-10.));
#1455=CARTESIAN_POINT('',(6.875,5.,12.));
#1456=CARTESIAN_POINT('Origin',(6.875,7.,12.));
#1457=CARTESIAN_POINT('',(10.,7.,14.));
#1458=CARTESIAN_POINT('Origin',(10.,7.,12.));
#1459=CARTESIAN_POINT('',(12.3603921945629,7.,14.));
#1460=CARTESIAN_POINT('',(6.875,7.,14.));
#1461=CARTESIAN_POINT('Origin',(12.3603921945629,7.,12.));
#1462=CARTESIAN_POINT('Origin',(12.3603921945629,3.,12.));
#1463=CARTESIAN_POINT('',(13.642187325458,6.78906337271015,14.));
#1464=CARTESIAN_POINT('Ctrl Pts',(13.642187325458,6.78906337271016,14.));
#1465=CARTESIAN_POINT('Ctrl Pts',(13.6921729003702,6.53913549814905,14.));
#1466=CARTESIAN_POINT('Ctrl Pts',(13.74616801466,6.26915992669981,13.9610913437372));
#1467=CARTESIAN_POINT('Ctrl Pts',(13.8505055478446,5.7474722607769,13.8108377382864));
#1468=CARTESIAN_POINT('Ctrl Pts',(13.9008794714746,5.49560264262686,13.7000621783504));
#1469=CARTESIAN_POINT('Ctrl Pts',(14.0125690226577,4.93715488671153,13.3935468944369));
#1470=CARTESIAN_POINT('Ctrl Pts',(14.0803870002934,4.59806499853283,13.1421224634465));
#1471=CARTESIAN_POINT('Ctrl Pts',(14.2075020757723,3.96248962113831,12.5826819747121));
#1472=CARTESIAN_POINT('Ctrl Pts',(14.2672101135765,3.66394943211726,12.277098222081));
#1473=CARTESIAN_POINT('Ctrl Pts',(14.3215535459447,3.39223227027637,12.));
#1474=CARTESIAN_POINT('Origin',(12.3603921945629,3.,14.));
#1475=CARTESIAN_POINT('Origin',(-0.250000000000001,25.,14.));
#1476=CARTESIAN_POINT('',(10.,25.1980390271856,14.));
#1477=CARTESIAN_POINT('',(10.,25.,14.));
#1478=CARTESIAN_POINT('',(10.0388386486182,24.8058067569092,14.));
#1479=CARTESIAN_POINT('Origin',(12.,25.1980390271856,14.));
#1480=CARTESIAN_POINT('',(12.3028846153846,13.4855769230769,14.));
#1481=CARTESIAN_POINT('Origin',(10.,25.,0.));
#1482=CARTESIAN_POINT('',(10.,25.1980390271856,-14.));
#1483=CARTESIAN_POINT('',(10.,18.75,-14.));
#1484=CARTESIAN_POINT('',(10.,25.1980390271856,-20.));
#1485=CARTESIAN_POINT('',(10.,25.1980390271856,-10.));
#1486=CARTESIAN_POINT('',(10.,48.,-20.));
#1487=CARTESIAN_POINT('',(10.,0.,-20.));
#1488=CARTESIAN_POINT('',(10.,48.,20.));
#1489=CARTESIAN_POINT('',(10.,48.,-10.));
#1490=CARTESIAN_POINT('',(10.,25.1980390271856,20.));
#1491=CARTESIAN_POINT('',(10.,50.,20.));
#1492=CARTESIAN_POINT('',(10.,25.1980390271856,-10.));
#1493=CARTESIAN_POINT('',(10.,19.15,11.3588111963594));
#1494=CARTESIAN_POINT('Origin',(10.,19.15,10.6088111963594));
#1495=CARTESIAN_POINT('',(10.,37.525,0.75));
#1496=CARTESIAN_POINT('Origin',(10.,37.525,3.46944695195361E-17));
#1497=CARTESIAN_POINT('',(10.,19.15,-9.85881119635937));
#1498=CARTESIAN_POINT('Origin',(10.,19.15,-10.6088111963594));
#1499=CARTESIAN_POINT('',(10.,25.275,11.));
#1500=CARTESIAN_POINT('Origin',(10.,25.275,0.));
#1501=CARTESIAN_POINT('Origin',(-12.4761041095604,3.,-20.));
#1502=CARTESIAN_POINT('',(-12.4761041095604,5.,-20.));
#1503=CARTESIAN_POINT('',(-14.3864187619093,3.59219754222816,-20.));
#1504=CARTESIAN_POINT('Origin',(-13.95,5.,-20.));
#1505=CARTESIAN_POINT('',(-0.43641876190927,48.5921975422282,-20.));
#1506=CARTESIAN_POINT('',(-0.436418761909274,48.5921975422282,-20.));
#1507=CARTESIAN_POINT('',(-15.4103146523489,0.289307573068041,-20.));
#1508=CARTESIAN_POINT('',(-15.5,0.,-20.));
#1509=CARTESIAN_POINT('',(-15.4103146523489,0.289307573068041,20.));
#1510=CARTESIAN_POINT('',(-15.4103146523489,0.28930757306804,-20.));
#1511=CARTESIAN_POINT('',(-0.436418761909273,48.5921975422282,20.));
#1512=CARTESIAN_POINT('',(-15.1170604871818,1.23528875102637,20.));
#1513=CARTESIAN_POINT('',(-0.436418761909272,48.5921975422281,-20.));
#1514=CARTESIAN_POINT('Origin',(-13.5,-0.302889969160121,-20.));
#1515=CARTESIAN_POINT('',(-15.5,-0.302889969160121,20.));
#1516=CARTESIAN_POINT('Origin',(-13.5,-0.302889969160121,20.));
#1517=CARTESIAN_POINT('',(-15.5,-0.302889969160121,-20.));
#1518=CARTESIAN_POINT('Origin',(-13.5,-0.302889969160121,-20.));
#1519=CARTESIAN_POINT('',(-15.5,-0.302889969160121,-20.));
#1520=CARTESIAN_POINT('Origin',(0.,50.,20.));
#1521=CARTESIAN_POINT('',(-15.5,-18.,20.));
#1522=CARTESIAN_POINT('',(-15.5,-3.75,20.));
#1523=CARTESIAN_POINT('',(-13.5,-20.,20.));
#1524=CARTESIAN_POINT('Origin',(-13.5,-18.,20.));
#1525=CARTESIAN_POINT('',(-12.4999999925494,-20.,20.));
#1526=CARTESIAN_POINT('',(-7.87500000000001,-20.,20.));
#1527=CARTESIAN_POINT('',(-10.4999999925494,-18.0000000074506,20.));
#1528=CARTESIAN_POINT('Origin',(-12.4999999925494,-18.,20.));
#1529=CARTESIAN_POINT('',(-10.4999999254942,0.,20.));
#1530=CARTESIAN_POINT('',(-10.4999999767169,-13.7499999809079,20.));
#1531=CARTESIAN_POINT('',(10.,0.,20.));
#1532=CARTESIAN_POINT('',(0.,0.,20.));
#1533=CARTESIAN_POINT('',(10.,-18.,20.));
#1534=CARTESIAN_POINT('',(10.,-1.25,20.));
#1535=CARTESIAN_POINT('',(12.,-20.,20.));
#1536=CARTESIAN_POINT('Origin',(12.,-18.,20.));
#1537=CARTESIAN_POINT('',(13.,-20.,20.));
#1538=CARTESIAN_POINT('',(4.875,-20.,20.));
#1539=CARTESIAN_POINT('',(15.,-18.,20.));
#1540=CARTESIAN_POINT('Origin',(13.,-18.,20.));
#1541=CARTESIAN_POINT('',(15.,-0.198039027185564,20.));
#1542=CARTESIAN_POINT('',(15.,-13.75,20.));
#1543=CARTESIAN_POINT('',(14.9611613513818,0.194193243090806,20.));
#1544=CARTESIAN_POINT('Origin',(13.,-0.198039027185565,20.));
#1545=CARTESIAN_POINT('',(10.0388386486182,24.8058067569092,20.));
#1546=CARTESIAN_POINT('',(12.3028846153846,13.4855769230769,20.));
#1547=CARTESIAN_POINT('Origin',(12.,25.1980390271856,20.));
#1548=CARTESIAN_POINT('',(8.,50.,20.));
#1549=CARTESIAN_POINT('Origin',(8.,48.,20.));
#1550=CARTESIAN_POINT('',(1.47389589043963,50.,20.));
#1551=CARTESIAN_POINT('',(0.,50.,20.));
#1552=CARTESIAN_POINT('Origin',(1.47389589043963,48.,20.));
#1553=CARTESIAN_POINT('Origin',(12.,25.1980390271856,-10.));
#1554=CARTESIAN_POINT('',(10.0388386486182,24.8058067569092,-14.));
#1555=CARTESIAN_POINT('Origin',(12.,25.1980390271856,-14.));
#1556=CARTESIAN_POINT('',(10.0388386486182,24.8058067569092,-20.));
#1557=CARTESIAN_POINT('',(10.0388386486182,24.8058067569092,-10.));
#1558=CARTESIAN_POINT('Origin',(12.,25.1980390271856,-20.));
#1559=CARTESIAN_POINT('Origin',(15.,0.,-20.));
#1560=CARTESIAN_POINT('',(10.0388386486182,24.8058067569092,-10.));
#1561=CARTESIAN_POINT('',(14.9611613513818,0.194193243090803,-20.));
#1562=CARTESIAN_POINT('',(14.9611613513818,0.194193243090804,-20.));
#1563=CARTESIAN_POINT('',(15.,0.,-20.));
#1564=CARTESIAN_POINT('',(15.,0.,-14.));
#1565=CARTESIAN_POINT('Origin',(12.,25.1980390271856,-10.));
#1566=CARTESIAN_POINT('Origin',(13.,-0.198039027185565,-20.));
#1567=CARTESIAN_POINT('',(15.,-0.198039027185564,-20.));
#1568=CARTESIAN_POINT('',(15.,-0.198039027185565,-20.));
#1569=CARTESIAN_POINT('Origin',(13.,-0.198039027185565,-20.));
#1570=CARTESIAN_POINT('Origin',(15.,-20.,-20.));
#1571=CARTESIAN_POINT('',(15.,-18.,-20.));
#1572=CARTESIAN_POINT('',(15.,-18.,-20.));
#1573=CARTESIAN_POINT('',(15.,-20.,-20.));
#1574=CARTESIAN_POINT('Origin',(8.,48.,-10.));
#1575=CARTESIAN_POINT('',(8.,50.,-20.));
#1576=CARTESIAN_POINT('Origin',(8.,48.,-20.));
#1577=CARTESIAN_POINT('',(8.,50.,-10.));
#1578=CARTESIAN_POINT('Origin',(1.47389589043963,48.,-20.));
#1579=CARTESIAN_POINT('',(1.47389589043963,50.,-20.));
#1580=CARTESIAN_POINT('Origin',(1.47389589043963,48.,-20.));
#1581=CARTESIAN_POINT('',(0.,49.3518989992396,-20.));
#1582=CARTESIAN_POINT('',(1.47389589043963,50.,-20.));
#1583=CARTESIAN_POINT('Origin',(0.,25.,0.));
#1584=CARTESIAN_POINT('',(0.,5.,-10.));
#1585=CARTESIAN_POINT('',(0.,19.15,11.3588111963594));
#1586=CARTESIAN_POINT('Origin',(0.,19.15,10.6088111963594));
#1587=CARTESIAN_POINT('',(0.,37.525,0.75));
#1588=CARTESIAN_POINT('Origin',(0.,37.525,3.46944695195361E-17));
#1589=CARTESIAN_POINT('',(0.,19.15,-9.85881119635937));
#1590=CARTESIAN_POINT('Origin',(0.,19.15,-10.6088111963594));
#1591=CARTESIAN_POINT('',(0.,25.275,11.));
#1592=CARTESIAN_POINT('Origin',(0.,25.275,0.));
#1593=CARTESIAN_POINT('Origin',(-13.5,-18.,-20.));
#1594=CARTESIAN_POINT('',(-15.5,-18.,-20.));
#1595=CARTESIAN_POINT('',(-15.5,-18.,-20.));
#1596=CARTESIAN_POINT('',(-13.5,-20.,-20.));
#1597=CARTESIAN_POINT('Origin',(-13.5,-18.,-20.));
#1598=CARTESIAN_POINT('',(-13.5,-20.,-20.));
#1599=CARTESIAN_POINT('Origin',(-15.5,-20.,-20.));
#1600=CARTESIAN_POINT('',(-12.4999999925494,-20.,-20.));
#1601=CARTESIAN_POINT('',(-15.5,-20.,-20.));
#1602=CARTESIAN_POINT('',(-12.4999999925494,-20.,-20.));
#1603=CARTESIAN_POINT('Origin',(-12.4999999925494,-18.,-20.));
#1604=CARTESIAN_POINT('',(-10.4999999925494,-18.0000000074506,-20.));
#1605=CARTESIAN_POINT('Origin',(-12.4999999925494,-18.,-20.));
#1606=CARTESIAN_POINT('',(-10.4999999925494,-18.0000000074506,-20.));
#1607=CARTESIAN_POINT('Origin',(12.,-18.,-20.));
#1608=CARTESIAN_POINT('',(10.,-18.,-20.));
#1609=CARTESIAN_POINT('',(10.,-18.,-20.));
#1610=CARTESIAN_POINT('',(12.,-20.,-20.));
#1611=CARTESIAN_POINT('Origin',(12.,-18.,-20.));
#1612=CARTESIAN_POINT('',(12.,-20.,-20.));
#1613=CARTESIAN_POINT('Origin',(10.,-20.,-20.));
#1614=CARTESIAN_POINT('',(13.,-20.,-20.));
#1615=CARTESIAN_POINT('',(10.,-20.,-20.));
#1616=CARTESIAN_POINT('',(13.,-20.,-20.));
#1617=CARTESIAN_POINT('Origin',(13.,-18.,-20.));
#1618=CARTESIAN_POINT('Origin',(13.,-18.,-20.));
#1619=CARTESIAN_POINT('Origin',(12.5,12.5,-14.));
#1620=CARTESIAN_POINT('Origin',(0.,5.,-20.));
#1621=CARTESIAN_POINT('Origin',(-10.5,-20.,-20.));
#1622=CARTESIAN_POINT('',(-10.4999999254942,0.,-20.));
#1623=CARTESIAN_POINT('',(-10.5,-20.,-20.));
#1624=CARTESIAN_POINT('',(-10.4999999254942,0.,-20.));
#1625=CARTESIAN_POINT('Origin',(-15.5,0.,-20.));
#1626=CARTESIAN_POINT('',(-15.5,0.,-20.));
#1627=CARTESIAN_POINT('Origin',(10.,5.,-20.));
#1628=CARTESIAN_POINT('',(10.,0.,-20.));
#1629=CARTESIAN_POINT('',(10.,0.,20.));
#1630=CARTESIAN_POINT('',(10.,0.,-20.));
#1631=CARTESIAN_POINT('Origin',(0.,25.275,0.));
#1632=CARTESIAN_POINT('',(0.,25.275,11.));
#1633=CARTESIAN_POINT('Origin',(0.,19.15,-10.6088111963594));
#1634=CARTESIAN_POINT('',(0.,19.15,-9.85881119635937));
#1635=CARTESIAN_POINT('Origin',(0.,37.525,3.46944695195361E-17));
#1636=CARTESIAN_POINT('',(0.,37.525,0.75));
#1637=CARTESIAN_POINT('Origin',(0.,19.15,10.6088111963594));
#1638=CARTESIAN_POINT('',(0.,19.15,11.3588111963594));
#1639=CARTESIAN_POINT('Origin',(0.,50.,-20.));
#1640=CARTESIAN_POINT('',(0.,50.,-20.));
#1641=CARTESIAN_POINT('Origin',(0.,0.,-20.));
#1642=CARTESIAN_POINT('',(0.,0.,-20.));
#1643=CARTESIAN_POINT('Origin',(0.,0.,20.));
#1644=UNCERTAINTY_MEASURE_WITH_UNIT(LENGTH_MEASURE(0.01),#1648,
'DISTANCE_ACCURACY_VALUE',
'Maximum model space distance between geometric entities at asserted c
onnectivities');
#1645=UNCERTAINTY_MEASURE_WITH_UNIT(LENGTH_MEASURE(0.01),#1648,
'DISTANCE_ACCURACY_VALUE',
'Maximum model space distance between geometric entities at asserted c
onnectivities');
#1646=(
GEOMETRIC_REPRESENTATION_CONTEXT(3)
GLOBAL_UNCERTAINTY_ASSIGNED_CONTEXT((#1644))
GLOBAL_UNIT_ASSIGNED_CONTEXT((#1648,#1650,#1651))
REPRESENTATION_CONTEXT('','3D')
);
#1647=(
GEOMETRIC_REPRESENTATION_CONTEXT(3)
GLOBAL_UNCERTAINTY_ASSIGNED_CONTEXT((#1645))
GLOBAL_UNIT_ASSIGNED_CONTEXT((#1648,#1650,#1651))
REPRESENTATION_CONTEXT('','3D')
);
#1648=(
LENGTH_UNIT()
NAMED_UNIT(*)
SI_UNIT(.MILLI.,.METRE.)
);
#1649=(
LENGTH_UNIT()
NAMED_UNIT(*)
SI_UNIT($,.METRE.)
);
#1650=(
NAMED_UNIT(*)
PLANE_ANGLE_UNIT()
SI_UNIT($,.RADIAN.)
);
#1651=(
NAMED_UNIT(*)
SI_UNIT($,.STERADIAN.)
SOLID_ANGLE_UNIT()
);
#1652=SHAPE_DEFINITION_REPRESENTATION(#1653,#1654);
#1653=PRODUCT_DEFINITION_SHAPE('',$,#1656);
#1654=SHAPE_REPRESENTATION('',(#952),#1646);
#1655=PRODUCT_DEFINITION_CONTEXT('part definition',#1660,'design');
#1656=PRODUCT_DEFINITION('2026-08-31-23-45-20-874','Bearing Bloc 1',#1657,
#1655);
#1657=PRODUCT_DEFINITION_FORMATION('',$,#1662);
#1658=PRODUCT_RELATED_PRODUCT_CATEGORY('Bearing Bloc 1',
'Bearing Bloc 1',(#1662));
#1659=APPLICATION_PROTOCOL_DEFINITION('international standard',
'automotive_design',2009,#1660);
#1660=APPLICATION_CONTEXT(
'Core Data for Automotive Mechanical Design Process');
#1661=PRODUCT_CONTEXT('part definition',#1660,'mechanical');
#1662=PRODUCT('2026-08-31-23-45-20-874','Bearing Bloc 1',$,(#1661));
#1663=PRESENTATION_STYLE_ASSIGNMENT((#1664));
#1664=SURFACE_STYLE_USAGE(.BOTH.,#1665);
#1665=SURFACE_SIDE_STYLE('',(#1666));
#1666=SURFACE_STYLE_FILL_AREA(#1667);
#1667=FILL_AREA_STYLE('Steel - Satin',(#1668));
#1668=FILL_AREA_STYLE_COLOUR('Steel - Satin',#1669);
#1669=COLOUR_RGB('Steel - Satin',0.627450980392157,0.627450980392157,0.627450980392157);
ENDSEC;
END-ISO-10303-21;
