ISO-10303-21;
HEADER;
/* Generated by software containing ST-Developer
 * from STEP Tools, Inc. (www.steptools.com) 
 */

FILE_DESCRIPTION(
/* description */ (''),
/* implementation_level */ '2;1');

FILE_NAME(
/* name */ 'extrusion_bracket.step',
/* time_stamp */ '2026-10-07T21:06:50-07:00',
/* author */ (''),
/* organization */ (''),
/* preprocessor_version */ 'ST-DEVELOPER v20.2',
/* originating_system */ 'Autodesk Translation Framework v15.15.0.0',
/* authorisation */ '');

FILE_SCHEMA (('AUTOMOTIVE_DESIGN { 1 0 10303 214 3 1 1 }'));
ENDSEC;

DATA;
#10=MECHANICAL_DESIGN_GEOMETRIC_PRESENTATION_REPRESENTATION('',(#13,#14),
#1388);
#11=SHAPE_REPRESENTATION_RELATIONSHIP('SRR','None',#1395,#12);
#12=ADVANCED_BREP_SHAPE_REPRESENTATION('',(#15,#16),#1387);
#13=STYLED_ITEM('',(#1404),#15);
#14=STYLED_ITEM('',(#1404),#16);
#15=MANIFOLD_SOLID_BREP('Body1',#759);
#16=MANIFOLD_SOLID_BREP('Body2',#760);
#17=B_SPLINE_SURFACE_WITH_KNOTS('',3,3,((#1259,#1260,#1261,#1262),(#1263,
#1264,#1265,#1266),(#1267,#1268,#1269,#1270),(#1271,#1272,#1273,#1274)),
 .UNSPECIFIED.,.F.,.F.,.F.,(4,4),(4,4),(0.,1.),(-1.5707963267949,-1.12895584707438),
 .UNSPECIFIED.);
#18=B_SPLINE_SURFACE_WITH_KNOTS('',3,3,((#1285,#1286,#1287,#1288),(#1289,
#1290,#1291,#1292),(#1293,#1294,#1295,#1296),(#1297,#1298,#1299,#1300)),
 .UNSPECIFIED.,.F.,.F.,.F.,(4,4),(4,4),(0.,1.),(1.12895585045473,1.5707963267949),
 .UNSPECIFIED.);
#19=ELLIPSE('',#796,6.50538238691624,4.6);
#20=ELLIPSE('',#797,6.50538238691624,4.6);
#21=ELLIPSE('',#798,6.50538238691624,4.6);
#22=ELLIPSE('',#799,6.50538238691624,4.6);
#23=ELLIPSE('',#809,15.307514494522,4.6);
#24=ELLIPSE('',#810,15.307514494522,4.60000006651089);
#25=ELLIPSE('',#812,6.50538238691623,4.6);
#26=ELLIPSE('',#813,15.307514494522,4.60000006651089);
#27=ELLIPSE('',#815,15.307514494522,4.6);
#28=ELLIPSE('',#816,6.50538238691623,4.6);
#29=ELLIPSE('',#823,6.50538238691623,4.6);
#30=B_SPLINE_CURVE_WITH_KNOTS('',3,(#1150,#1151,#1152,#1153,#1154,#1155,
#1156,#1157,#1158,#1159,#1160,#1161),.UNSPECIFIED.,.F.,.F.,(4,2,2,2,2,4),
(2.01921258958904,2.03097687720413,2.20839971683206,2.38582255645999,2.62513922567639,
2.67044498137501),.UNSPECIFIED.);
#31=B_SPLINE_CURVE_WITH_KNOTS('',3,(#1178,#1179,#1180,#1181,#1182,#1183),
 .UNSPECIFIED.,.F.,.F.,(4,2,4),(2.84793250377676E-9,0.300340427491043,0.600769038835782),
 .UNSPECIFIED.);
#32=B_SPLINE_CURVE_WITH_KNOTS('',3,(#1187,#1188,#1189,#1190,#1191,#1192),
 .UNSPECIFIED.,.F.,.F.,(4,2,4),(0.,0.300340430658202,0.600769048022921),
 .UNSPECIFIED.);
#33=B_SPLINE_CURVE_WITH_KNOTS('',3,(#1196,#1197,#1198,#1199,#1200,#1201),
 .UNSPECIFIED.,.F.,.F.,(4,2,4),(0.691280778357005,0.736586534055619,0.975903203272021),
 .UNSPECIFIED.);
#34=B_SPLINE_CURVE_WITH_KNOTS('',3,(#1203,#1204,#1205,#1206,#1207,#1208,
#1209,#1210),.UNSPECIFIED.,.F.,.F.,(4,2,2,4),(0.975903203272021,1.15332604289995,
1.33074888252788,1.34251317014297),.UNSPECIFIED.);
#35=B_SPLINE_CURVE_WITH_KNOTS('',3,(#1222,#1223,#1224,#1225,#1226,#1227,
#1228,#1229),.UNSPECIFIED.,.F.,.F.,(4,2,2,4),(2.01921258958905,2.03097687720414,
2.20839971683207,2.38582255646),.UNSPECIFIED.);
#36=B_SPLINE_CURVE_WITH_KNOTS('',3,(#1230,#1231,#1232,#1233,#1234,#1235),
 .UNSPECIFIED.,.F.,.F.,(4,2,4),(2.38582255646,2.6251392256764,2.67044498137501),
 .UNSPECIFIED.);
#37=B_SPLINE_CURVE_WITH_KNOTS('',3,(#1241,#1242,#1243,#1244,#1245,#1246,
#1247,#1248,#1249,#1250,#1251,#1252),.UNSPECIFIED.,.F.,.F.,(4,2,2,2,2,4),
(0.691280778357018,0.736586534055628,0.975903203272032,1.15332604289996,
1.33074888252789,1.34251317014298),.UNSPECIFIED.);
#38=FACE_BOUND('',#153,.T.);
#39=FACE_BOUND('',#154,.T.);
#40=FACE_BOUND('',#157,.T.);
#41=FACE_BOUND('',#158,.T.);
#42=FACE_BOUND('',#162,.T.);
#43=FACE_BOUND('',#174,.T.);
#44=FACE_BOUND('',#177,.T.);
#45=FACE_BOUND('',#180,.T.);
#46=FACE_BOUND('',#183,.T.);
#47=FACE_BOUND('',#192,.T.);
#48=FACE_BOUND('',#200,.T.);
#49=FACE_BOUND('',#201,.T.);
#50=FACE_BOUND('',#203,.T.);
#51=FACE_BOUND('',#204,.T.);
#52=CIRCLE('',#776,2.9);
#53=CIRCLE('',#777,2.9);
#54=CIRCLE('',#780,2.9);
#55=CIRCLE('',#781,2.9);
#56=CIRCLE('',#783,2.75);
#57=CIRCLE('',#784,2.75);
#58=CIRCLE('',#786,8.);
#59=CIRCLE('',#787,8.);
#60=CIRCLE('',#789,2.75);
#61=CIRCLE('',#790,2.75);
#62=CIRCLE('',#792,8.);
#63=CIRCLE('',#793,8.);
#64=CIRCLE('',#801,8.);
#65=CIRCLE('',#803,4.6);
#66=CIRCLE('',#805,8.);
#67=CIRCLE('',#808,4.6);
#68=CIRCLE('',#818,4.6);
#69=CIRCLE('',#820,2.75);
#70=CIRCLE('',#822,4.6);
#71=CIRCLE('',#825,2.75);
#72=CIRCLE('',#827,4.6);
#73=CIRCLE('',#829,2.75);
#74=CIRCLE('',#831,4.6);
#75=CIRCLE('',#833,2.75);
#76=CIRCLE('',#843,2.75);
#77=CIRCLE('',#844,2.75);
#78=CIRCLE('',#846,2.75);
#79=CIRCLE('',#847,2.75);
#80=CIRCLE('',#850,2.9);
#81=CIRCLE('',#851,2.9);
#82=CIRCLE('',#854,2.9);
#83=CIRCLE('',#855,2.9);
#84=CYLINDRICAL_SURFACE('',#775,2.9);
#85=CYLINDRICAL_SURFACE('',#779,2.9);
#86=CYLINDRICAL_SURFACE('',#785,8.);
#87=CYLINDRICAL_SURFACE('',#794,8.);
#88=CYLINDRICAL_SURFACE('',#800,8.);
#89=CYLINDRICAL_SURFACE('',#804,8.);
#90=CYLINDRICAL_SURFACE('',#806,8.);
#91=CYLINDRICAL_SURFACE('',#811,4.6);
#92=CYLINDRICAL_SURFACE('',#814,4.6);
#93=CYLINDRICAL_SURFACE('',#817,4.6);
#94=CYLINDRICAL_SURFACE('',#821,4.6);
#95=CYLINDRICAL_SURFACE('',#826,4.6);
#96=CYLINDRICAL_SURFACE('',#830,4.6);
#97=CYLINDRICAL_SURFACE('',#834,2.75);
#98=CYLINDRICAL_SURFACE('',#835,2.75);
#99=CYLINDRICAL_SURFACE('',#837,2.75);
#100=CYLINDRICAL_SURFACE('',#838,2.75);
#101=CYLINDRICAL_SURFACE('',#842,2.75);
#102=CYLINDRICAL_SURFACE('',#845,2.75);
#103=CYLINDRICAL_SURFACE('',#849,2.9);
#104=CYLINDRICAL_SURFACE('',#853,2.9);
#105=FACE_OUTER_BOUND('',#148,.T.);
#106=FACE_OUTER_BOUND('',#149,.T.);
#107=FACE_OUTER_BOUND('',#150,.T.);
#108=FACE_OUTER_BOUND('',#151,.T.);
#109=FACE_OUTER_BOUND('',#152,.T.);
#110=FACE_OUTER_BOUND('',#155,.T.);
#111=FACE_OUTER_BOUND('',#156,.T.);
#112=FACE_OUTER_BOUND('',#159,.T.);
#113=FACE_OUTER_BOUND('',#160,.T.);
#114=FACE_OUTER_BOUND('',#161,.T.);
#115=FACE_OUTER_BOUND('',#163,.T.);
#116=FACE_OUTER_BOUND('',#164,.T.);
#117=FACE_OUTER_BOUND('',#165,.T.);
#118=FACE_OUTER_BOUND('',#166,.T.);
#119=FACE_OUTER_BOUND('',#167,.T.);
#120=FACE_OUTER_BOUND('',#168,.T.);
#121=FACE_OUTER_BOUND('',#169,.T.);
#122=FACE_OUTER_BOUND('',#170,.T.);
#123=FACE_OUTER_BOUND('',#171,.T.);
#124=FACE_OUTER_BOUND('',#172,.T.);
#125=FACE_OUTER_BOUND('',#173,.T.);
#126=FACE_OUTER_BOUND('',#175,.T.);
#127=FACE_OUTER_BOUND('',#176,.T.);
#128=FACE_OUTER_BOUND('',#178,.T.);
#129=FACE_OUTER_BOUND('',#179,.T.);
#130=FACE_OUTER_BOUND('',#181,.T.);
#131=FACE_OUTER_BOUND('',#182,.T.);
#132=FACE_OUTER_BOUND('',#184,.T.);
#133=FACE_OUTER_BOUND('',#185,.T.);
#134=FACE_OUTER_BOUND('',#186,.T.);
#135=FACE_OUTER_BOUND('',#187,.T.);
#136=FACE_OUTER_BOUND('',#188,.T.);
#137=FACE_OUTER_BOUND('',#189,.T.);
#138=FACE_OUTER_BOUND('',#190,.T.);
#139=FACE_OUTER_BOUND('',#191,.T.);
#140=FACE_OUTER_BOUND('',#193,.T.);
#141=FACE_OUTER_BOUND('',#194,.T.);
#142=FACE_OUTER_BOUND('',#195,.T.);
#143=FACE_OUTER_BOUND('',#196,.T.);
#144=FACE_OUTER_BOUND('',#197,.T.);
#145=FACE_OUTER_BOUND('',#198,.T.);
#146=FACE_OUTER_BOUND('',#199,.T.);
#147=FACE_OUTER_BOUND('',#202,.T.);
#148=EDGE_LOOP('',(#486,#487,#488,#489));
#149=EDGE_LOOP('',(#490,#491,#492,#493));
#150=EDGE_LOOP('',(#494,#495,#496,#497));
#151=EDGE_LOOP('',(#498,#499,#500,#501));
#152=EDGE_LOOP('',(#502,#503,#504,#505));
#153=EDGE_LOOP('',(#506));
#154=EDGE_LOOP('',(#507));
#155=EDGE_LOOP('',(#508,#509,#510,#511));
#156=EDGE_LOOP('',(#512,#513,#514,#515));
#157=EDGE_LOOP('',(#516));
#158=EDGE_LOOP('',(#517));
#159=EDGE_LOOP('',(#518,#519,#520,#521,#522,#523,#524,#525,#526,#527));
#160=EDGE_LOOP('',(#528,#529,#530,#531));
#161=EDGE_LOOP('',(#532,#533,#534,#535,#536,#537,#538,#539));
#162=EDGE_LOOP('',(#540,#541,#542,#543));
#163=EDGE_LOOP('',(#544,#545,#546,#547,#548));
#164=EDGE_LOOP('',(#549,#550,#551,#552,#553,#554));
#165=EDGE_LOOP('',(#555,#556,#557,#558,#559));
#166=EDGE_LOOP('',(#560,#561,#562,#563));
#167=EDGE_LOOP('',(#564,#565,#566,#567,#568,#569));
#168=EDGE_LOOP('',(#570,#571,#572));
#169=EDGE_LOOP('',(#573,#574,#575,#576));
#170=EDGE_LOOP('',(#577,#578,#579,#580));
#171=EDGE_LOOP('',(#581,#582,#583));
#172=EDGE_LOOP('',(#584,#585,#586,#587,#588,#589,#590,#591));
#173=EDGE_LOOP('',(#592));
#174=EDGE_LOOP('',(#593));
#175=EDGE_LOOP('',(#594,#595,#596,#597,#598));
#176=EDGE_LOOP('',(#599));
#177=EDGE_LOOP('',(#600));
#178=EDGE_LOOP('',(#601,#602,#603,#604,#605));
#179=EDGE_LOOP('',(#606));
#180=EDGE_LOOP('',(#607));
#181=EDGE_LOOP('',(#608,#609,#610,#611,#612,#613,#614,#615));
#182=EDGE_LOOP('',(#616));
#183=EDGE_LOOP('',(#617));
#184=EDGE_LOOP('',(#618,#619,#620,#621));
#185=EDGE_LOOP('',(#622,#623,#624,#625));
#186=EDGE_LOOP('',(#626,#627,#628,#629));
#187=EDGE_LOOP('',(#630,#631,#632,#633));
#188=EDGE_LOOP('',(#634,#635,#636,#637));
#189=EDGE_LOOP('',(#638,#639,#640,#641));
#190=EDGE_LOOP('',(#642,#643,#644,#645,#646,#647,#648,#649,#650,#651));
#191=EDGE_LOOP('',(#652,#653,#654,#655));
#192=EDGE_LOOP('',(#656,#657,#658,#659));
#193=EDGE_LOOP('',(#660,#661,#662,#663));
#194=EDGE_LOOP('',(#664,#665,#666,#667));
#195=EDGE_LOOP('',(#668,#669,#670,#671));
#196=EDGE_LOOP('',(#672,#673,#674,#675));
#197=EDGE_LOOP('',(#676,#677,#678,#679));
#198=EDGE_LOOP('',(#680,#681,#682,#683));
#199=EDGE_LOOP('',(#684,#685,#686,#687));
#200=EDGE_LOOP('',(#688));
#201=EDGE_LOOP('',(#689));
#202=EDGE_LOOP('',(#690,#691,#692,#693));
#203=EDGE_LOOP('',(#694));
#204=EDGE_LOOP('',(#695));
#205=LINE('',#1086,#259);
#206=LINE('',#1088,#260);
#207=LINE('',#1090,#261);
#208=LINE('',#1091,#262);
#209=LINE('',#1097,#263);
#210=LINE('',#1100,#264);
#211=LINE('',#1102,#265);
#212=LINE('',#1103,#266);
#213=LINE('',#1117,#267);
#214=LINE('',#1120,#268);
#215=LINE('',#1123,#269);
#216=LINE('',#1125,#270);
#217=LINE('',#1126,#271);
#218=LINE('',#1133,#272);
#219=LINE('',#1135,#273);
#220=LINE('',#1137,#274);
#221=LINE('',#1141,#275);
#222=LINE('',#1145,#276);
#223=LINE('',#1146,#277);
#224=LINE('',#1162,#278);
#225=LINE('',#1163,#279);
#226=LINE('',#1168,#280);
#227=LINE('',#1170,#281);
#228=LINE('',#1172,#282);
#229=LINE('',#1175,#283);
#230=LINE('',#1212,#284);
#231=LINE('',#1216,#285);
#232=LINE('',#1217,#286);
#233=LINE('',#1238,#287);
#234=LINE('',#1253,#288);
#235=LINE('',#1256,#289);
#236=LINE('',#1257,#290);
#237=LINE('',#1304,#291);
#238=LINE('',#1311,#292);
#239=LINE('',#1319,#293);
#240=LINE('',#1326,#294);
#241=LINE('',#1331,#295);
#242=LINE('',#1333,#296);
#243=LINE('',#1335,#297);
#244=LINE('',#1337,#298);
#245=LINE('',#1339,#299);
#246=LINE('',#1342,#300);
#247=LINE('',#1343,#301);
#248=LINE('',#1345,#302);
#249=LINE('',#1351,#303);
#250=LINE('',#1357,#304);
#251=LINE('',#1362,#305);
#252=LINE('',#1364,#306);
#253=LINE('',#1366,#307);
#254=LINE('',#1367,#308);
#255=LINE('',#1373,#309);
#256=LINE('',#1376,#310);
#257=LINE('',#1378,#311);
#258=LINE('',#1379,#312);
#259=VECTOR('',#862,10.);
#260=VECTOR('',#863,10.);
#261=VECTOR('',#864,10.);
#262=VECTOR('',#865,10.);
#263=VECTOR('',#872,10.);
#264=VECTOR('',#875,10.);
#265=VECTOR('',#876,10.);
#266=VECTOR('',#877,10.);
#267=VECTOR('',#894,10.);
#268=VECTOR('',#897,10.);
#269=VECTOR('',#900,10.);
#270=VECTOR('',#901,10.);
#271=VECTOR('',#902,10.);
#272=VECTOR('',#909,10.);
#273=VECTOR('',#910,10.);
#274=VECTOR('',#911,10.);
#275=VECTOR('',#914,10.);
#276=VECTOR('',#917,10.);
#277=VECTOR('',#918,10.);
#278=VECTOR('',#921,10.);
#279=VECTOR('',#922,10.);
#280=VECTOR('',#927,10.);
#281=VECTOR('',#928,10.);
#282=VECTOR('',#929,10.);
#283=VECTOR('',#932,10.);
#284=VECTOR('',#939,10.);
#285=VECTOR('',#944,10.);
#286=VECTOR('',#945,10.);
#287=VECTOR('',#952,10.);
#288=VECTOR('',#955,10.);
#289=VECTOR('',#958,10.);
#290=VECTOR('',#959,10.);
#291=VECTOR('',#982,4.6);
#292=VECTOR('',#991,4.6);
#293=VECTOR('',#1002,4.6);
#294=VECTOR('',#1011,4.6);
#295=VECTOR('',#1018,2.75);
#296=VECTOR('',#1021,2.75);
#297=VECTOR('',#1024,10.);
#298=VECTOR('',#1027,2.75);
#299=VECTOR('',#1030,2.75);
#300=VECTOR('',#1033,10.);
#301=VECTOR('',#1034,10.);
#302=VECTOR('',#1037,10.);
#303=VECTOR('',#1044,2.75);
#304=VECTOR('',#1051,2.75);
#305=VECTOR('',#1056,10.);
#306=VECTOR('',#1057,10.);
#307=VECTOR('',#1058,10.);
#308=VECTOR('',#1059,10.);
#309=VECTOR('',#1066,10.);
#310=VECTOR('',#1069,10.);
#311=VECTOR('',#1070,10.);
#312=VECTOR('',#1071,10.);
#313=VERTEX_POINT('',#1084);
#314=VERTEX_POINT('',#1085);
#315=VERTEX_POINT('',#1087);
#316=VERTEX_POINT('',#1089);
#317=VERTEX_POINT('',#1093);
#318=VERTEX_POINT('',#1095);
#319=VERTEX_POINT('',#1099);
#320=VERTEX_POINT('',#1101);
#321=VERTEX_POINT('',#1108);
#322=VERTEX_POINT('',#1110);
#323=VERTEX_POINT('',#1113);
#324=VERTEX_POINT('',#1114);
#325=VERTEX_POINT('',#1116);
#326=VERTEX_POINT('',#1118);
#327=VERTEX_POINT('',#1122);
#328=VERTEX_POINT('',#1124);
#329=VERTEX_POINT('',#1127);
#330=VERTEX_POINT('',#1129);
#331=VERTEX_POINT('',#1132);
#332=VERTEX_POINT('',#1134);
#333=VERTEX_POINT('',#1136);
#334=VERTEX_POINT('',#1138);
#335=VERTEX_POINT('',#1140);
#336=VERTEX_POINT('',#1142);
#337=VERTEX_POINT('',#1144);
#338=VERTEX_POINT('',#1148);
#339=VERTEX_POINT('',#1149);
#340=VERTEX_POINT('',#1165);
#341=VERTEX_POINT('',#1167);
#342=VERTEX_POINT('',#1169);
#343=VERTEX_POINT('',#1171);
#344=VERTEX_POINT('',#1173);
#345=VERTEX_POINT('',#1176);
#346=VERTEX_POINT('',#1177);
#347=VERTEX_POINT('',#1184);
#348=VERTEX_POINT('',#1186);
#349=VERTEX_POINT('',#1195);
#350=VERTEX_POINT('',#1202);
#351=VERTEX_POINT('',#1211);
#352=VERTEX_POINT('',#1215);
#353=VERTEX_POINT('',#1220);
#354=VERTEX_POINT('',#1221);
#355=VERTEX_POINT('',#1236);
#356=VERTEX_POINT('',#1240);
#357=VERTEX_POINT('',#1255);
#358=VERTEX_POINT('',#1275);
#359=VERTEX_POINT('',#1279);
#360=VERTEX_POINT('',#1302);
#361=VERTEX_POINT('',#1306);
#362=VERTEX_POINT('',#1309);
#363=VERTEX_POINT('',#1314);
#364=VERTEX_POINT('',#1317);
#365=VERTEX_POINT('',#1321);
#366=VERTEX_POINT('',#1324);
#367=VERTEX_POINT('',#1328);
#368=VERTEX_POINT('',#1341);
#369=VERTEX_POINT('',#1348);
#370=VERTEX_POINT('',#1350);
#371=VERTEX_POINT('',#1354);
#372=VERTEX_POINT('',#1356);
#373=VERTEX_POINT('',#1360);
#374=VERTEX_POINT('',#1361);
#375=VERTEX_POINT('',#1363);
#376=VERTEX_POINT('',#1365);
#377=VERTEX_POINT('',#1369);
#378=VERTEX_POINT('',#1371);
#379=VERTEX_POINT('',#1375);
#380=VERTEX_POINT('',#1377);
#381=EDGE_CURVE('',#313,#314,#205,.T.);
#382=EDGE_CURVE('',#313,#315,#206,.T.);
#383=EDGE_CURVE('',#316,#315,#207,.T.);
#384=EDGE_CURVE('',#314,#316,#208,.T.);
#385=EDGE_CURVE('',#314,#317,#52,.T.);
#386=EDGE_CURVE('',#318,#316,#53,.T.);
#387=EDGE_CURVE('',#317,#318,#209,.T.);
#388=EDGE_CURVE('',#317,#319,#210,.T.);
#389=EDGE_CURVE('',#320,#318,#211,.T.);
#390=EDGE_CURVE('',#319,#320,#212,.T.);
#391=EDGE_CURVE('',#319,#313,#54,.T.);
#392=EDGE_CURVE('',#315,#320,#55,.T.);
#393=EDGE_CURVE('',#321,#321,#56,.T.);
#394=EDGE_CURVE('',#322,#322,#57,.T.);
#395=EDGE_CURVE('',#323,#324,#58,.T.);
#396=EDGE_CURVE('',#324,#325,#213,.T.);
#397=EDGE_CURVE('',#325,#326,#59,.T.);
#398=EDGE_CURVE('',#326,#323,#214,.T.);
#399=EDGE_CURVE('',#324,#327,#215,.T.);
#400=EDGE_CURVE('',#327,#328,#216,.T.);
#401=EDGE_CURVE('',#325,#328,#217,.T.);
#402=EDGE_CURVE('',#329,#329,#60,.T.);
#403=EDGE_CURVE('',#330,#330,#61,.T.);
#404=EDGE_CURVE('',#323,#331,#218,.T.);
#405=EDGE_CURVE('',#331,#332,#219,.T.);
#406=EDGE_CURVE('',#333,#332,#220,.T.);
#407=EDGE_CURVE('',#334,#333,#62,.T.);
#408=EDGE_CURVE('',#335,#334,#221,.T.);
#409=EDGE_CURVE('',#336,#335,#63,.T.);
#410=EDGE_CURVE('',#337,#336,#222,.T.);
#411=EDGE_CURVE('',#327,#337,#223,.T.);
#412=EDGE_CURVE('',#338,#339,#30,.T.);
#413=EDGE_CURVE('',#339,#334,#224,.T.);
#414=EDGE_CURVE('',#333,#338,#225,.T.);
#415=EDGE_CURVE('',#339,#340,#19,.T.);
#416=EDGE_CURVE('',#341,#340,#226,.T.);
#417=EDGE_CURVE('',#342,#341,#227,.T.);
#418=EDGE_CURVE('',#343,#342,#228,.T.);
#419=EDGE_CURVE('',#343,#344,#20,.T.);
#420=EDGE_CURVE('',#335,#344,#229,.T.);
#421=EDGE_CURVE('',#345,#346,#31,.T.);
#422=EDGE_CURVE('',#345,#347,#21,.T.);
#423=EDGE_CURVE('',#348,#347,#32,.T.);
#424=EDGE_CURVE('',#348,#346,#22,.T.);
#425=EDGE_CURVE('',#340,#349,#33,.T.);
#426=EDGE_CURVE('',#349,#350,#34,.T.);
#427=EDGE_CURVE('',#350,#351,#230,.T.);
#428=EDGE_CURVE('',#351,#341,#64,.T.);
#429=EDGE_CURVE('',#332,#352,#231,.T.);
#430=EDGE_CURVE('',#352,#351,#232,.T.);
#431=EDGE_CURVE('',#350,#338,#65,.T.);
#432=EDGE_CURVE('',#353,#354,#35,.T.);
#433=EDGE_CURVE('',#354,#343,#36,.T.);
#434=EDGE_CURVE('',#342,#355,#66,.T.);
#435=EDGE_CURVE('',#355,#353,#233,.T.);
#436=EDGE_CURVE('',#344,#356,#37,.T.);
#437=EDGE_CURVE('',#356,#336,#234,.T.);
#438=EDGE_CURVE('',#355,#357,#235,.T.);
#439=EDGE_CURVE('',#357,#337,#236,.T.);
#440=EDGE_CURVE('',#356,#353,#67,.T.);
#441=EDGE_CURVE('',#346,#358,#23,.T.);
#442=EDGE_CURVE('',#358,#345,#24,.T.);
#443=EDGE_CURVE('',#359,#358,#25,.T.);
#444=EDGE_CURVE('',#347,#359,#26,.T.);
#445=EDGE_CURVE('',#359,#348,#27,.T.);
#446=EDGE_CURVE('',#359,#358,#28,.T.);
#447=EDGE_CURVE('',#360,#360,#68,.T.);
#448=EDGE_CURVE('',#360,#354,#237,.T.);
#449=EDGE_CURVE('',#361,#361,#69,.T.);
#450=EDGE_CURVE('',#362,#362,#70,.T.);
#451=EDGE_CURVE('',#362,#358,#238,.T.);
#452=EDGE_CURVE('',#358,#359,#29,.T.);
#453=EDGE_CURVE('',#363,#363,#71,.T.);
#454=EDGE_CURVE('',#364,#364,#72,.T.);
#455=EDGE_CURVE('',#364,#358,#239,.T.);
#456=EDGE_CURVE('',#365,#365,#73,.T.);
#457=EDGE_CURVE('',#366,#366,#74,.T.);
#458=EDGE_CURVE('',#366,#349,#240,.T.);
#459=EDGE_CURVE('',#367,#367,#75,.T.);
#460=EDGE_CURVE('',#361,#330,#241,.T.);
#461=EDGE_CURVE('',#363,#329,#242,.T.);
#462=EDGE_CURVE('',#328,#357,#243,.T.);
#463=EDGE_CURVE('',#365,#321,#244,.T.);
#464=EDGE_CURVE('',#367,#322,#245,.T.);
#465=EDGE_CURVE('',#331,#368,#246,.T.);
#466=EDGE_CURVE('',#368,#352,#247,.T.);
#467=EDGE_CURVE('',#368,#326,#248,.T.);
#468=EDGE_CURVE('',#369,#369,#76,.T.);
#469=EDGE_CURVE('',#369,#370,#249,.T.);
#470=EDGE_CURVE('',#370,#370,#77,.T.);
#471=EDGE_CURVE('',#371,#371,#78,.T.);
#472=EDGE_CURVE('',#371,#372,#250,.T.);
#473=EDGE_CURVE('',#372,#372,#79,.T.);
#474=EDGE_CURVE('',#373,#374,#251,.T.);
#475=EDGE_CURVE('',#374,#375,#252,.T.);
#476=EDGE_CURVE('',#376,#375,#253,.T.);
#477=EDGE_CURVE('',#373,#376,#254,.T.);
#478=EDGE_CURVE('',#377,#373,#80,.T.);
#479=EDGE_CURVE('',#378,#376,#81,.T.);
#480=EDGE_CURVE('',#377,#378,#255,.T.);
#481=EDGE_CURVE('',#379,#377,#256,.T.);
#482=EDGE_CURVE('',#380,#378,#257,.T.);
#483=EDGE_CURVE('',#379,#380,#258,.T.);
#484=EDGE_CURVE('',#374,#379,#82,.T.);
#485=EDGE_CURVE('',#375,#380,#83,.T.);
#486=ORIENTED_EDGE('',*,*,#381,.F.);
#487=ORIENTED_EDGE('',*,*,#382,.T.);
#488=ORIENTED_EDGE('',*,*,#383,.F.);
#489=ORIENTED_EDGE('',*,*,#384,.F.);
#490=ORIENTED_EDGE('',*,*,#385,.F.);
#491=ORIENTED_EDGE('',*,*,#384,.T.);
#492=ORIENTED_EDGE('',*,*,#386,.F.);
#493=ORIENTED_EDGE('',*,*,#387,.F.);
#494=ORIENTED_EDGE('',*,*,#388,.F.);
#495=ORIENTED_EDGE('',*,*,#387,.T.);
#496=ORIENTED_EDGE('',*,*,#389,.F.);
#497=ORIENTED_EDGE('',*,*,#390,.F.);
#498=ORIENTED_EDGE('',*,*,#391,.F.);
#499=ORIENTED_EDGE('',*,*,#390,.T.);
#500=ORIENTED_EDGE('',*,*,#392,.F.);
#501=ORIENTED_EDGE('',*,*,#382,.F.);
#502=ORIENTED_EDGE('',*,*,#392,.T.);
#503=ORIENTED_EDGE('',*,*,#389,.T.);
#504=ORIENTED_EDGE('',*,*,#386,.T.);
#505=ORIENTED_EDGE('',*,*,#383,.T.);
#506=ORIENTED_EDGE('',*,*,#393,.T.);
#507=ORIENTED_EDGE('',*,*,#394,.T.);
#508=ORIENTED_EDGE('',*,*,#395,.T.);
#509=ORIENTED_EDGE('',*,*,#396,.T.);
#510=ORIENTED_EDGE('',*,*,#397,.T.);
#511=ORIENTED_EDGE('',*,*,#398,.T.);
#512=ORIENTED_EDGE('',*,*,#396,.F.);
#513=ORIENTED_EDGE('',*,*,#399,.T.);
#514=ORIENTED_EDGE('',*,*,#400,.T.);
#515=ORIENTED_EDGE('',*,*,#401,.F.);
#516=ORIENTED_EDGE('',*,*,#402,.T.);
#517=ORIENTED_EDGE('',*,*,#403,.T.);
#518=ORIENTED_EDGE('',*,*,#395,.F.);
#519=ORIENTED_EDGE('',*,*,#404,.T.);
#520=ORIENTED_EDGE('',*,*,#405,.T.);
#521=ORIENTED_EDGE('',*,*,#406,.F.);
#522=ORIENTED_EDGE('',*,*,#407,.F.);
#523=ORIENTED_EDGE('',*,*,#408,.F.);
#524=ORIENTED_EDGE('',*,*,#409,.F.);
#525=ORIENTED_EDGE('',*,*,#410,.F.);
#526=ORIENTED_EDGE('',*,*,#411,.F.);
#527=ORIENTED_EDGE('',*,*,#399,.F.);
#528=ORIENTED_EDGE('',*,*,#412,.T.);
#529=ORIENTED_EDGE('',*,*,#413,.T.);
#530=ORIENTED_EDGE('',*,*,#407,.T.);
#531=ORIENTED_EDGE('',*,*,#414,.T.);
#532=ORIENTED_EDGE('',*,*,#413,.F.);
#533=ORIENTED_EDGE('',*,*,#415,.T.);
#534=ORIENTED_EDGE('',*,*,#416,.F.);
#535=ORIENTED_EDGE('',*,*,#417,.F.);
#536=ORIENTED_EDGE('',*,*,#418,.F.);
#537=ORIENTED_EDGE('',*,*,#419,.T.);
#538=ORIENTED_EDGE('',*,*,#420,.F.);
#539=ORIENTED_EDGE('',*,*,#408,.T.);
#540=ORIENTED_EDGE('',*,*,#421,.F.);
#541=ORIENTED_EDGE('',*,*,#422,.T.);
#542=ORIENTED_EDGE('',*,*,#423,.F.);
#543=ORIENTED_EDGE('',*,*,#424,.T.);
#544=ORIENTED_EDGE('',*,*,#425,.T.);
#545=ORIENTED_EDGE('',*,*,#426,.T.);
#546=ORIENTED_EDGE('',*,*,#427,.T.);
#547=ORIENTED_EDGE('',*,*,#428,.T.);
#548=ORIENTED_EDGE('',*,*,#416,.T.);
#549=ORIENTED_EDGE('',*,*,#414,.F.);
#550=ORIENTED_EDGE('',*,*,#406,.T.);
#551=ORIENTED_EDGE('',*,*,#429,.T.);
#552=ORIENTED_EDGE('',*,*,#430,.T.);
#553=ORIENTED_EDGE('',*,*,#427,.F.);
#554=ORIENTED_EDGE('',*,*,#431,.T.);
#555=ORIENTED_EDGE('',*,*,#432,.T.);
#556=ORIENTED_EDGE('',*,*,#433,.T.);
#557=ORIENTED_EDGE('',*,*,#418,.T.);
#558=ORIENTED_EDGE('',*,*,#434,.T.);
#559=ORIENTED_EDGE('',*,*,#435,.T.);
#560=ORIENTED_EDGE('',*,*,#436,.T.);
#561=ORIENTED_EDGE('',*,*,#437,.T.);
#562=ORIENTED_EDGE('',*,*,#409,.T.);
#563=ORIENTED_EDGE('',*,*,#420,.T.);
#564=ORIENTED_EDGE('',*,*,#435,.F.);
#565=ORIENTED_EDGE('',*,*,#438,.T.);
#566=ORIENTED_EDGE('',*,*,#439,.T.);
#567=ORIENTED_EDGE('',*,*,#410,.T.);
#568=ORIENTED_EDGE('',*,*,#437,.F.);
#569=ORIENTED_EDGE('',*,*,#440,.T.);
#570=ORIENTED_EDGE('',*,*,#421,.T.);
#571=ORIENTED_EDGE('',*,*,#441,.T.);
#572=ORIENTED_EDGE('',*,*,#442,.T.);
#573=ORIENTED_EDGE('',*,*,#442,.F.);
#574=ORIENTED_EDGE('',*,*,#443,.F.);
#575=ORIENTED_EDGE('',*,*,#444,.F.);
#576=ORIENTED_EDGE('',*,*,#422,.F.);
#577=ORIENTED_EDGE('',*,*,#441,.F.);
#578=ORIENTED_EDGE('',*,*,#424,.F.);
#579=ORIENTED_EDGE('',*,*,#445,.F.);
#580=ORIENTED_EDGE('',*,*,#446,.T.);
#581=ORIENTED_EDGE('',*,*,#423,.T.);
#582=ORIENTED_EDGE('',*,*,#444,.T.);
#583=ORIENTED_EDGE('',*,*,#445,.T.);
#584=ORIENTED_EDGE('',*,*,#447,.T.);
#585=ORIENTED_EDGE('',*,*,#448,.T.);
#586=ORIENTED_EDGE('',*,*,#432,.F.);
#587=ORIENTED_EDGE('',*,*,#440,.F.);
#588=ORIENTED_EDGE('',*,*,#436,.F.);
#589=ORIENTED_EDGE('',*,*,#419,.F.);
#590=ORIENTED_EDGE('',*,*,#433,.F.);
#591=ORIENTED_EDGE('',*,*,#448,.F.);
#592=ORIENTED_EDGE('',*,*,#447,.F.);
#593=ORIENTED_EDGE('',*,*,#449,.F.);
#594=ORIENTED_EDGE('',*,*,#450,.T.);
#595=ORIENTED_EDGE('',*,*,#451,.T.);
#596=ORIENTED_EDGE('',*,*,#446,.F.);
#597=ORIENTED_EDGE('',*,*,#452,.F.);
#598=ORIENTED_EDGE('',*,*,#451,.F.);
#599=ORIENTED_EDGE('',*,*,#450,.F.);
#600=ORIENTED_EDGE('',*,*,#453,.F.);
#601=ORIENTED_EDGE('',*,*,#454,.F.);
#602=ORIENTED_EDGE('',*,*,#455,.T.);
#603=ORIENTED_EDGE('',*,*,#452,.T.);
#604=ORIENTED_EDGE('',*,*,#443,.T.);
#605=ORIENTED_EDGE('',*,*,#455,.F.);
#606=ORIENTED_EDGE('',*,*,#454,.T.);
#607=ORIENTED_EDGE('',*,*,#456,.F.);
#608=ORIENTED_EDGE('',*,*,#457,.F.);
#609=ORIENTED_EDGE('',*,*,#458,.T.);
#610=ORIENTED_EDGE('',*,*,#425,.F.);
#611=ORIENTED_EDGE('',*,*,#415,.F.);
#612=ORIENTED_EDGE('',*,*,#412,.F.);
#613=ORIENTED_EDGE('',*,*,#431,.F.);
#614=ORIENTED_EDGE('',*,*,#426,.F.);
#615=ORIENTED_EDGE('',*,*,#458,.F.);
#616=ORIENTED_EDGE('',*,*,#457,.T.);
#617=ORIENTED_EDGE('',*,*,#459,.F.);
#618=ORIENTED_EDGE('',*,*,#449,.T.);
#619=ORIENTED_EDGE('',*,*,#460,.T.);
#620=ORIENTED_EDGE('',*,*,#403,.F.);
#621=ORIENTED_EDGE('',*,*,#460,.F.);
#622=ORIENTED_EDGE('',*,*,#453,.T.);
#623=ORIENTED_EDGE('',*,*,#461,.T.);
#624=ORIENTED_EDGE('',*,*,#402,.F.);
#625=ORIENTED_EDGE('',*,*,#461,.F.);
#626=ORIENTED_EDGE('',*,*,#400,.F.);
#627=ORIENTED_EDGE('',*,*,#411,.T.);
#628=ORIENTED_EDGE('',*,*,#439,.F.);
#629=ORIENTED_EDGE('',*,*,#462,.F.);
#630=ORIENTED_EDGE('',*,*,#456,.T.);
#631=ORIENTED_EDGE('',*,*,#463,.T.);
#632=ORIENTED_EDGE('',*,*,#393,.F.);
#633=ORIENTED_EDGE('',*,*,#463,.F.);
#634=ORIENTED_EDGE('',*,*,#459,.T.);
#635=ORIENTED_EDGE('',*,*,#464,.T.);
#636=ORIENTED_EDGE('',*,*,#394,.F.);
#637=ORIENTED_EDGE('',*,*,#464,.F.);
#638=ORIENTED_EDGE('',*,*,#465,.T.);
#639=ORIENTED_EDGE('',*,*,#466,.T.);
#640=ORIENTED_EDGE('',*,*,#429,.F.);
#641=ORIENTED_EDGE('',*,*,#405,.F.);
#642=ORIENTED_EDGE('',*,*,#397,.F.);
#643=ORIENTED_EDGE('',*,*,#401,.T.);
#644=ORIENTED_EDGE('',*,*,#462,.T.);
#645=ORIENTED_EDGE('',*,*,#438,.F.);
#646=ORIENTED_EDGE('',*,*,#434,.F.);
#647=ORIENTED_EDGE('',*,*,#417,.T.);
#648=ORIENTED_EDGE('',*,*,#428,.F.);
#649=ORIENTED_EDGE('',*,*,#430,.F.);
#650=ORIENTED_EDGE('',*,*,#466,.F.);
#651=ORIENTED_EDGE('',*,*,#467,.T.);
#652=ORIENTED_EDGE('',*,*,#398,.F.);
#653=ORIENTED_EDGE('',*,*,#467,.F.);
#654=ORIENTED_EDGE('',*,*,#465,.F.);
#655=ORIENTED_EDGE('',*,*,#404,.F.);
#656=ORIENTED_EDGE('',*,*,#381,.T.);
#657=ORIENTED_EDGE('',*,*,#385,.T.);
#658=ORIENTED_EDGE('',*,*,#388,.T.);
#659=ORIENTED_EDGE('',*,*,#391,.T.);
#660=ORIENTED_EDGE('',*,*,#468,.F.);
#661=ORIENTED_EDGE('',*,*,#469,.T.);
#662=ORIENTED_EDGE('',*,*,#470,.F.);
#663=ORIENTED_EDGE('',*,*,#469,.F.);
#664=ORIENTED_EDGE('',*,*,#471,.F.);
#665=ORIENTED_EDGE('',*,*,#472,.T.);
#666=ORIENTED_EDGE('',*,*,#473,.F.);
#667=ORIENTED_EDGE('',*,*,#472,.F.);
#668=ORIENTED_EDGE('',*,*,#474,.T.);
#669=ORIENTED_EDGE('',*,*,#475,.T.);
#670=ORIENTED_EDGE('',*,*,#476,.F.);
#671=ORIENTED_EDGE('',*,*,#477,.F.);
#672=ORIENTED_EDGE('',*,*,#478,.T.);
#673=ORIENTED_EDGE('',*,*,#477,.T.);
#674=ORIENTED_EDGE('',*,*,#479,.F.);
#675=ORIENTED_EDGE('',*,*,#480,.F.);
#676=ORIENTED_EDGE('',*,*,#481,.T.);
#677=ORIENTED_EDGE('',*,*,#480,.T.);
#678=ORIENTED_EDGE('',*,*,#482,.F.);
#679=ORIENTED_EDGE('',*,*,#483,.F.);
#680=ORIENTED_EDGE('',*,*,#484,.T.);
#681=ORIENTED_EDGE('',*,*,#483,.T.);
#682=ORIENTED_EDGE('',*,*,#485,.F.);
#683=ORIENTED_EDGE('',*,*,#475,.F.);
#684=ORIENTED_EDGE('',*,*,#485,.T.);
#685=ORIENTED_EDGE('',*,*,#482,.T.);
#686=ORIENTED_EDGE('',*,*,#479,.T.);
#687=ORIENTED_EDGE('',*,*,#476,.T.);
#688=ORIENTED_EDGE('',*,*,#471,.T.);
#689=ORIENTED_EDGE('',*,*,#468,.T.);
#690=ORIENTED_EDGE('',*,*,#484,.F.);
#691=ORIENTED_EDGE('',*,*,#474,.F.);
#692=ORIENTED_EDGE('',*,*,#478,.F.);
#693=ORIENTED_EDGE('',*,*,#481,.F.);
#694=ORIENTED_EDGE('',*,*,#473,.T.);
#695=ORIENTED_EDGE('',*,*,#470,.T.);
#696=PLANE('',#774);
#697=PLANE('',#778);
#698=PLANE('',#782);
#699=PLANE('',#788);
#700=PLANE('',#791);
#701=PLANE('',#795);
#702=PLANE('',#802);
#703=PLANE('',#807);
#704=PLANE('',#819);
#705=PLANE('',#824);
#706=PLANE('',#828);
#707=PLANE('',#832);
#708=PLANE('',#836);
#709=PLANE('',#839);
#710=PLANE('',#840);
#711=PLANE('',#841);
#712=PLANE('',#848);
#713=PLANE('',#852);
#714=PLANE('',#856);
#715=PLANE('',#857);
#716=ADVANCED_FACE('',(#105),#696,.T.);
#717=ADVANCED_FACE('',(#106),#84,.T.);
#718=ADVANCED_FACE('',(#107),#697,.T.);
#719=ADVANCED_FACE('',(#108),#85,.T.);
#720=ADVANCED_FACE('',(#109,#38,#39),#698,.T.);
#721=ADVANCED_FACE('',(#110),#86,.T.);
#722=ADVANCED_FACE('',(#111,#40,#41),#699,.T.);
#723=ADVANCED_FACE('',(#112),#700,.T.);
#724=ADVANCED_FACE('',(#113),#87,.F.);
#725=ADVANCED_FACE('',(#114,#42),#701,.T.);
#726=ADVANCED_FACE('',(#115),#88,.F.);
#727=ADVANCED_FACE('',(#116),#702,.T.);
#728=ADVANCED_FACE('',(#117),#89,.F.);
#729=ADVANCED_FACE('',(#118),#90,.F.);
#730=ADVANCED_FACE('',(#119),#703,.F.);
#731=ADVANCED_FACE('',(#120),#17,.F.);
#732=ADVANCED_FACE('',(#121),#91,.F.);
#733=ADVANCED_FACE('',(#122),#92,.F.);
#734=ADVANCED_FACE('',(#123),#18,.F.);
#735=ADVANCED_FACE('',(#124),#93,.F.);
#736=ADVANCED_FACE('',(#125,#43),#704,.F.);
#737=ADVANCED_FACE('',(#126),#94,.F.);
#738=ADVANCED_FACE('',(#127,#44),#705,.F.);
#739=ADVANCED_FACE('',(#128),#95,.F.);
#740=ADVANCED_FACE('',(#129,#45),#706,.T.);
#741=ADVANCED_FACE('',(#130),#96,.F.);
#742=ADVANCED_FACE('',(#131,#46),#707,.T.);
#743=ADVANCED_FACE('',(#132),#97,.F.);
#744=ADVANCED_FACE('',(#133),#98,.F.);
#745=ADVANCED_FACE('',(#134),#708,.T.);
#746=ADVANCED_FACE('',(#135),#99,.F.);
#747=ADVANCED_FACE('',(#136),#100,.F.);
#748=ADVANCED_FACE('',(#137),#709,.T.);
#749=ADVANCED_FACE('',(#138),#710,.T.);
#750=ADVANCED_FACE('',(#139,#47),#711,.F.);
#751=ADVANCED_FACE('',(#140),#101,.F.);
#752=ADVANCED_FACE('',(#141),#102,.F.);
#753=ADVANCED_FACE('',(#142),#712,.T.);
#754=ADVANCED_FACE('',(#143),#103,.T.);
#755=ADVANCED_FACE('',(#144),#713,.T.);
#756=ADVANCED_FACE('',(#145),#104,.T.);
#757=ADVANCED_FACE('',(#146,#48,#49),#714,.T.);
#758=ADVANCED_FACE('',(#147,#50,#51),#715,.F.);
#759=CLOSED_SHELL('',(#716,#717,#718,#719,#720,#721,#722,#723,#724,#725,
#726,#727,#728,#729,#730,#731,#732,#733,#734,#735,#736,#737,#738,#739,#740,
#741,#742,#743,#744,#745,#746,#747,#748,#749,#750));
#760=CLOSED_SHELL('',(#751,#752,#753,#754,#755,#756,#757,#758));
#761=DERIVED_UNIT_ELEMENT(#763,1.);
#762=DERIVED_UNIT_ELEMENT(#1390,-3.);
#763=(
MASS_UNIT()
NAMED_UNIT(*)
SI_UNIT(.KILO.,.GRAM.)
);
#764=DERIVED_UNIT((#761,#762));
#765=MEASURE_REPRESENTATION_ITEM('density measure',
POSITIVE_RATIO_MEASURE(7850.),#764);
#766=PROPERTY_DEFINITION_REPRESENTATION(#771,#768);
#767=PROPERTY_DEFINITION_REPRESENTATION(#772,#769);
#768=REPRESENTATION('material name',(#770),#1387);
#769=REPRESENTATION('density',(#765),#1387);
#770=DESCRIPTIVE_REPRESENTATION_ITEM('Steel','Steel');
#771=PROPERTY_DEFINITION('material property','material name',#1397);
#772=PROPERTY_DEFINITION('material property','density of part',#1397);
#773=AXIS2_PLACEMENT_3D('',#1082,#858,#859);
#774=AXIS2_PLACEMENT_3D('',#1083,#860,#861);
#775=AXIS2_PLACEMENT_3D('',#1092,#866,#867);
#776=AXIS2_PLACEMENT_3D('',#1094,#868,#869);
#777=AXIS2_PLACEMENT_3D('',#1096,#870,#871);
#778=AXIS2_PLACEMENT_3D('',#1098,#873,#874);
#779=AXIS2_PLACEMENT_3D('',#1104,#878,#879);
#780=AXIS2_PLACEMENT_3D('',#1105,#880,#881);
#781=AXIS2_PLACEMENT_3D('',#1106,#882,#883);
#782=AXIS2_PLACEMENT_3D('',#1107,#884,#885);
#783=AXIS2_PLACEMENT_3D('',#1109,#886,#887);
#784=AXIS2_PLACEMENT_3D('',#1111,#888,#889);
#785=AXIS2_PLACEMENT_3D('',#1112,#890,#891);
#786=AXIS2_PLACEMENT_3D('',#1115,#892,#893);
#787=AXIS2_PLACEMENT_3D('',#1119,#895,#896);
#788=AXIS2_PLACEMENT_3D('',#1121,#898,#899);
#789=AXIS2_PLACEMENT_3D('',#1128,#903,#904);
#790=AXIS2_PLACEMENT_3D('',#1130,#905,#906);
#791=AXIS2_PLACEMENT_3D('',#1131,#907,#908);
#792=AXIS2_PLACEMENT_3D('',#1139,#912,#913);
#793=AXIS2_PLACEMENT_3D('',#1143,#915,#916);
#794=AXIS2_PLACEMENT_3D('',#1147,#919,#920);
#795=AXIS2_PLACEMENT_3D('',#1164,#923,#924);
#796=AXIS2_PLACEMENT_3D('',#1166,#925,#926);
#797=AXIS2_PLACEMENT_3D('',#1174,#930,#931);
#798=AXIS2_PLACEMENT_3D('',#1185,#933,#934);
#799=AXIS2_PLACEMENT_3D('',#1193,#935,#936);
#800=AXIS2_PLACEMENT_3D('',#1194,#937,#938);
#801=AXIS2_PLACEMENT_3D('',#1213,#940,#941);
#802=AXIS2_PLACEMENT_3D('',#1214,#942,#943);
#803=AXIS2_PLACEMENT_3D('',#1218,#946,#947);
#804=AXIS2_PLACEMENT_3D('',#1219,#948,#949);
#805=AXIS2_PLACEMENT_3D('',#1237,#950,#951);
#806=AXIS2_PLACEMENT_3D('',#1239,#953,#954);
#807=AXIS2_PLACEMENT_3D('',#1254,#956,#957);
#808=AXIS2_PLACEMENT_3D('',#1258,#960,#961);
#809=AXIS2_PLACEMENT_3D('',#1276,#962,#963);
#810=AXIS2_PLACEMENT_3D('',#1277,#964,#965);
#811=AXIS2_PLACEMENT_3D('',#1278,#966,#967);
#812=AXIS2_PLACEMENT_3D('',#1280,#968,#969);
#813=AXIS2_PLACEMENT_3D('',#1281,#970,#971);
#814=AXIS2_PLACEMENT_3D('',#1282,#972,#973);
#815=AXIS2_PLACEMENT_3D('',#1283,#974,#975);
#816=AXIS2_PLACEMENT_3D('',#1284,#976,#977);
#817=AXIS2_PLACEMENT_3D('',#1301,#978,#979);
#818=AXIS2_PLACEMENT_3D('',#1303,#980,#981);
#819=AXIS2_PLACEMENT_3D('',#1305,#983,#984);
#820=AXIS2_PLACEMENT_3D('',#1307,#985,#986);
#821=AXIS2_PLACEMENT_3D('',#1308,#987,#988);
#822=AXIS2_PLACEMENT_3D('',#1310,#989,#990);
#823=AXIS2_PLACEMENT_3D('',#1312,#992,#993);
#824=AXIS2_PLACEMENT_3D('',#1313,#994,#995);
#825=AXIS2_PLACEMENT_3D('',#1315,#996,#997);
#826=AXIS2_PLACEMENT_3D('',#1316,#998,#999);
#827=AXIS2_PLACEMENT_3D('',#1318,#1000,#1001);
#828=AXIS2_PLACEMENT_3D('',#1320,#1003,#1004);
#829=AXIS2_PLACEMENT_3D('',#1322,#1005,#1006);
#830=AXIS2_PLACEMENT_3D('',#1323,#1007,#1008);
#831=AXIS2_PLACEMENT_3D('',#1325,#1009,#1010);
#832=AXIS2_PLACEMENT_3D('',#1327,#1012,#1013);
#833=AXIS2_PLACEMENT_3D('',#1329,#1014,#1015);
#834=AXIS2_PLACEMENT_3D('',#1330,#1016,#1017);
#835=AXIS2_PLACEMENT_3D('',#1332,#1019,#1020);
#836=AXIS2_PLACEMENT_3D('',#1334,#1022,#1023);
#837=AXIS2_PLACEMENT_3D('',#1336,#1025,#1026);
#838=AXIS2_PLACEMENT_3D('',#1338,#1028,#1029);
#839=AXIS2_PLACEMENT_3D('',#1340,#1031,#1032);
#840=AXIS2_PLACEMENT_3D('',#1344,#1035,#1036);
#841=AXIS2_PLACEMENT_3D('',#1346,#1038,#1039);
#842=AXIS2_PLACEMENT_3D('',#1347,#1040,#1041);
#843=AXIS2_PLACEMENT_3D('',#1349,#1042,#1043);
#844=AXIS2_PLACEMENT_3D('',#1352,#1045,#1046);
#845=AXIS2_PLACEMENT_3D('',#1353,#1047,#1048);
#846=AXIS2_PLACEMENT_3D('',#1355,#1049,#1050);
#847=AXIS2_PLACEMENT_3D('',#1358,#1052,#1053);
#848=AXIS2_PLACEMENT_3D('',#1359,#1054,#1055);
#849=AXIS2_PLACEMENT_3D('',#1368,#1060,#1061);
#850=AXIS2_PLACEMENT_3D('',#1370,#1062,#1063);
#851=AXIS2_PLACEMENT_3D('',#1372,#1064,#1065);
#852=AXIS2_PLACEMENT_3D('',#1374,#1067,#1068);
#853=AXIS2_PLACEMENT_3D('',#1380,#1072,#1073);
#854=AXIS2_PLACEMENT_3D('',#1381,#1074,#1075);
#855=AXIS2_PLACEMENT_3D('',#1382,#1076,#1077);
#856=AXIS2_PLACEMENT_3D('',#1383,#1078,#1079);
#857=AXIS2_PLACEMENT_3D('',#1384,#1080,#1081);
#858=DIRECTION('axis',(0.,0.,1.));
#859=DIRECTION('refdir',(1.,0.,0.));
#860=DIRECTION('center_axis',(-1.,0.,-3.46944695195361E-17));
#861=DIRECTION('ref_axis',(3.46944695195361E-17,0.,-1.));
#862=DIRECTION('',(-3.46944695195361E-17,0.,1.));
#863=DIRECTION('',(0.,-1.,0.));
#864=DIRECTION('',(3.46944695195361E-17,0.,-1.));
#865=DIRECTION('',(0.,-1.,0.));
#866=DIRECTION('center_axis',(0.,-1.,0.));
#867=DIRECTION('ref_axis',(1.,0.,0.));
#868=DIRECTION('center_axis',(0.,1.,0.));
#869=DIRECTION('ref_axis',(1.,0.,0.));
#870=DIRECTION('center_axis',(0.,-1.,0.));
#871=DIRECTION('ref_axis',(1.,0.,0.));
#872=DIRECTION('',(0.,-1.,0.));
#873=DIRECTION('center_axis',(1.,0.,0.));
#874=DIRECTION('ref_axis',(0.,0.,1.));
#875=DIRECTION('',(0.,0.,-1.));
#876=DIRECTION('',(0.,0.,1.));
#877=DIRECTION('',(0.,-1.,0.));
#878=DIRECTION('center_axis',(0.,-1.,0.));
#879=DIRECTION('ref_axis',(-1.,0.,0.));
#880=DIRECTION('center_axis',(0.,1.,0.));
#881=DIRECTION('ref_axis',(-1.,0.,0.));
#882=DIRECTION('center_axis',(0.,-1.,0.));
#883=DIRECTION('ref_axis',(-1.,0.,0.));
#884=DIRECTION('center_axis',(0.,-1.,0.));
#885=DIRECTION('ref_axis',(1.,0.,0.));
#886=DIRECTION('center_axis',(0.,1.,0.));
#887=DIRECTION('ref_axis',(1.,0.,0.));
#888=DIRECTION('center_axis',(0.,1.,0.));
#889=DIRECTION('ref_axis',(1.,0.,0.));
#890=DIRECTION('center_axis',(1.,0.,4.62223186652937E-33));
#891=DIRECTION('ref_axis',(0.,-0.707106781186548,0.707106781186547));
#892=DIRECTION('center_axis',(-1.,0.,0.));
#893=DIRECTION('ref_axis',(0.,-0.707106781186548,0.707106781186547));
#894=DIRECTION('',(-1.,0.,-4.62223186652937E-33));
#895=DIRECTION('center_axis',(1.,0.,0.));
#896=DIRECTION('ref_axis',(0.,-0.707106781186548,0.707106781186547));
#897=DIRECTION('',(1.,0.,4.62223186652937E-33));
#898=DIRECTION('center_axis',(-4.62223186652937E-33,0.,1.));
#899=DIRECTION('ref_axis',(1.,0.,4.62223186652937E-33));
#900=DIRECTION('',(0.,1.,0.));
#901=DIRECTION('',(-1.,0.,0.));
#902=DIRECTION('',(0.,1.,0.));
#903=DIRECTION('center_axis',(0.,0.,-1.));
#904=DIRECTION('ref_axis',(1.,0.,0.));
#905=DIRECTION('center_axis',(0.,0.,-1.));
#906=DIRECTION('ref_axis',(1.,0.,0.));
#907=DIRECTION('center_axis',(1.,0.,0.));
#908=DIRECTION('ref_axis',(0.,0.,-1.));
#909=DIRECTION('',(0.,0.,-1.));
#910=DIRECTION('',(0.,1.,0.));
#911=DIRECTION('',(0.,0.,-1.));
#912=DIRECTION('center_axis',(1.,0.,0.));
#913=DIRECTION('ref_axis',(0.,-0.923879532511287,0.38268343236509));
#914=DIRECTION('',(0.,-0.707106781186548,-0.707106781186547));
#915=DIRECTION('center_axis',(1.,0.,0.));
#916=DIRECTION('ref_axis',(0.,-0.38268343236509,0.923879532511287));
#917=DIRECTION('',(0.,-1.,0.));
#918=DIRECTION('',(0.,0.,-1.));
#919=DIRECTION('center_axis',(1.,0.,0.));
#920=DIRECTION('ref_axis',(0.,-0.923879532511287,0.38268343236509));
#921=DIRECTION('',(1.,0.,0.));
#922=DIRECTION('',(-1.,0.,0.));
#923=DIRECTION('center_axis',(0.,0.707106781186547,-0.707106781186548));
#924=DIRECTION('ref_axis',(0.,0.707106781186548,0.707106781186547));
#925=DIRECTION('center_axis',(0.,-0.707106781186547,0.707106781186548));
#926=DIRECTION('ref_axis',(0.,-0.707106781186548,-0.707106781186547));
#927=DIRECTION('',(1.,0.,0.));
#928=DIRECTION('',(0.,-0.707106781186548,-0.707106781186547));
#929=DIRECTION('',(-1.,-9.87541106067886E-98,-9.87541106067886E-98));
#930=DIRECTION('center_axis',(0.,-0.707106781186547,0.707106781186548));
#931=DIRECTION('ref_axis',(0.,-0.707106781186548,-0.707106781186547));
#932=DIRECTION('',(-1.,-9.87541106067886E-98,-9.87541106067886E-98));
#933=DIRECTION('center_axis',(0.,-0.707106781186547,0.707106781186548));
#934=DIRECTION('ref_axis',(0.,-0.707106781186548,-0.707106781186547));
#935=DIRECTION('center_axis',(0.,-0.707106781186547,0.707106781186548));
#936=DIRECTION('ref_axis',(0.,-0.707106781186548,-0.707106781186547));
#937=DIRECTION('center_axis',(1.,0.,0.));
#938=DIRECTION('ref_axis',(0.,-0.923879532511287,0.38268343236509));
#939=DIRECTION('',(-1.,0.,0.));
#940=DIRECTION('center_axis',(-1.,0.,0.));
#941=DIRECTION('ref_axis',(0.,-0.923879532511287,0.38268343236509));
#942=DIRECTION('center_axis',(0.,1.,0.));
#943=DIRECTION('ref_axis',(1.,0.,0.));
#944=DIRECTION('',(-1.,0.,0.));
#945=DIRECTION('',(0.,0.,1.));
#946=DIRECTION('center_axis',(0.,-1.,0.));
#947=DIRECTION('ref_axis',(1.,0.,0.));
#948=DIRECTION('center_axis',(-1.,-9.87541106067886E-98,-9.87541106067886E-98));
#949=DIRECTION('ref_axis',(0.,-0.38268343236509,0.923879532511287));
#950=DIRECTION('center_axis',(-1.,0.,0.));
#951=DIRECTION('ref_axis',(0.,-0.38268343236509,0.923879532511287));
#952=DIRECTION('',(1.,9.87541106067886E-98,9.87541106067886E-98));
#953=DIRECTION('center_axis',(-1.,-9.87541106067886E-98,-9.87541106067886E-98));
#954=DIRECTION('ref_axis',(0.,-0.38268343236509,0.923879532511287));
#955=DIRECTION('',(1.,9.87541106067886E-98,9.87541106067886E-98));
#956=DIRECTION('center_axis',(-9.87541106067886E-98,0.,1.));
#957=DIRECTION('ref_axis',(1.,0.,9.87541106067886E-98));
#958=DIRECTION('',(2.46519032881566E-33,1.,0.));
#959=DIRECTION('',(1.,0.,0.));
#960=DIRECTION('center_axis',(-9.87541106067886E-98,0.,1.));
#961=DIRECTION('ref_axis',(1.,0.,0.));
#962=DIRECTION('center_axis',(0.,0.30050600322124,0.953779923267415));
#963=DIRECTION('ref_axis',(0.,0.953779923267415,-0.30050600322124));
#964=DIRECTION('center_axis',(0.,-0.953779923267415,-0.30050600322124));
#965=DIRECTION('ref_axis',(0.,0.30050600322124,-0.953779923267415));
#966=DIRECTION('center_axis',(0.,0.,-1.));
#967=DIRECTION('ref_axis',(2.49199588231923E-10,-1.,0.));
#968=DIRECTION('center_axis',(0.,0.707106781186547,-0.707106781186548));
#969=DIRECTION('ref_axis',(0.,-0.707106781186548,-0.707106781186547));
#970=DIRECTION('center_axis',(0.,-0.953779923267415,-0.30050600322124));
#971=DIRECTION('ref_axis',(0.,0.30050600322124,-0.953779923267415));
#972=DIRECTION('center_axis',(0.,1.,0.));
#973=DIRECTION('ref_axis',(6.12323399573677E-17,0.,1.));
#974=DIRECTION('center_axis',(0.,0.30050600322124,0.953779923267415));
#975=DIRECTION('ref_axis',(0.,0.953779923267415,-0.30050600322124));
#976=DIRECTION('center_axis',(0.,-0.707106781186547,0.707106781186548));
#977=DIRECTION('ref_axis',(0.,-0.707106781186548,-0.707106781186547));
#978=DIRECTION('center_axis',(0.,0.,-1.));
#979=DIRECTION('ref_axis',(1.,0.,0.));
#980=DIRECTION('center_axis',(0.,0.,1.));
#981=DIRECTION('ref_axis',(1.,0.,0.));
#982=DIRECTION('',(0.,0.,-1.));
#983=DIRECTION('center_axis',(0.,0.,1.));
#984=DIRECTION('ref_axis',(1.,0.,0.));
#985=DIRECTION('center_axis',(0.,0.,-1.));
#986=DIRECTION('ref_axis',(1.,0.,0.));
#987=DIRECTION('center_axis',(0.,0.,-1.));
#988=DIRECTION('ref_axis',(1.,0.,0.));
#989=DIRECTION('center_axis',(0.,0.,1.));
#990=DIRECTION('ref_axis',(1.,0.,0.));
#991=DIRECTION('',(0.,0.,-1.));
#992=DIRECTION('center_axis',(0.,0.707106781186547,0.707106781186548));
#993=DIRECTION('ref_axis',(0.,-0.707106781186548,0.707106781186547));
#994=DIRECTION('center_axis',(0.,0.,1.));
#995=DIRECTION('ref_axis',(1.,0.,0.));
#996=DIRECTION('center_axis',(0.,0.,-1.));
#997=DIRECTION('ref_axis',(1.,0.,0.));
#998=DIRECTION('center_axis',(0.,1.,0.));
#999=DIRECTION('ref_axis',(1.,0.,0.));
#1000=DIRECTION('center_axis',(0.,1.,0.));
#1001=DIRECTION('ref_axis',(1.,0.,0.));
#1002=DIRECTION('',(0.,1.,0.));
#1003=DIRECTION('center_axis',(0.,1.,0.));
#1004=DIRECTION('ref_axis',(1.,0.,0.));
#1005=DIRECTION('center_axis',(0.,1.,0.));
#1006=DIRECTION('ref_axis',(1.,0.,0.));
#1007=DIRECTION('center_axis',(0.,1.,0.));
#1008=DIRECTION('ref_axis',(1.,0.,0.));
#1009=DIRECTION('center_axis',(0.,1.,0.));
#1010=DIRECTION('ref_axis',(1.,0.,0.));
#1011=DIRECTION('',(0.,1.,0.));
#1012=DIRECTION('center_axis',(0.,1.,0.));
#1013=DIRECTION('ref_axis',(1.,0.,0.));
#1014=DIRECTION('center_axis',(0.,1.,0.));
#1015=DIRECTION('ref_axis',(1.,0.,0.));
#1016=DIRECTION('center_axis',(0.,0.,-1.));
#1017=DIRECTION('ref_axis',(1.,0.,0.));
#1018=DIRECTION('',(0.,0.,1.));
#1019=DIRECTION('center_axis',(0.,0.,-1.));
#1020=DIRECTION('ref_axis',(1.,0.,0.));
#1021=DIRECTION('',(0.,0.,1.));
#1022=DIRECTION('center_axis',(0.,1.,0.));
#1023=DIRECTION('ref_axis',(1.,0.,0.));
#1024=DIRECTION('',(0.,0.,-1.));
#1025=DIRECTION('center_axis',(0.,1.,0.));
#1026=DIRECTION('ref_axis',(1.,0.,0.));
#1027=DIRECTION('',(0.,-1.,0.));
#1028=DIRECTION('center_axis',(0.,1.,0.));
#1029=DIRECTION('ref_axis',(1.,0.,0.));
#1030=DIRECTION('',(0.,-1.,0.));
#1031=DIRECTION('center_axis',(0.,0.,-1.));
#1032=DIRECTION('ref_axis',(-1.,0.,0.));
#1033=DIRECTION('',(-1.,0.,0.));
#1034=DIRECTION('',(0.,1.,0.));
#1035=DIRECTION('center_axis',(-1.,0.,0.));
#1036=DIRECTION('ref_axis',(0.,0.,1.));
#1037=DIRECTION('',(0.,0.,1.));
#1038=DIRECTION('center_axis',(0.,1.,0.));
#1039=DIRECTION('ref_axis',(1.,0.,0.));
#1040=DIRECTION('center_axis',(0.,0.,1.));
#1041=DIRECTION('ref_axis',(1.,0.,0.));
#1042=DIRECTION('center_axis',(0.,0.,-1.));
#1043=DIRECTION('ref_axis',(1.,0.,0.));
#1044=DIRECTION('',(0.,0.,-1.));
#1045=DIRECTION('center_axis',(0.,0.,1.));
#1046=DIRECTION('ref_axis',(1.,0.,0.));
#1047=DIRECTION('center_axis',(0.,0.,1.));
#1048=DIRECTION('ref_axis',(1.,0.,0.));
#1049=DIRECTION('center_axis',(0.,0.,-1.));
#1050=DIRECTION('ref_axis',(1.,0.,0.));
#1051=DIRECTION('',(0.,0.,-1.));
#1052=DIRECTION('center_axis',(0.,0.,1.));
#1053=DIRECTION('ref_axis',(1.,0.,0.));
#1054=DIRECTION('center_axis',(1.,4.02734089893252E-9,0.));
#1055=DIRECTION('ref_axis',(-4.02734089893252E-9,1.,0.));
#1056=DIRECTION('',(-4.02734089893252E-9,1.,0.));
#1057=DIRECTION('',(0.,0.,1.));
#1058=DIRECTION('',(-4.02734089893252E-9,1.,0.));
#1059=DIRECTION('',(0.,0.,1.));
#1060=DIRECTION('center_axis',(0.,0.,1.));
#1061=DIRECTION('ref_axis',(-1.,-4.02734167853827E-9,0.));
#1062=DIRECTION('center_axis',(0.,0.,1.));
#1063=DIRECTION('ref_axis',(-1.,-4.02734167853827E-9,0.));
#1064=DIRECTION('center_axis',(0.,0.,1.));
#1065=DIRECTION('ref_axis',(-1.,-4.02734167853827E-9,0.));
#1066=DIRECTION('',(0.,0.,1.));
#1067=DIRECTION('center_axis',(-1.,-4.02734082954358E-9,0.));
#1068=DIRECTION('ref_axis',(4.02734082954358E-9,-1.,0.));
#1069=DIRECTION('',(4.02734082954358E-9,-1.,0.));
#1070=DIRECTION('',(4.02734082954358E-9,-1.,0.));
#1071=DIRECTION('',(0.,0.,1.));
#1072=DIRECTION('center_axis',(0.,0.,1.));
#1073=DIRECTION('ref_axis',(1.,4.02734091286722E-9,0.));
#1074=DIRECTION('center_axis',(0.,0.,1.));
#1075=DIRECTION('ref_axis',(1.,4.02734091286722E-9,0.));
#1076=DIRECTION('center_axis',(0.,0.,1.));
#1077=DIRECTION('ref_axis',(1.,4.02734091286722E-9,0.));
#1078=DIRECTION('center_axis',(0.,0.,1.));
#1079=DIRECTION('ref_axis',(1.,0.,0.));
#1080=DIRECTION('center_axis',(0.,0.,1.));
#1081=DIRECTION('ref_axis',(1.,0.,0.));
#1082=CARTESIAN_POINT('',(0.,0.,0.));
#1083=CARTESIAN_POINT('Origin',(7.1,0.,-13.));
#1084=CARTESIAN_POINT('',(7.1,0.,-45.));
#1085=CARTESIAN_POINT('',(7.1,0.,-13.));
#1086=CARTESIAN_POINT('',(7.1,0.,-19.));
#1087=CARTESIAN_POINT('',(7.1,-1.5,-45.));
#1088=CARTESIAN_POINT('',(7.1,0.,-45.));
#1089=CARTESIAN_POINT('',(7.1,-1.5,-13.));
#1090=CARTESIAN_POINT('',(7.1,-1.5,-13.));
#1091=CARTESIAN_POINT('',(7.1,0.,-13.));
#1092=CARTESIAN_POINT('Origin',(10.,0.,-13.));
#1093=CARTESIAN_POINT('',(12.9,0.,-13.));
#1094=CARTESIAN_POINT('Origin',(10.,0.,-13.));
#1095=CARTESIAN_POINT('',(12.9,-1.5,-13.));
#1096=CARTESIAN_POINT('Origin',(10.,-1.5,-13.));
#1097=CARTESIAN_POINT('',(12.9,0.,-13.));
#1098=CARTESIAN_POINT('Origin',(12.9,0.,-45.));
#1099=CARTESIAN_POINT('',(12.9,0.,-45.));
#1100=CARTESIAN_POINT('',(12.9,0.,-35.));
#1101=CARTESIAN_POINT('',(12.9,-1.5,-45.));
#1102=CARTESIAN_POINT('',(12.9,-1.5,-45.));
#1103=CARTESIAN_POINT('',(12.9,0.,-45.));
#1104=CARTESIAN_POINT('Origin',(10.,0.,-45.));
#1105=CARTESIAN_POINT('Origin',(10.,0.,-45.));
#1106=CARTESIAN_POINT('Origin',(10.,-1.5,-45.));
#1107=CARTESIAN_POINT('Origin',(10.,-1.5,-29.));
#1108=CARTESIAN_POINT('',(7.25,-1.5,-20.));
#1109=CARTESIAN_POINT('Origin',(10.,-1.5,-20.));
#1110=CARTESIAN_POINT('',(7.25,-1.5,-40.));
#1111=CARTESIAN_POINT('Origin',(10.,-1.5,-40.));
#1112=CARTESIAN_POINT('Origin',(5.,8.,-8.));
#1113=CARTESIAN_POINT('',(20.,0.,-8.));
#1114=CARTESIAN_POINT('',(20.,8.,9.24446373305873E-32));
#1115=CARTESIAN_POINT('Origin',(20.,8.,-8.));
#1116=CARTESIAN_POINT('',(0.,8.,0.));
#1117=CARTESIAN_POINT('',(5.,8.,0.));
#1118=CARTESIAN_POINT('',(0.,0.,-8.));
#1119=CARTESIAN_POINT('Origin',(0.,8.,-8.));
#1120=CARTESIAN_POINT('',(5.,0.,-8.));
#1121=CARTESIAN_POINT('Origin',(0.,0.,0.));
#1122=CARTESIAN_POINT('',(20.,50.,0.));
#1123=CARTESIAN_POINT('',(20.,0.,9.24446373305873E-32));
#1124=CARTESIAN_POINT('',(1.23259516440783E-31,50.,0.));
#1125=CARTESIAN_POINT('',(20.,50.,0.));
#1126=CARTESIAN_POINT('',(0.,0.,0.));
#1127=CARTESIAN_POINT('',(7.25000021109978,20.,0.));
#1128=CARTESIAN_POINT('Origin',(10.0000002110998,20.,0.));
#1129=CARTESIAN_POINT('',(7.25000016675109,40.,0.));
#1130=CARTESIAN_POINT('Origin',(10.0000001667511,40.,0.));
#1131=CARTESIAN_POINT('Origin',(20.,0.,9.24446373305873E-32));
#1132=CARTESIAN_POINT('',(20.,0.,-50.));
#1133=CARTESIAN_POINT('',(20.,0.,9.24446373305873E-32));
#1134=CARTESIAN_POINT('',(20.,8.,-50.));
#1135=CARTESIAN_POINT('',(20.,0.,-50.));
#1136=CARTESIAN_POINT('',(20.,8.,-43.3137084989848));
#1137=CARTESIAN_POINT('',(20.,8.,9.24446373305873E-32));
#1138=CARTESIAN_POINT('',(20.,10.3431457505076,-37.6568542494924));
#1139=CARTESIAN_POINT('Origin',(20.,16.,-43.3137084989848));
#1140=CARTESIAN_POINT('',(20.,37.6568542494924,-10.3431457505076));
#1141=CARTESIAN_POINT('',(20.,16.,-32.));
#1142=CARTESIAN_POINT('',(20.,43.3137084989848,-8.));
#1143=CARTESIAN_POINT('Origin',(20.,43.3137084989848,-16.));
#1144=CARTESIAN_POINT('',(20.,50.,-8.));
#1145=CARTESIAN_POINT('',(20.,0.,-8.));
#1146=CARTESIAN_POINT('',(20.,50.,0.));
#1147=CARTESIAN_POINT('Origin',(5.,16.,-43.3137084989848));
#1148=CARTESIAN_POINT('',(13.1905071671689,8.,-43.3137084989848));
#1149=CARTESIAN_POINT('',(13.9584931466251,10.3431457505076,-37.6568542494924));
#1150=CARTESIAN_POINT('Ctrl Pts',(13.1905071671691,8.,-43.3137084989845));
#1151=CARTESIAN_POINT('Ctrl Pts',(13.2189880873684,8.,-43.2862864791988));
#1152=CARTESIAN_POINT('Ctrl Pts',(13.2470038963036,8.00014107383117,-43.258604513311));
#1153=CARTESIAN_POINT('Ctrl Pts',(13.6898939955671,8.00479970445208,-42.8097025411287));
#1154=CARTESIAN_POINT('Ctrl Pts',(14.0435311610241,8.04630118579498,-42.2769021550967));
#1155=CARTESIAN_POINT('Ctrl Pts',(14.4981448089445,8.27897808419361,-41.1406659311401));
#1156=CARTESIAN_POINT('Ctrl Pts',(14.6,8.47359240950891,-40.5382889023122));
#1157=CARTESIAN_POINT('Ctrl Pts',(14.6,9.04898959797566,-39.2739294025073));
#1158=CARTESIAN_POINT('Ctrl Pts',(14.4232872308382,9.50539014186658,-38.5753250944806));
#1159=CARTESIAN_POINT('Ctrl Pts',(14.0791872244424,10.1355788962067,-37.870251613871));
#1160=CARTESIAN_POINT('Ctrl Pts',(14.0205006922078,10.2383906604007,-37.7616093395993));
#1161=CARTESIAN_POINT('Ctrl Pts',(13.9584931466251,10.3431457505076,-37.6568542494924));
#1162=CARTESIAN_POINT('',(5.,10.3431457505076,-37.6568542494924));
#1163=CARTESIAN_POINT('',(5.,8.,-43.3137084989848));
#1164=CARTESIAN_POINT('Origin',(6.16297582203915E-32,8.,-40.));
#1165=CARTESIAN_POINT('',(6.04150685337489,10.3431457505076,-37.6568542494924));
#1166=CARTESIAN_POINT('Origin',(10.,7.99999999999999,-40.));
#1167=CARTESIAN_POINT('',(6.16297582203915E-32,10.3431457505076,-37.6568542494924));
#1168=CARTESIAN_POINT('',(5.,10.3431457505076,-37.6568542494924));
#1169=CARTESIAN_POINT('',(6.16297582203915E-32,37.6568542494924,-10.3431457505076));
#1170=CARTESIAN_POINT('',(6.16297582203915E-32,40.,-8.));
#1171=CARTESIAN_POINT('',(6.04150702012596,37.6568542494924,-10.3431457505076));
#1172=CARTESIAN_POINT('',(5.,37.6568542494924,-10.3431457505076));
#1173=CARTESIAN_POINT('',(13.9584933133762,37.6568542494924,-10.3431457505076));
#1174=CARTESIAN_POINT('Origin',(10.0000001667511,40.,-8.));
#1175=CARTESIAN_POINT('',(5.,37.6568542494924,-10.3431457505076));
#1176=CARTESIAN_POINT('',(5.81832723382276,21.9166666666667,-26.0833333333333));
#1177=CARTESIAN_POINT('',(5.81832702272298,26.0833333333333,-21.9166666666667));
#1178=CARTESIAN_POINT('Ctrl Pts',(5.81832723382276,21.9166666666667,-26.0833333333333));
#1179=CARTESIAN_POINT('Ctrl Pts',(6.12699029514553,22.5900899768338,-25.4099100231662));
#1180=CARTESIAN_POINT('Ctrl Pts',(6.28559897673757,23.2917341210523,-24.7082658789477));
#1181=CARTESIAN_POINT('Ctrl Pts',(6.28569125493153,24.707855777462,-23.292144222538));
#1182=CARTESIAN_POINT('Ctrl Pts',(6.12708087714928,25.4097124111485,-22.5902875888515));
#1183=CARTESIAN_POINT('Ctrl Pts',(5.8183272148359,26.0833333747578,-21.9166666252422));
#1184=CARTESIAN_POINT('',(14.1816731883768,21.9166666666667,-26.0833333333333));
#1185=CARTESIAN_POINT('Origin',(10.0000002110998,20.,-28.));
#1186=CARTESIAN_POINT('',(14.181672977277,26.0833333333333,-21.9166666666667));
#1187=CARTESIAN_POINT('Ctrl Pts',(14.18167316939,26.0833332919089,-21.9166667080911));
#1188=CARTESIAN_POINT('Ctrl Pts',(13.8730100970462,25.4099099728914,-22.5900900271086));
#1189=CARTESIAN_POINT('Ctrl Pts',(13.7144014256982,24.7082658437189,-23.2917341562811));
#1190=CARTESIAN_POINT('Ctrl Pts',(13.7143091475085,23.2921442577477,-24.7078557422523));
#1191=CARTESIAN_POINT('Ctrl Pts',(13.8729195090652,22.5902876589083,-25.4097123410917));
#1192=CARTESIAN_POINT('Ctrl Pts',(14.1816731795963,21.9166666858236,-26.0833333141764));
#1193=CARTESIAN_POINT('Origin',(10.,28.,-20.));
#1194=CARTESIAN_POINT('Origin',(5.,16.,-43.3137084989848));
#1195=CARTESIAN_POINT('',(5.4,8.71856223100436,-40.));
#1196=CARTESIAN_POINT('Ctrl Pts',(6.04150685337489,10.3431457505076,-37.6568542494924));
#1197=CARTESIAN_POINT('Ctrl Pts',(5.97949930779222,10.2383906604007,-37.7616093395993));
#1198=CARTESIAN_POINT('Ctrl Pts',(5.92081277555765,10.1355788962067,-37.870251613871));
#1199=CARTESIAN_POINT('Ctrl Pts',(5.57671276916181,9.50539014186658,-38.5753250944806));
#1200=CARTESIAN_POINT('Ctrl Pts',(5.4,9.04898959797566,-39.2739294025073));
#1201=CARTESIAN_POINT('Ctrl Pts',(5.4,8.71856223100436,-40.));
#1202=CARTESIAN_POINT('',(6.80949283283108,8.,-43.3137084989848));
#1203=CARTESIAN_POINT('Ctrl Pts',(5.4,8.71856223100436,-40.));
#1204=CARTESIAN_POINT('Ctrl Pts',(5.4,8.47359240950891,-40.5382889023122));
#1205=CARTESIAN_POINT('Ctrl Pts',(5.50185519105546,8.27897808419361,-41.1406659311401));
#1206=CARTESIAN_POINT('Ctrl Pts',(5.95646883897594,8.04630118579498,-42.2769021550967));
#1207=CARTESIAN_POINT('Ctrl Pts',(6.31010600443292,8.00479970445208,-42.8097025411287));
#1208=CARTESIAN_POINT('Ctrl Pts',(6.75299610369645,8.00014107383117,-43.258604513311));
#1209=CARTESIAN_POINT('Ctrl Pts',(6.78101191263165,8.,-43.2862864791988));
#1210=CARTESIAN_POINT('Ctrl Pts',(6.80949283283086,8.,-43.3137084989845));
#1211=CARTESIAN_POINT('',(0.,8.,-43.3137084989848));
#1212=CARTESIAN_POINT('',(5.,8.,-43.3137084989848));
#1213=CARTESIAN_POINT('Origin',(0.,16.,-43.3137084989848));
#1214=CARTESIAN_POINT('Origin',(10.,8.,-25.));
#1215=CARTESIAN_POINT('',(0.,8.,-50.));
#1216=CARTESIAN_POINT('',(20.,8.,-50.));
#1217=CARTESIAN_POINT('',(0.,8.,-50.));
#1218=CARTESIAN_POINT('Origin',(10.,8.,-40.));
#1219=CARTESIAN_POINT('Origin',(5.,43.3137084989848,-16.));
#1220=CARTESIAN_POINT('',(6.80949299958219,43.3137084989848,-8.));
#1221=CARTESIAN_POINT('',(5.40000016675109,40.,-8.71856223100436));
#1222=CARTESIAN_POINT('Ctrl Pts',(6.80949299958197,43.3137084989846,-8.));
#1223=CARTESIAN_POINT('Ctrl Pts',(6.78101207938276,43.2862864791989,-8.));
#1224=CARTESIAN_POINT('Ctrl Pts',(6.75299627044754,43.258604513311,-8.00014107383117));
#1225=CARTESIAN_POINT('Ctrl Pts',(6.31010617118401,42.8097025411287,-8.00479970445208));
#1226=CARTESIAN_POINT('Ctrl Pts',(5.95646900572703,42.2769021550967,-8.04630118579498));
#1227=CARTESIAN_POINT('Ctrl Pts',(5.50185535780655,41.1406659311401,-8.27897808419361));
#1228=CARTESIAN_POINT('Ctrl Pts',(5.40000016675109,40.5382889023122,-8.47359240950891));
#1229=CARTESIAN_POINT('Ctrl Pts',(5.40000016675109,40.,-8.71856223100436));
#1230=CARTESIAN_POINT('Ctrl Pts',(5.40000016675109,40.,-8.71856223100437));
#1231=CARTESIAN_POINT('Ctrl Pts',(5.40000016675109,39.2739294025073,-9.04898959797567));
#1232=CARTESIAN_POINT('Ctrl Pts',(5.5767129359129,38.5753250944806,-9.5053901418666));
#1233=CARTESIAN_POINT('Ctrl Pts',(5.92081294230874,37.870251613871,-10.1355788962067));
#1234=CARTESIAN_POINT('Ctrl Pts',(5.9794994745433,37.7616093395993,-10.2383906604007));
#1235=CARTESIAN_POINT('Ctrl Pts',(6.04150702012596,37.6568542494924,-10.3431457505076));
#1236=CARTESIAN_POINT('',(1.06776535296838E-31,43.3137084989848,-8.));
#1237=CARTESIAN_POINT('Origin',(0.,43.3137084989848,-16.));
#1238=CARTESIAN_POINT('',(5.,43.3137084989848,-8.));
#1239=CARTESIAN_POINT('Origin',(5.,43.3137084989848,-16.));
#1240=CARTESIAN_POINT('',(13.19050733392,43.3137084989848,-8.));
#1241=CARTESIAN_POINT('Ctrl Pts',(13.9584933133762,37.6568542494924,-10.3431457505076));
#1242=CARTESIAN_POINT('Ctrl Pts',(14.0205008589589,37.7616093395993,-10.2383906604007));
#1243=CARTESIAN_POINT('Ctrl Pts',(14.0791873911934,37.870251613871,-10.1355788962067));
#1244=CARTESIAN_POINT('Ctrl Pts',(14.4232873975893,38.5753250944806,-9.5053901418666));
#1245=CARTESIAN_POINT('Ctrl Pts',(14.6000001667511,39.2739294025073,-9.04898959797566));
#1246=CARTESIAN_POINT('Ctrl Pts',(14.6000001667511,40.5382889023122,-8.47359240950891));
#1247=CARTESIAN_POINT('Ctrl Pts',(14.4981449756956,41.1406659311401,-8.27897808419361));
#1248=CARTESIAN_POINT('Ctrl Pts',(14.0435313277752,42.2769021550967,-8.04630118579498));
#1249=CARTESIAN_POINT('Ctrl Pts',(13.6898941623182,42.8097025411287,-8.00479970445208));
#1250=CARTESIAN_POINT('Ctrl Pts',(13.2470040630546,43.258604513311,-8.00014107383117));
#1251=CARTESIAN_POINT('Ctrl Pts',(13.2189882541194,43.2862864791989,-8.));
#1252=CARTESIAN_POINT('Ctrl Pts',(13.1905073339202,43.3137084989845,-8.));
#1253=CARTESIAN_POINT('',(5.,43.3137084989848,-8.));
#1254=CARTESIAN_POINT('Origin',(10.,29.,-8.));
#1255=CARTESIAN_POINT('',(0.,50.,-8.));
#1256=CARTESIAN_POINT('',(1.23259516440783E-31,50.,-8.));
#1257=CARTESIAN_POINT('',(20.,50.,-8.));
#1258=CARTESIAN_POINT('Origin',(10.0000001667511,40.,-8.));
#1259=CARTESIAN_POINT('Ctrl Pts',(5.40000021109979,20.,-20.));
#1260=CARTESIAN_POINT('Ctrl Pts',(5.40000021109979,20.6774887257757,-22.1502903346399));
#1261=CARTESIAN_POINT('Ctrl Pts',(5.55205885513144,21.3545510948998,-24.2992274500375));
#1262=CARTESIAN_POINT('Ctrl Pts',(5.8417556865147,21.9669780054078,-26.2430172291972));
#1263=CARTESIAN_POINT('Ctrl Pts',(5.40000021109979,20.,-20.));
#1264=CARTESIAN_POINT('Ctrl Pts',(5.40000021109979,21.1684226196735,-21.6593564407421));
#1265=CARTESIAN_POINT('Ctrl Pts',(5.78494754445619,22.3326988868091,-23.3175025372997));
#1266=CARTESIAN_POINT('Ctrl Pts',(6.42895348803594,23.2083299861169,-24.7239025599157));
#1267=CARTESIAN_POINT('Ctrl Pts',(5.40000021109979,20.,-20.));
#1268=CARTESIAN_POINT('Ctrl Pts',(5.40000021109979,21.6593565135712,-21.1684225468443));
#1269=CARTESIAN_POINT('Ctrl Pts',(5.78494755069793,23.3175025026588,-22.3326989177573));
#1270=CARTESIAN_POINT('Ctrl Pts',(6.42895348287937,24.723902588679,-23.2083299553604));
#1271=CARTESIAN_POINT('Ctrl Pts',(5.40000021109979,20.,-20.));
#1272=CARTESIAN_POINT('Ctrl Pts',(5.40000021109979,22.150290407469,-20.6774886529466));
#1273=CARTESIAN_POINT('Ctrl Pts',(5.55205887217105,24.2992274150984,-21.3545511192031));
#1274=CARTESIAN_POINT('Ctrl Pts',(5.84175567196593,26.24301725433,-21.9669779746513));
#1275=CARTESIAN_POINT('',(5.40000021109979,20.,-20.));
#1276=CARTESIAN_POINT('Origin',(10.,20.,-20.));
#1277=CARTESIAN_POINT('Origin',(10.0000001445889,20.,-20.));
#1278=CARTESIAN_POINT('Origin',(10.0000002110998,20.,-4.));
#1279=CARTESIAN_POINT('',(14.6000002110998,20.,-20.));
#1280=CARTESIAN_POINT('Origin',(10.0000002110998,20.,-20.));
#1281=CARTESIAN_POINT('Origin',(10.0000001445889,20.,-20.));
#1282=CARTESIAN_POINT('Origin',(10.,4.,-20.));
#1283=CARTESIAN_POINT('Origin',(10.,20.,-20.));
#1284=CARTESIAN_POINT('Origin',(10.0000002110998,20.,-20.));
#1285=CARTESIAN_POINT('Ctrl Pts',(14.1582447180116,21.9669780427697,-26.2430171845836));
#1286=CARTESIAN_POINT('Ctrl Pts',(14.447941560254,21.3545511235408,-24.299227417187));
#1287=CARTESIAN_POINT('Ctrl Pts',(14.6000002110998,20.677488740184,-22.1502903181888));
#1288=CARTESIAN_POINT('Ctrl Pts',(14.6000002110998,20.,-20.));
#1289=CARTESIAN_POINT('Ctrl Pts',(13.5710469236383,23.2083299795127,-24.7239025650784));
#1290=CARTESIAN_POINT('Ctrl Pts',(14.2150528597432,22.3326989112999,-23.3175025019104));
#1291=CARTESIAN_POINT('Ctrl Pts',(14.6000002110998,21.1684225752425,-21.6593564831303));
#1292=CARTESIAN_POINT('Ctrl Pts',(14.6000002110998,20.,-20.));
#1293=CARTESIAN_POINT('Ctrl Pts',(13.5710469184818,24.7239025363152,-23.2083300102692));
#1294=CARTESIAN_POINT('Ctrl Pts',(14.215052865985,23.3175025365514,-22.3326988803517));
#1295=CARTESIAN_POINT('Ctrl Pts',(14.6000002110998,21.6593564103011,-21.1684226480717));
#1296=CARTESIAN_POINT('Ctrl Pts',(14.6000002110998,20.,-20.));
#1297=CARTESIAN_POINT('Ctrl Pts',(14.1582447034628,26.2430171594508,-21.9669780735262));
#1298=CARTESIAN_POINT('Ctrl Pts',(14.4479415772936,24.2992274521261,-21.3545510992375));
#1299=CARTESIAN_POINT('Ctrl Pts',(14.6000002110998,22.1502902453597,-20.6774888130131));
#1300=CARTESIAN_POINT('Ctrl Pts',(14.6000002110998,20.,-20.));
#1301=CARTESIAN_POINT('Origin',(10.0000001667511,40.,-4.));
#1302=CARTESIAN_POINT('',(5.40000016675109,40.,-4.));
#1303=CARTESIAN_POINT('Origin',(10.0000001667511,40.,-4.));
#1304=CARTESIAN_POINT('',(5.40000016675109,40.,-4.));
#1305=CARTESIAN_POINT('Origin',(10.0000001667511,40.,-4.));
#1306=CARTESIAN_POINT('',(7.25000016675109,40.,-4.));
#1307=CARTESIAN_POINT('Origin',(10.0000001667511,40.,-4.));
#1308=CARTESIAN_POINT('Origin',(10.0000002110998,20.,-4.));
#1309=CARTESIAN_POINT('',(5.40000021109979,20.,-4.));
#1310=CARTESIAN_POINT('Origin',(10.0000002110998,20.,-4.));
#1311=CARTESIAN_POINT('',(5.40000021109979,20.,-4.));
#1312=CARTESIAN_POINT('Origin',(10.0000002110998,20.,-20.));
#1313=CARTESIAN_POINT('Origin',(10.0000002110998,20.,-4.));
#1314=CARTESIAN_POINT('',(7.25000021109978,20.,-4.));
#1315=CARTESIAN_POINT('Origin',(10.0000002110998,20.,-4.));
#1316=CARTESIAN_POINT('Origin',(10.,4.,-20.));
#1317=CARTESIAN_POINT('',(5.4,4.,-20.));
#1318=CARTESIAN_POINT('Origin',(10.,4.,-20.));
#1319=CARTESIAN_POINT('',(5.4,4.,-20.));
#1320=CARTESIAN_POINT('Origin',(10.,4.,-20.));
#1321=CARTESIAN_POINT('',(7.25,4.,-20.));
#1322=CARTESIAN_POINT('Origin',(10.,4.,-20.));
#1323=CARTESIAN_POINT('Origin',(10.,4.,-40.));
#1324=CARTESIAN_POINT('',(5.4,4.,-40.));
#1325=CARTESIAN_POINT('Origin',(10.,4.,-40.));
#1326=CARTESIAN_POINT('',(5.4,4.,-40.));
#1327=CARTESIAN_POINT('Origin',(10.,4.,-40.));
#1328=CARTESIAN_POINT('',(7.25,4.,-40.));
#1329=CARTESIAN_POINT('Origin',(10.,4.,-40.));
#1330=CARTESIAN_POINT('Origin',(10.0000001667511,40.,0.));
#1331=CARTESIAN_POINT('',(7.25000016675109,40.,0.));
#1332=CARTESIAN_POINT('Origin',(10.0000002110998,20.,0.));
#1333=CARTESIAN_POINT('',(7.25000021109978,20.,0.));
#1334=CARTESIAN_POINT('Origin',(0.,50.,0.));
#1335=CARTESIAN_POINT('',(1.23259516440783E-31,50.,0.));
#1336=CARTESIAN_POINT('Origin',(10.,0.,-20.));
#1337=CARTESIAN_POINT('',(7.25,0.,-20.));
#1338=CARTESIAN_POINT('Origin',(10.,0.,-40.));
#1339=CARTESIAN_POINT('',(7.25,0.,-40.));
#1340=CARTESIAN_POINT('Origin',(20.,0.,-50.));
#1341=CARTESIAN_POINT('',(0.,0.,-50.));
#1342=CARTESIAN_POINT('',(20.,0.,-50.));
#1343=CARTESIAN_POINT('',(0.,0.,-50.));
#1344=CARTESIAN_POINT('Origin',(0.,0.,-50.));
#1345=CARTESIAN_POINT('',(0.,0.,-50.));
#1346=CARTESIAN_POINT('Origin',(10.,0.,-25.));
#1347=CARTESIAN_POINT('Origin',(10.0000001667511,40.,0.));
#1348=CARTESIAN_POINT('',(7.25000016675109,40.,1.5));
#1349=CARTESIAN_POINT('Origin',(10.0000001667511,40.,1.5));
#1350=CARTESIAN_POINT('',(7.25000016675109,40.,0.));
#1351=CARTESIAN_POINT('',(7.25000016675109,40.,0.));
#1352=CARTESIAN_POINT('Origin',(10.0000001667511,40.,0.));
#1353=CARTESIAN_POINT('Origin',(10.0000002110998,20.,0.));
#1354=CARTESIAN_POINT('',(7.25000021109978,20.,1.5));
#1355=CARTESIAN_POINT('Origin',(10.0000002110998,20.,1.5));
#1356=CARTESIAN_POINT('',(7.25000021109978,20.,0.));
#1357=CARTESIAN_POINT('',(7.25000021109978,20.,0.));
#1358=CARTESIAN_POINT('Origin',(10.0000002110998,20.,0.));
#1359=CARTESIAN_POINT('Origin',(12.9000001490116,12.9999995207219,4.93770553033943E-97));
#1360=CARTESIAN_POINT('',(12.9000001490116,12.9999995207219,4.93770553033943E-97));
#1361=CARTESIAN_POINT('',(12.9000000201367,45.0000000116793,4.93770553033943E-97));
#1362=CARTESIAN_POINT('',(12.9000001490116,12.9999995207219,4.93770553033943E-97));
#1363=CARTESIAN_POINT('',(12.9000000201367,45.0000000116793,1.5));
#1364=CARTESIAN_POINT('',(12.9000000201367,45.0000000116793,4.93770553033943E-97));
#1365=CARTESIAN_POINT('',(12.9000001490116,12.9999995207219,1.5));
#1366=CARTESIAN_POINT('',(12.9000001490116,12.9999995207219,1.5));
#1367=CARTESIAN_POINT('',(12.9000001490116,12.9999995207219,4.93770553033943E-97));
#1368=CARTESIAN_POINT('Origin',(10.0000001490116,12.9999995090427,4.93770553033943E-97));
#1369=CARTESIAN_POINT('',(7.10000014901161,12.9999994973634,4.93770553033943E-97));
#1370=CARTESIAN_POINT('Origin',(10.0000001490116,12.9999995090427,4.93770553033943E-97));
#1371=CARTESIAN_POINT('',(7.10000014901161,12.9999994973634,1.5));
#1372=CARTESIAN_POINT('Origin',(10.0000001490116,12.9999995090427,1.5));
#1373=CARTESIAN_POINT('',(7.10000014901161,12.9999994973634,4.93770553033943E-97));
#1374=CARTESIAN_POINT('Origin',(7.1000000201367,44.9999999883207,4.93770553033943E-97));
#1375=CARTESIAN_POINT('',(7.10000002013671,44.9999999883207,4.93770553033943E-97));
#1376=CARTESIAN_POINT('',(7.1000000201367,44.9999999883207,4.93770553033943E-97));
#1377=CARTESIAN_POINT('',(7.10000002013671,44.9999999883207,1.5));
#1378=CARTESIAN_POINT('',(7.1000000201367,44.9999999883207,1.5));
#1379=CARTESIAN_POINT('',(7.10000002013671,44.9999999883207,4.93770553033943E-97));
#1380=CARTESIAN_POINT('Origin',(10.0000000201367,45.,4.93770553033943E-97));
#1381=CARTESIAN_POINT('Origin',(10.0000000201367,45.,4.93770553033943E-97));
#1382=CARTESIAN_POINT('Origin',(10.0000000201367,45.,1.5));
#1383=CARTESIAN_POINT('Origin',(10.0000000845742,28.9999997545213,1.5));
#1384=CARTESIAN_POINT('Origin',(10.0000000845742,28.9999997545213,0.));
#1385=UNCERTAINTY_MEASURE_WITH_UNIT(LENGTH_MEASURE(0.01),#1389,
'DISTANCE_ACCURACY_VALUE',
'Maximum model space distance between geometric entities at asserted c
onnectivities');
#1386=UNCERTAINTY_MEASURE_WITH_UNIT(LENGTH_MEASURE(0.01),#1389,
'DISTANCE_ACCURACY_VALUE',
'Maximum model space distance between geometric entities at asserted c
onnectivities');
#1387=(
GEOMETRIC_REPRESENTATION_CONTEXT(3)
GLOBAL_UNCERTAINTY_ASSIGNED_CONTEXT((#1385))
GLOBAL_UNIT_ASSIGNED_CONTEXT((#1389,#1391,#1392))
REPRESENTATION_CONTEXT('','3D')
);
#1388=(
GEOMETRIC_REPRESENTATION_CONTEXT(3)
GLOBAL_UNCERTAINTY_ASSIGNED_CONTEXT((#1386))
GLOBAL_UNIT_ASSIGNED_CONTEXT((#1389,#1391,#1392))
REPRESENTATION_CONTEXT('','3D')
);
#1389=(
LENGTH_UNIT()
NAMED_UNIT(*)
SI_UNIT(.MILLI.,.METRE.)
);
#1390=(
LENGTH_UNIT()
NAMED_UNIT(*)
SI_UNIT($,.METRE.)
);
#1391=(
NAMED_UNIT(*)
PLANE_ANGLE_UNIT()
SI_UNIT($,.RADIAN.)
);
#1392=(
NAMED_UNIT(*)
SI_UNIT($,.STERADIAN.)
SOLID_ANGLE_UNIT()
);
#1393=SHAPE_DEFINITION_REPRESENTATION(#1394,#1395);
#1394=PRODUCT_DEFINITION_SHAPE('',$,#1397);
#1395=SHAPE_REPRESENTATION('',(#773),#1387);
#1396=PRODUCT_DEFINITION_CONTEXT('part definition',#1401,'design');
#1397=PRODUCT_DEFINITION('2026-10-07-09-37-59-922','20x20 Bracket',#1398,
#1396);
#1398=PRODUCT_DEFINITION_FORMATION('',$,#1403);
#1399=PRODUCT_RELATED_PRODUCT_CATEGORY('20x20 Bracket','20x20 Bracket',
(#1403));
#1400=APPLICATION_PROTOCOL_DEFINITION('international standard',
'automotive_design',2009,#1401);
#1401=APPLICATION_CONTEXT(
'Core Data for Automotive Mechanical Design Process');
#1402=PRODUCT_CONTEXT('part definition',#1401,'mechanical');
#1403=PRODUCT('2026-10-07-09-37-59-922','20x20 Bracket',$,(#1402));
#1404=PRESENTATION_STYLE_ASSIGNMENT((#1405));
#1405=SURFACE_STYLE_USAGE(.BOTH.,#1406);
#1406=SURFACE_SIDE_STYLE('',(#1407));
#1407=SURFACE_STYLE_FILL_AREA(#1408);
#1408=FILL_AREA_STYLE('Steel - Satin',(#1409));
#1409=FILL_AREA_STYLE_COLOUR('Steel - Satin',#1410);
#1410=COLOUR_RGB('Steel - Satin',0.627450980392157,0.627450980392157,0.627450980392157);
ENDSEC;
END-ISO-10303-21;
