ISO-10303-21;
HEADER;
/* Generated by software containing ST-Developer
 * from STEP Tools, Inc. (www.steptools.com) 
 */

FILE_DESCRIPTION(
/* description */ (''),
/* implementation_level */ '2;1');

FILE_NAME(
/* name */ 'load_shaft_8mm.step',
/* time_stamp */ '2026-10-07T21:06:35-07:00',
/* author */ (''),
/* organization */ (''),
/* preprocessor_version */ 'ST-DEVELOPER v20.2',
/* originating_system */ 'Autodesk Translation Framework v15.15.0.0',
/* authorisation */ '');

FILE_SCHEMA (('AUTOMOTIVE_DESIGN { 1 0 10303 214 3 1 1 }'));
ENDSEC;

DATA;
#10=MECHANICAL_DESIGN_GEOMETRIC_PRESENTATION_REPRESENTATION('',(#13),#344);
#11=SHAPE_REPRESENTATION_RELATIONSHIP('SRR','None',#351,#12);
#12=ADVANCED_BREP_SHAPE_REPRESENTATION('',(#14),#343);
#13=STYLED_ITEM('',(#360),#14);
#14=MANIFOLD_SOLID_BREP('Body1',#124);
#15=PLANE('',#143);
#16=PLANE('',#144);
#17=FACE_BOUND('',#29,.T.);
#18=FACE_BOUND('',#30,.T.);
#19=CIRCLE('',#141,4.);
#20=CIRCLE('',#142,4.);
#21=FACE_OUTER_BOUND('',#26,.T.);
#22=FACE_OUTER_BOUND('',#27,.T.);
#23=FACE_OUTER_BOUND('',#28,.T.);
#24=FACE_OUTER_BOUND('',#31,.T.);
#25=FACE_OUTER_BOUND('',#32,.T.);
#26=EDGE_LOOP('',(#82,#83,#84,#85,#86,#87,#88));
#27=EDGE_LOOP('',(#89,#90,#91,#92,#93,#94,#95));
#28=EDGE_LOOP('',(#96,#97,#98,#99,#100,#101,#102,#103,#104,#105,#106,#107,
#108,#109));
#29=EDGE_LOOP('',(#110,#111));
#30=EDGE_LOOP('',(#112,#113));
#31=EDGE_LOOP('',(#114));
#32=EDGE_LOOP('',(#115));
#33=LINE('',#181,#38);
#34=LINE('',#263,#39);
#35=LINE('',#334,#40);
#36=LINE('',#335,#41);
#37=LINE('',#337,#42);
#38=VECTOR('',#149,1.245);
#39=VECTOR('',#152,1.245);
#40=VECTOR('',#157,4.);
#41=VECTOR('',#158,4.);
#42=VECTOR('',#159,4.);
#43=B_SPLINE_CURVE_WITH_KNOTS('',3,(#170,#171,#172,#173,#174,#175,#176,
#177,#178,#179),.UNSPECIFIED.,.F.,.F.,(4,2,2,2,4),(0.377906490326602,0.42515301189964,
0.472399533472677,0.51962963448129,0.566859735489903),.UNSPECIFIED.);
#44=B_SPLINE_CURVE_WITH_KNOTS('',3,(#183,#184,#185,#186,#187,#188,#189,
#190,#191,#192,#193,#194,#195,#196,#197,#198,#199,#200),.UNSPECIFIED.,.F.,
 .F.,(4,2,2,2,2,2,2,2,4),(0.,0.0472465215730374,0.0944930431460749,0.141723144154688,
0.188953245163301,0.236183346171914,0.283413447180528,0.330659968753565,
0.377906490326602),.UNSPECIFIED.);
#45=B_SPLINE_CURVE_WITH_KNOTS('',3,(#201,#202,#203,#204,#205,#206,#207,
#208,#209,#210,#211,#212,#213,#214,#215,#216,#217,#218),.UNSPECIFIED.,.F.,
 .F.,(4,2,2,2,2,2,2,2,4),(0.377906490326602,0.42515301189964,0.472399533472677,
0.51962963448129,0.566859735489904,0.614089836498517,0.66131993750713,0.708566459080167,
0.755812980653205),.UNSPECIFIED.);
#46=B_SPLINE_CURVE_WITH_KNOTS('',3,(#220,#221,#222,#223,#224,#225,#226,
#227,#228,#229),.UNSPECIFIED.,.F.,.F.,(4,2,2,2,4),(0.944766225816506,0.991996326825119,
1.03922642783373,1.08647294940677,1.13371947097981),.UNSPECIFIED.);
#47=B_SPLINE_CURVE_WITH_KNOTS('',3,(#230,#231,#232,#233,#234,#235,#236,
#237,#238,#239,#240,#241,#242,#243,#244,#245,#246,#247,#248),
 .UNSPECIFIED.,.F.,.F.,(4,2,2,2,3,2,2,2,4),(0.566859735489903,0.614089836498517,
0.66131993750713,0.708566459080167,0.755812980653205,0.803059502226242,
0.85030602379928,0.897536124807893,0.944766225816506),.UNSPECIFIED.);
#48=B_SPLINE_CURVE_WITH_KNOTS('',3,(#252,#253,#254,#255,#256,#257,#258,
#259,#260,#261),.UNSPECIFIED.,.F.,.F.,(4,2,2,2,4),(0.377906490326603,0.42515301189964,
0.472399533472677,0.519629634481291,0.566859735489904),.UNSPECIFIED.);
#49=B_SPLINE_CURVE_WITH_KNOTS('',3,(#265,#266,#267,#268,#269,#270,#271,
#272,#273,#274,#275,#276,#277,#278,#279,#280,#281,#282),.UNSPECIFIED.,.F.,
 .F.,(4,2,2,2,2,2,2,2,4),(0.,0.0472465215730375,0.094493043146075,0.141723144154688,
0.188953245163301,0.236183346171914,0.283413447180527,0.330659968753565,
0.377906490326602),.UNSPECIFIED.);
#50=B_SPLINE_CURVE_WITH_KNOTS('',3,(#283,#284,#285,#286,#287,#288,#289,
#290,#291,#292,#293,#294,#295,#296,#297,#298,#299,#300),.UNSPECIFIED.,.F.,
 .F.,(4,2,2,2,2,2,2,2,4),(0.377906490326602,0.42515301189964,0.472399533472677,
0.51962963448129,0.566859735489904,0.614089836498517,0.66131993750713,0.708566459080167,
0.755812980653205),.UNSPECIFIED.);
#51=B_SPLINE_CURVE_WITH_KNOTS('',3,(#302,#303,#304,#305,#306,#307,#308,
#309,#310,#311),.UNSPECIFIED.,.F.,.F.,(4,2,2,2,4),(0.944766225816506,0.991996326825119,
1.03922642783373,1.08647294940677,1.13371947097981),.UNSPECIFIED.);
#52=B_SPLINE_CURVE_WITH_KNOTS('',3,(#312,#313,#314,#315,#316,#317,#318,
#319,#320,#321,#322,#323,#324,#325,#326,#327,#328,#329,#330),
 .UNSPECIFIED.,.F.,.F.,(4,2,2,2,3,2,2,2,4),(0.566859735489904,0.614089836498517,
0.66131993750713,0.708566459080167,0.755812980653205,0.803059502226242,
0.85030602379928,0.897536124807893,0.944766225816506),.UNSPECIFIED.);
#53=VERTEX_POINT('',#168);
#54=VERTEX_POINT('',#169);
#55=VERTEX_POINT('',#180);
#56=VERTEX_POINT('',#182);
#57=VERTEX_POINT('',#219);
#58=VERTEX_POINT('',#250);
#59=VERTEX_POINT('',#251);
#60=VERTEX_POINT('',#262);
#61=VERTEX_POINT('',#264);
#62=VERTEX_POINT('',#301);
#63=VERTEX_POINT('',#332);
#64=VERTEX_POINT('',#336);
#65=EDGE_CURVE('',#53,#54,#43,.T.);
#66=EDGE_CURVE('',#53,#55,#33,.T.);
#67=EDGE_CURVE('',#56,#55,#44,.T.);
#68=EDGE_CURVE('',#55,#56,#45,.T.);
#69=EDGE_CURVE('',#57,#53,#46,.T.);
#70=EDGE_CURVE('',#54,#57,#47,.T.);
#71=EDGE_CURVE('',#58,#59,#48,.T.);
#72=EDGE_CURVE('',#58,#60,#34,.T.);
#73=EDGE_CURVE('',#61,#60,#49,.T.);
#74=EDGE_CURVE('',#60,#61,#50,.T.);
#75=EDGE_CURVE('',#62,#58,#51,.T.);
#76=EDGE_CURVE('',#59,#62,#52,.T.);
#77=EDGE_CURVE('',#63,#63,#19,.T.);
#78=EDGE_CURVE('',#63,#62,#35,.T.);
#79=EDGE_CURVE('',#59,#57,#36,.T.);
#80=EDGE_CURVE('',#54,#64,#37,.T.);
#81=EDGE_CURVE('',#64,#64,#20,.T.);
#82=ORIENTED_EDGE('',*,*,#65,.F.);
#83=ORIENTED_EDGE('',*,*,#66,.T.);
#84=ORIENTED_EDGE('',*,*,#67,.F.);
#85=ORIENTED_EDGE('',*,*,#68,.F.);
#86=ORIENTED_EDGE('',*,*,#66,.F.);
#87=ORIENTED_EDGE('',*,*,#69,.F.);
#88=ORIENTED_EDGE('',*,*,#70,.F.);
#89=ORIENTED_EDGE('',*,*,#71,.F.);
#90=ORIENTED_EDGE('',*,*,#72,.T.);
#91=ORIENTED_EDGE('',*,*,#73,.F.);
#92=ORIENTED_EDGE('',*,*,#74,.F.);
#93=ORIENTED_EDGE('',*,*,#72,.F.);
#94=ORIENTED_EDGE('',*,*,#75,.F.);
#95=ORIENTED_EDGE('',*,*,#76,.F.);
#96=ORIENTED_EDGE('',*,*,#77,.F.);
#97=ORIENTED_EDGE('',*,*,#78,.T.);
#98=ORIENTED_EDGE('',*,*,#75,.T.);
#99=ORIENTED_EDGE('',*,*,#71,.T.);
#100=ORIENTED_EDGE('',*,*,#79,.T.);
#101=ORIENTED_EDGE('',*,*,#69,.T.);
#102=ORIENTED_EDGE('',*,*,#65,.T.);
#103=ORIENTED_EDGE('',*,*,#80,.T.);
#104=ORIENTED_EDGE('',*,*,#81,.T.);
#105=ORIENTED_EDGE('',*,*,#80,.F.);
#106=ORIENTED_EDGE('',*,*,#70,.T.);
#107=ORIENTED_EDGE('',*,*,#79,.F.);
#108=ORIENTED_EDGE('',*,*,#76,.T.);
#109=ORIENTED_EDGE('',*,*,#78,.F.);
#110=ORIENTED_EDGE('',*,*,#67,.T.);
#111=ORIENTED_EDGE('',*,*,#68,.T.);
#112=ORIENTED_EDGE('',*,*,#73,.T.);
#113=ORIENTED_EDGE('',*,*,#74,.T.);
#114=ORIENTED_EDGE('',*,*,#77,.T.);
#115=ORIENTED_EDGE('',*,*,#81,.F.);
#116=CYLINDRICAL_SURFACE('',#138,1.245);
#117=CYLINDRICAL_SURFACE('',#139,1.245);
#118=CYLINDRICAL_SURFACE('',#140,4.);
#119=ADVANCED_FACE('',(#21),#116,.F.);
#120=ADVANCED_FACE('',(#22),#117,.F.);
#121=ADVANCED_FACE('',(#23,#17,#18),#118,.T.);
#122=ADVANCED_FACE('',(#24),#15,.T.);
#123=ADVANCED_FACE('',(#25),#16,.F.);
#124=CLOSED_SHELL('',(#119,#120,#121,#122,#123));
#125=DERIVED_UNIT_ELEMENT(#127,1.);
#126=DERIVED_UNIT_ELEMENT(#346,-3.);
#127=(
MASS_UNIT()
NAMED_UNIT(*)
SI_UNIT(.KILO.,.GRAM.)
);
#128=DERIVED_UNIT((#125,#126));
#129=MEASURE_REPRESENTATION_ITEM('density measure',
POSITIVE_RATIO_MEASURE(7850.),#128);
#130=PROPERTY_DEFINITION_REPRESENTATION(#135,#132);
#131=PROPERTY_DEFINITION_REPRESENTATION(#136,#133);
#132=REPRESENTATION('material name',(#134),#343);
#133=REPRESENTATION('density',(#129),#343);
#134=DESCRIPTIVE_REPRESENTATION_ITEM('Steel','Steel');
#135=PROPERTY_DEFINITION('material property','material name',#353);
#136=PROPERTY_DEFINITION('material property','density of part',#353);
#137=AXIS2_PLACEMENT_3D('',#166,#145,#146);
#138=AXIS2_PLACEMENT_3D('',#167,#147,#148);
#139=AXIS2_PLACEMENT_3D('',#249,#150,#151);
#140=AXIS2_PLACEMENT_3D('',#331,#153,#154);
#141=AXIS2_PLACEMENT_3D('',#333,#155,#156);
#142=AXIS2_PLACEMENT_3D('',#338,#160,#161);
#143=AXIS2_PLACEMENT_3D('',#339,#162,#163);
#144=AXIS2_PLACEMENT_3D('',#340,#164,#165);
#145=DIRECTION('axis',(0.,0.,1.));
#146=DIRECTION('refdir',(1.,0.,0.));
#147=DIRECTION('center_axis',(1.,0.,0.));
#148=DIRECTION('ref_axis',(0.,0.,-1.));
#149=DIRECTION('',(1.,0.,0.));
#150=DIRECTION('center_axis',(1.,0.,0.));
#151=DIRECTION('ref_axis',(0.,0.,-1.));
#152=DIRECTION('',(1.,0.,0.));
#153=DIRECTION('center_axis',(0.,1.,0.));
#154=DIRECTION('ref_axis',(1.,0.,0.));
#155=DIRECTION('center_axis',(0.,1.,0.));
#156=DIRECTION('ref_axis',(1.,0.,0.));
#157=DIRECTION('',(0.,-1.,0.));
#158=DIRECTION('',(0.,-1.,0.));
#159=DIRECTION('',(0.,-1.,0.));
#160=DIRECTION('center_axis',(0.,1.,0.));
#161=DIRECTION('ref_axis',(1.,0.,0.));
#162=DIRECTION('center_axis',(0.,1.,0.));
#163=DIRECTION('ref_axis',(1.,0.,0.));
#164=DIRECTION('center_axis',(0.,1.,0.));
#165=DIRECTION('ref_axis',(1.,0.,0.));
#166=CARTESIAN_POINT('',(0.,0.,0.));
#167=CARTESIAN_POINT('Origin',(0.,4.5,0.));
#168=CARTESIAN_POINT('',(-3.80131227341296,4.5,1.245));
#169=CARTESIAN_POINT('',(-4.,3.255,3.14318298868543E-16));
#170=CARTESIAN_POINT('Ctrl Pts',(-3.80131227341296,4.5,1.245));
#171=CARTESIAN_POINT('Ctrl Pts',(-3.80131227341296,4.34251159475654,1.245));
#172=CARTESIAN_POINT('Ctrl Pts',(-3.81212512319821,4.17530480584964,1.21331068635109));
#173=CARTESIAN_POINT('Ctrl Pts',(-3.85034344486019,3.86891040849966,1.08594472432409));
#174=CARTESIAN_POINT('Ctrl Pts',(-3.87710957085968,3.7296224868756,0.990318372030099));
#175=CARTESIAN_POINT('Ctrl Pts',(-3.92672380840994,3.50971984827611,0.770415733430609));
#176=CARTESIAN_POINT('Ctrl Pts',(-3.95291223800932,3.41406395465004,0.631112380402745));
#177=CARTESIAN_POINT('Ctrl Pts',(-3.98978857718004,3.28667611232593,0.324661526120327));
#178=CARTESIAN_POINT('Ctrl Pts',(-4.,3.255,0.157433670028711));
#179=CARTESIAN_POINT('Ctrl Pts',(-4.,3.255,3.46944695195361E-16));
#180=CARTESIAN_POINT('',(3.80131227341296,4.5,1.245));
#181=CARTESIAN_POINT('',(0.,4.5,1.245));
#182=CARTESIAN_POINT('',(3.80131227341296,4.5,-1.245));
#183=CARTESIAN_POINT('Ctrl Pts',(3.80131227341296,4.5,-1.245));
#184=CARTESIAN_POINT('Ctrl Pts',(3.80131227341296,4.34251159475654,-1.245));
#185=CARTESIAN_POINT('Ctrl Pts',(3.81212512319821,4.17530480584964,-1.21331068635109));
#186=CARTESIAN_POINT('Ctrl Pts',(3.85034344486019,3.86891040849966,-1.08594472432409));
#187=CARTESIAN_POINT('Ctrl Pts',(3.87710957085968,3.7296224868756,-0.9903183720301));
#188=CARTESIAN_POINT('Ctrl Pts',(3.92672380840994,3.5097198482761,-0.770415733430609));
#189=CARTESIAN_POINT('Ctrl Pts',(3.95291223800932,3.41406395465004,-0.631112380402744));
#190=CARTESIAN_POINT('Ctrl Pts',(3.98978857718004,3.28667611232593,-0.324661526120326));
#191=CARTESIAN_POINT('Ctrl Pts',(4.,3.255,-0.15743367002871));
#192=CARTESIAN_POINT('Ctrl Pts',(4.,3.255,0.157433670028711));
#193=CARTESIAN_POINT('Ctrl Pts',(3.98978857718004,3.28667611232593,0.324661526120327));
#194=CARTESIAN_POINT('Ctrl Pts',(3.95291223800932,3.41406395465004,0.631112380402745));
#195=CARTESIAN_POINT('Ctrl Pts',(3.92672380840994,3.50971984827611,0.770415733430609));
#196=CARTESIAN_POINT('Ctrl Pts',(3.87710957085968,3.7296224868756,0.990318372030099));
#197=CARTESIAN_POINT('Ctrl Pts',(3.85034344486019,3.86891040849966,1.08594472432409));
#198=CARTESIAN_POINT('Ctrl Pts',(3.81212512319821,4.17530480584964,1.21331068635109));
#199=CARTESIAN_POINT('Ctrl Pts',(3.80131227341296,4.34251159475654,1.245));
#200=CARTESIAN_POINT('Ctrl Pts',(3.80131227341296,4.5,1.245));
#201=CARTESIAN_POINT('Ctrl Pts',(3.80131227341296,4.5,1.245));
#202=CARTESIAN_POINT('Ctrl Pts',(3.80131227341296,4.65748840524346,1.245));
#203=CARTESIAN_POINT('Ctrl Pts',(3.81212512319821,4.82469519415036,1.21331068635109));
#204=CARTESIAN_POINT('Ctrl Pts',(3.85034344486019,5.13108959150034,1.08594472432409));
#205=CARTESIAN_POINT('Ctrl Pts',(3.87710957085968,5.27037751312441,0.990318372030099));
#206=CARTESIAN_POINT('Ctrl Pts',(3.92672380840994,5.49028015172389,0.770415733430608));
#207=CARTESIAN_POINT('Ctrl Pts',(3.95291223800932,5.58593604534996,0.631112380402744));
#208=CARTESIAN_POINT('Ctrl Pts',(3.98978857718004,5.71332388767407,0.324661526120327));
#209=CARTESIAN_POINT('Ctrl Pts',(4.,5.745,0.15743367002871));
#210=CARTESIAN_POINT('Ctrl Pts',(4.,5.745,-0.15743367002871));
#211=CARTESIAN_POINT('Ctrl Pts',(3.98978857718004,5.71332388767407,-0.324661526120327));
#212=CARTESIAN_POINT('Ctrl Pts',(3.95291223800932,5.58593604534996,-0.631112380402744));
#213=CARTESIAN_POINT('Ctrl Pts',(3.92672380840994,5.49028015172389,-0.770415733430609));
#214=CARTESIAN_POINT('Ctrl Pts',(3.87710957085968,5.27037751312441,-0.990318372030099));
#215=CARTESIAN_POINT('Ctrl Pts',(3.85034344486019,5.13108959150034,-1.08594472432409));
#216=CARTESIAN_POINT('Ctrl Pts',(3.81212512319821,4.82469519415036,-1.21331068635109));
#217=CARTESIAN_POINT('Ctrl Pts',(3.80131227341296,4.65748840524346,-1.245));
#218=CARTESIAN_POINT('Ctrl Pts',(3.80131227341296,4.5,-1.245));
#219=CARTESIAN_POINT('',(-4.,5.745,3.67625427122538E-17));
#220=CARTESIAN_POINT('Ctrl Pts',(-4.,5.745,-1.73472347597681E-16));
#221=CARTESIAN_POINT('Ctrl Pts',(-4.,5.745,0.15743367002871));
#222=CARTESIAN_POINT('Ctrl Pts',(-3.98978857718004,5.71332388767407,0.324661526120327));
#223=CARTESIAN_POINT('Ctrl Pts',(-3.95291223800932,5.58593604534996,0.631112380402744));
#224=CARTESIAN_POINT('Ctrl Pts',(-3.92672380840994,5.49028015172389,0.770415733430608));
#225=CARTESIAN_POINT('Ctrl Pts',(-3.87710957085968,5.27037751312441,0.990318372030099));
#226=CARTESIAN_POINT('Ctrl Pts',(-3.85034344486019,5.13108959150034,1.08594472432409));
#227=CARTESIAN_POINT('Ctrl Pts',(-3.81212512319821,4.82469519415036,1.21331068635109));
#228=CARTESIAN_POINT('Ctrl Pts',(-3.80131227341296,4.65748840524346,1.245));
#229=CARTESIAN_POINT('Ctrl Pts',(-3.80131227341296,4.5,1.245));
#230=CARTESIAN_POINT('Ctrl Pts',(-4.,3.255,1.38777878078145E-16));
#231=CARTESIAN_POINT('Ctrl Pts',(-4.,3.255,-0.15743367002871));
#232=CARTESIAN_POINT('Ctrl Pts',(-3.98978857718004,3.28667611232593,-0.324661526120326));
#233=CARTESIAN_POINT('Ctrl Pts',(-3.95291223800932,3.41406395465004,-0.631112380402744));
#234=CARTESIAN_POINT('Ctrl Pts',(-3.92672380840994,3.5097198482761,-0.770415733430609));
#235=CARTESIAN_POINT('Ctrl Pts',(-3.87710957085968,3.7296224868756,-0.9903183720301));
#236=CARTESIAN_POINT('Ctrl Pts',(-3.85034344486019,3.86891040849966,-1.08594472432409));
#237=CARTESIAN_POINT('Ctrl Pts',(-3.81212512319821,4.17530480584964,-1.21331068635109));
#238=CARTESIAN_POINT('Ctrl Pts',(-3.80131227341296,4.34251159475654,-1.245));
#239=CARTESIAN_POINT('Ctrl Pts',(-3.80131227341296,4.5,-1.245));
#240=CARTESIAN_POINT('Ctrl Pts',(-3.80131227341296,4.65748840524346,-1.245));
#241=CARTESIAN_POINT('Ctrl Pts',(-3.81212512319821,4.82469519415036,-1.21331068635109));
#242=CARTESIAN_POINT('Ctrl Pts',(-3.85034344486019,5.13108959150034,-1.08594472432409));
#243=CARTESIAN_POINT('Ctrl Pts',(-3.87710957085968,5.27037751312441,-0.990318372030099));
#244=CARTESIAN_POINT('Ctrl Pts',(-3.92672380840994,5.49028015172389,-0.770415733430609));
#245=CARTESIAN_POINT('Ctrl Pts',(-3.95291223800932,5.58593604534996,-0.631112380402744));
#246=CARTESIAN_POINT('Ctrl Pts',(-3.98978857718004,5.71332388767407,-0.324661526120327));
#247=CARTESIAN_POINT('Ctrl Pts',(-4.,5.745,-0.15743367002871));
#248=CARTESIAN_POINT('Ctrl Pts',(-4.,5.745,-1.38777878078145E-16));
#249=CARTESIAN_POINT('Origin',(0.,9.5,0.));
#250=CARTESIAN_POINT('',(-3.80131227341296,9.5,1.245));
#251=CARTESIAN_POINT('',(-4.,8.255,3.49012768388079E-16));
#252=CARTESIAN_POINT('Ctrl Pts',(-3.80131227341296,9.5,1.245));
#253=CARTESIAN_POINT('Ctrl Pts',(-3.80131227341296,9.34251159475654,1.245));
#254=CARTESIAN_POINT('Ctrl Pts',(-3.81212512319821,9.17530480584964,1.21331068635109));
#255=CARTESIAN_POINT('Ctrl Pts',(-3.85034344486019,8.86891040849966,1.08594472432409));
#256=CARTESIAN_POINT('Ctrl Pts',(-3.87710957085968,8.72962248687559,0.990318372030099));
#257=CARTESIAN_POINT('Ctrl Pts',(-3.92672380840994,8.50971984827611,0.770415733430608));
#258=CARTESIAN_POINT('Ctrl Pts',(-3.95291223800932,8.41406395465004,0.631112380402744));
#259=CARTESIAN_POINT('Ctrl Pts',(-3.98978857718004,8.28667611232593,0.324661526120327));
#260=CARTESIAN_POINT('Ctrl Pts',(-4.,8.255,0.157433670028711));
#261=CARTESIAN_POINT('Ctrl Pts',(-4.,8.255,1.73472347597681E-16));
#262=CARTESIAN_POINT('',(3.80131227341296,9.5,1.245));
#263=CARTESIAN_POINT('',(0.,9.5,1.245));
#264=CARTESIAN_POINT('',(3.80131227341296,9.5,-1.245));
#265=CARTESIAN_POINT('Ctrl Pts',(3.80131227341296,9.5,-1.245));
#266=CARTESIAN_POINT('Ctrl Pts',(3.80131227341296,9.34251159475654,-1.245));
#267=CARTESIAN_POINT('Ctrl Pts',(3.81212512319821,9.17530480584964,-1.21331068635109));
#268=CARTESIAN_POINT('Ctrl Pts',(3.85034344486019,8.86891040849966,-1.08594472432409));
#269=CARTESIAN_POINT('Ctrl Pts',(3.87710957085968,8.72962248687559,-0.990318372030098));
#270=CARTESIAN_POINT('Ctrl Pts',(3.92672380840994,8.5097198482761,-0.770415733430608));
#271=CARTESIAN_POINT('Ctrl Pts',(3.95291223800932,8.41406395465004,-0.631112380402743));
#272=CARTESIAN_POINT('Ctrl Pts',(3.98978857718004,8.28667611232593,-0.324661526120326));
#273=CARTESIAN_POINT('Ctrl Pts',(4.,8.255,-0.15743367002871));
#274=CARTESIAN_POINT('Ctrl Pts',(4.,8.255,0.157433670028711));
#275=CARTESIAN_POINT('Ctrl Pts',(3.98978857718004,8.28667611232593,0.324661526120327));
#276=CARTESIAN_POINT('Ctrl Pts',(3.95291223800932,8.41406395465004,0.631112380402744));
#277=CARTESIAN_POINT('Ctrl Pts',(3.92672380840994,8.50971984827611,0.770415733430608));
#278=CARTESIAN_POINT('Ctrl Pts',(3.87710957085968,8.72962248687559,0.990318372030099));
#279=CARTESIAN_POINT('Ctrl Pts',(3.85034344486019,8.86891040849966,1.08594472432409));
#280=CARTESIAN_POINT('Ctrl Pts',(3.81212512319821,9.17530480584964,1.21331068635109));
#281=CARTESIAN_POINT('Ctrl Pts',(3.80131227341296,9.34251159475654,1.245));
#282=CARTESIAN_POINT('Ctrl Pts',(3.80131227341296,9.5,1.245));
#283=CARTESIAN_POINT('Ctrl Pts',(3.80131227341296,9.5,1.245));
#284=CARTESIAN_POINT('Ctrl Pts',(3.80131227341296,9.65748840524346,1.245));
#285=CARTESIAN_POINT('Ctrl Pts',(3.81212512319821,9.82469519415035,1.21331068635109));
#286=CARTESIAN_POINT('Ctrl Pts',(3.85034344486019,10.1310895915003,1.08594472432409));
#287=CARTESIAN_POINT('Ctrl Pts',(3.87710957085968,10.2703775131244,0.9903183720301));
#288=CARTESIAN_POINT('Ctrl Pts',(3.92672380840994,10.4902801517239,0.770415733430609));
#289=CARTESIAN_POINT('Ctrl Pts',(3.95291223800932,10.58593604535,0.631112380402745));
#290=CARTESIAN_POINT('Ctrl Pts',(3.98978857718004,10.7133238876741,0.324661526120328));
#291=CARTESIAN_POINT('Ctrl Pts',(4.,10.745,0.157433670028711));
#292=CARTESIAN_POINT('Ctrl Pts',(4.,10.745,-0.157433670028711));
#293=CARTESIAN_POINT('Ctrl Pts',(3.98978857718004,10.7133238876741,-0.324661526120327));
#294=CARTESIAN_POINT('Ctrl Pts',(3.95291223800932,10.58593604535,-0.631112380402745));
#295=CARTESIAN_POINT('Ctrl Pts',(3.92672380840994,10.4902801517239,-0.770415733430609));
#296=CARTESIAN_POINT('Ctrl Pts',(3.87710957085968,10.2703775131244,-0.9903183720301));
#297=CARTESIAN_POINT('Ctrl Pts',(3.85034344486019,10.1310895915003,-1.08594472432409));
#298=CARTESIAN_POINT('Ctrl Pts',(3.81212512319821,9.82469519415035,-1.21331068635109));
#299=CARTESIAN_POINT('Ctrl Pts',(3.80131227341296,9.65748840524346,-1.245));
#300=CARTESIAN_POINT('Ctrl Pts',(3.80131227341296,9.5,-1.245));
#301=CARTESIAN_POINT('',(-4.,10.745,6.26568524544368E-16));
#302=CARTESIAN_POINT('Ctrl Pts',(-4.,10.745,1.38777878078145E-16));
#303=CARTESIAN_POINT('Ctrl Pts',(-4.,10.745,0.157433670028711));
#304=CARTESIAN_POINT('Ctrl Pts',(-3.98978857718004,10.7133238876741,0.324661526120327));
#305=CARTESIAN_POINT('Ctrl Pts',(-3.95291223800932,10.58593604535,0.631112380402745));
#306=CARTESIAN_POINT('Ctrl Pts',(-3.92672380840994,10.4902801517239,0.770415733430609));
#307=CARTESIAN_POINT('Ctrl Pts',(-3.87710957085968,10.2703775131244,0.9903183720301));
#308=CARTESIAN_POINT('Ctrl Pts',(-3.85034344486019,10.1310895915003,1.08594472432409));
#309=CARTESIAN_POINT('Ctrl Pts',(-3.81212512319821,9.82469519415035,1.2133106863511));
#310=CARTESIAN_POINT('Ctrl Pts',(-3.80131227341296,9.65748840524346,1.245));
#311=CARTESIAN_POINT('Ctrl Pts',(-3.80131227341296,9.5,1.245));
#312=CARTESIAN_POINT('Ctrl Pts',(-4.,8.255,1.73472347597681E-16));
#313=CARTESIAN_POINT('Ctrl Pts',(-4.,8.255,-0.15743367002871));
#314=CARTESIAN_POINT('Ctrl Pts',(-3.98978857718004,8.28667611232593,-0.324661526120327));
#315=CARTESIAN_POINT('Ctrl Pts',(-3.95291223800932,8.41406395465004,-0.631112380402744));
#316=CARTESIAN_POINT('Ctrl Pts',(-3.92672380840994,8.5097198482761,-0.770415733430608));
#317=CARTESIAN_POINT('Ctrl Pts',(-3.87710957085968,8.72962248687559,-0.990318372030098));
#318=CARTESIAN_POINT('Ctrl Pts',(-3.85034344486019,8.86891040849966,-1.08594472432409));
#319=CARTESIAN_POINT('Ctrl Pts',(-3.81212512319821,9.17530480584964,-1.21331068635109));
#320=CARTESIAN_POINT('Ctrl Pts',(-3.80131227341296,9.34251159475654,-1.245));
#321=CARTESIAN_POINT('Ctrl Pts',(-3.80131227341296,9.5,-1.245));
#322=CARTESIAN_POINT('Ctrl Pts',(-3.80131227341296,9.65748840524346,-1.245));
#323=CARTESIAN_POINT('Ctrl Pts',(-3.81212512319821,9.82469519415035,-1.21331068635109));
#324=CARTESIAN_POINT('Ctrl Pts',(-3.85034344486019,10.1310895915003,-1.08594472432409));
#325=CARTESIAN_POINT('Ctrl Pts',(-3.87710957085968,10.2703775131244,-0.9903183720301));
#326=CARTESIAN_POINT('Ctrl Pts',(-3.92672380840994,10.4902801517239,-0.770415733430609));
#327=CARTESIAN_POINT('Ctrl Pts',(-3.95291223800932,10.58593604535,-0.631112380402745));
#328=CARTESIAN_POINT('Ctrl Pts',(-3.98978857718004,10.7133238876741,-0.324661526120328));
#329=CARTESIAN_POINT('Ctrl Pts',(-4.,10.745,-0.157433670028711));
#330=CARTESIAN_POINT('Ctrl Pts',(-4.,10.745,3.46944695195361E-17));
#331=CARTESIAN_POINT('Origin',(0.,0.,0.));
#332=CARTESIAN_POINT('',(-4.,200.,4.89858719658941E-16));
#333=CARTESIAN_POINT('Origin',(0.,200.,0.));
#334=CARTESIAN_POINT('',(-4.,0.,4.89858719658941E-16));
#335=CARTESIAN_POINT('',(-4.,0.,4.89858719658941E-16));
#336=CARTESIAN_POINT('',(-4.,0.,4.89858719658941E-16));
#337=CARTESIAN_POINT('',(-4.,0.,4.89858719658941E-16));
#338=CARTESIAN_POINT('Origin',(0.,0.,0.));
#339=CARTESIAN_POINT('Origin',(0.,200.,0.));
#340=CARTESIAN_POINT('Origin',(0.,0.,0.));
#341=UNCERTAINTY_MEASURE_WITH_UNIT(LENGTH_MEASURE(0.01),#345,
'DISTANCE_ACCURACY_VALUE',
'Maximum model space distance between geometric entities at asserted c
onnectivities');
#342=UNCERTAINTY_MEASURE_WITH_UNIT(LENGTH_MEASURE(0.01),#345,
'DISTANCE_ACCURACY_VALUE',
'Maximum model space distance between geometric entities at asserted c
onnectivities');
#343=(
GEOMETRIC_REPRESENTATION_CONTEXT(3)
GLOBAL_UNCERTAINTY_ASSIGNED_CONTEXT((#341))
GLOBAL_UNIT_ASSIGNED_CONTEXT((#345,#347,#348))
REPRESENTATION_CONTEXT('','3D')
);
#344=(
GEOMETRIC_REPRESENTATION_CONTEXT(3)
GLOBAL_UNCERTAINTY_ASSIGNED_CONTEXT((#342))
GLOBAL_UNIT_ASSIGNED_CONTEXT((#345,#347,#348))
REPRESENTATION_CONTEXT('','3D')
);
#345=(
LENGTH_UNIT()
NAMED_UNIT(*)
SI_UNIT(.MILLI.,.METRE.)
);
#346=(
LENGTH_UNIT()
NAMED_UNIT(*)
SI_UNIT($,.METRE.)
);
#347=(
NAMED_UNIT(*)
PLANE_ANGLE_UNIT()
SI_UNIT($,.RADIAN.)
);
#348=(
NAMED_UNIT(*)
SI_UNIT($,.STERADIAN.)
SOLID_ANGLE_UNIT()
);
#349=SHAPE_DEFINITION_REPRESENTATION(#350,#351);
#350=PRODUCT_DEFINITION_SHAPE('',$,#353);
#351=SHAPE_REPRESENTATION('',(#137),#343);
#352=PRODUCT_DEFINITION_CONTEXT('part definition',#357,'design');
#353=PRODUCT_DEFINITION('2026-08-30-02-17-07-700','8mm shaft',#354,#352);
#354=PRODUCT_DEFINITION_FORMATION('',$,#359);
#355=PRODUCT_RELATED_PRODUCT_CATEGORY('8mm shaft','8mm shaft',(#359));
#356=APPLICATION_PROTOCOL_DEFINITION('international standard',
'automotive_design',2009,#357);
#357=APPLICATION_CONTEXT(
'Core Data for Automotive Mechanical Design Process');
#358=PRODUCT_CONTEXT('part definition',#357,'mechanical');
#359=PRODUCT('2026-08-30-02-17-07-700','8mm shaft',$,(#358));
#360=PRESENTATION_STYLE_ASSIGNMENT((#361));
#361=SURFACE_STYLE_USAGE(.BOTH.,#362);
#362=SURFACE_SIDE_STYLE('',(#363));
#363=SURFACE_STYLE_FILL_AREA(#364);
#364=FILL_AREA_STYLE('Steel - Satin',(#365));
#365=FILL_AREA_STYLE_COLOUR('Steel - Satin',#366);
#366=COLOUR_RGB('Steel - Satin',0.627450980392157,0.627450980392157,0.627450980392157);
ENDSEC;
END-ISO-10303-21;
