ISO-10303-21;
HEADER;
/* Generated by software containing ST-Developer
 * from STEP Tools, Inc. (www.steptools.com) 
 */

FILE_DESCRIPTION(
/* description */ (''),
/* implementation_level */ '2;1');

FILE_NAME(
/* name */ 'motor_mount.step',
/* time_stamp */ '2026-10-07T21:06:43-07:00',
/* author */ (''),
/* organization */ (''),
/* preprocessor_version */ 'ST-DEVELOPER v20.2',
/* originating_system */ 'Autodesk Translation Framework v15.15.0.0',
/* authorisation */ '');

FILE_SCHEMA (('AUTOMOTIVE_DESIGN { 1 0 10303 214 3 1 1 }'));
ENDSEC;

DATA;
#10=MECHANICAL_DESIGN_GEOMETRIC_PRESENTATION_REPRESENTATION('',(#13),#1463);
#11=SHAPE_REPRESENTATION_RELATIONSHIP('SRR','None',#1473,#12);
#12=ADVANCED_BREP_SHAPE_REPRESENTATION('',(#14),#1462);
#13=STYLED_ITEM('',(#1482),#14);
#14=MANIFOLD_SOLID_BREP('Body1',#839);
#15=ELLIPSE('',#920,0.111355398612055,0.078740157480315);
#16=ELLIPSE('',#921,0.111355398612055,0.078740157480315);
#17=ELLIPSE('',#923,0.111355398612055,0.078740157480315);
#18=ELLIPSE('',#925,0.111355398612055,0.078740157480315);
#19=FACE_BOUND('',#113,.T.);
#20=FACE_BOUND('',#114,.T.);
#21=FACE_BOUND('',#115,.T.);
#22=FACE_BOUND('',#116,.T.);
#23=FACE_BOUND('',#130,.T.);
#24=FACE_BOUND('',#131,.T.);
#25=FACE_BOUND('',#135,.T.);
#26=FACE_BOUND('',#136,.T.);
#27=FACE_BOUND('',#149,.T.);
#28=FACE_BOUND('',#150,.T.);
#29=FACE_BOUND('',#151,.T.);
#30=FACE_BOUND('',#152,.T.);
#31=FACE_BOUND('',#160,.T.);
#32=FACE_BOUND('',#162,.T.);
#33=FACE_BOUND('',#164,.T.);
#34=FACE_BOUND('',#166,.T.);
#35=FACE_BOUND('',#168,.T.);
#36=FACE_BOUND('',#169,.T.);
#37=FACE_BOUND('',#171,.T.);
#38=FACE_BOUND('',#172,.T.);
#39=PLANE('',#870);
#40=PLANE('',#897);
#41=PLANE('',#905);
#42=PLANE('',#910);
#43=PLANE('',#911);
#44=PLANE('',#918);
#45=PLANE('',#927);
#46=PLANE('',#929);
#47=PLANE('',#932);
#48=PLANE('',#934);
#49=PLANE('',#939);
#50=PLANE('',#940);
#51=PLANE('',#949);
#52=PLANE('',#950);
#53=PLANE('',#951);
#54=PLANE('',#952);
#55=PLANE('',#953);
#56=PLANE('',#954);
#57=TOROIDAL_SURFACE('',#865,0.137795275590551,0.0196850393700787);
#58=TOROIDAL_SURFACE('',#876,0.137795275590551,0.0196850393700787);
#59=TOROIDAL_SURFACE('',#882,0.137795275590551,0.0196850393700787);
#60=TOROIDAL_SURFACE('',#888,0.137795275590551,0.0196850393700787);
#61=FACE_OUTER_BOUND('',#107,.T.);
#62=FACE_OUTER_BOUND('',#108,.T.);
#63=FACE_OUTER_BOUND('',#109,.T.);
#64=FACE_OUTER_BOUND('',#110,.T.);
#65=FACE_OUTER_BOUND('',#111,.T.);
#66=FACE_OUTER_BOUND('',#112,.T.);
#67=FACE_OUTER_BOUND('',#117,.T.);
#68=FACE_OUTER_BOUND('',#118,.T.);
#69=FACE_OUTER_BOUND('',#119,.T.);
#70=FACE_OUTER_BOUND('',#120,.T.);
#71=FACE_OUTER_BOUND('',#121,.T.);
#72=FACE_OUTER_BOUND('',#122,.T.);
#73=FACE_OUTER_BOUND('',#123,.T.);
#74=FACE_OUTER_BOUND('',#124,.T.);
#75=FACE_OUTER_BOUND('',#125,.T.);
#76=FACE_OUTER_BOUND('',#126,.T.);
#77=FACE_OUTER_BOUND('',#127,.T.);
#78=FACE_OUTER_BOUND('',#128,.T.);
#79=FACE_OUTER_BOUND('',#129,.T.);
#80=FACE_OUTER_BOUND('',#132,.T.);
#81=FACE_OUTER_BOUND('',#133,.T.);
#82=FACE_OUTER_BOUND('',#134,.T.);
#83=FACE_OUTER_BOUND('',#137,.T.);
#84=FACE_OUTER_BOUND('',#138,.T.);
#85=FACE_OUTER_BOUND('',#139,.T.);
#86=FACE_OUTER_BOUND('',#140,.T.);
#87=FACE_OUTER_BOUND('',#141,.T.);
#88=FACE_OUTER_BOUND('',#142,.T.);
#89=FACE_OUTER_BOUND('',#143,.T.);
#90=FACE_OUTER_BOUND('',#144,.T.);
#91=FACE_OUTER_BOUND('',#145,.T.);
#92=FACE_OUTER_BOUND('',#146,.T.);
#93=FACE_OUTER_BOUND('',#147,.T.);
#94=FACE_OUTER_BOUND('',#148,.T.);
#95=FACE_OUTER_BOUND('',#153,.T.);
#96=FACE_OUTER_BOUND('',#154,.T.);
#97=FACE_OUTER_BOUND('',#155,.T.);
#98=FACE_OUTER_BOUND('',#156,.T.);
#99=FACE_OUTER_BOUND('',#157,.T.);
#100=FACE_OUTER_BOUND('',#158,.T.);
#101=FACE_OUTER_BOUND('',#159,.T.);
#102=FACE_OUTER_BOUND('',#161,.T.);
#103=FACE_OUTER_BOUND('',#163,.T.);
#104=FACE_OUTER_BOUND('',#165,.T.);
#105=FACE_OUTER_BOUND('',#167,.T.);
#106=FACE_OUTER_BOUND('',#170,.T.);
#107=EDGE_LOOP('',(#537,#538,#539,#540));
#108=EDGE_LOOP('',(#541,#542,#543,#544));
#109=EDGE_LOOP('',(#545,#546,#547,#548));
#110=EDGE_LOOP('',(#549,#550,#551,#552));
#111=EDGE_LOOP('',(#553,#554,#555,#556,#557));
#112=EDGE_LOOP('',(#558,#559,#560,#561));
#113=EDGE_LOOP('',(#562));
#114=EDGE_LOOP('',(#563));
#115=EDGE_LOOP('',(#564));
#116=EDGE_LOOP('',(#565));
#117=EDGE_LOOP('',(#566,#567,#568,#569,#570));
#118=EDGE_LOOP('',(#571,#572,#573,#574,#575));
#119=EDGE_LOOP('',(#576,#577,#578,#579,#580));
#120=EDGE_LOOP('',(#581,#582,#583,#584,#585));
#121=EDGE_LOOP('',(#586,#587,#588,#589,#590));
#122=EDGE_LOOP('',(#591,#592,#593,#594,#595));
#123=EDGE_LOOP('',(#596,#597,#598,#599,#600));
#124=EDGE_LOOP('',(#601,#602,#603,#604));
#125=EDGE_LOOP('',(#605,#606,#607,#608,#609,#610,#611,#612,#613,#614,#615,
#616,#617,#618,#619,#620,#621,#622,#623,#624));
#126=EDGE_LOOP('',(#625,#626,#627,#628));
#127=EDGE_LOOP('',(#629,#630,#631,#632));
#128=EDGE_LOOP('',(#633,#634,#635,#636));
#129=EDGE_LOOP('',(#637,#638,#639,#640));
#130=EDGE_LOOP('',(#641));
#131=EDGE_LOOP('',(#642));
#132=EDGE_LOOP('',(#643,#644,#645,#646,#647,#648,#649,#650,#651,#652,#653,
#654,#655,#656,#657,#658,#659,#660,#661,#662));
#133=EDGE_LOOP('',(#663,#664,#665,#666));
#134=EDGE_LOOP('',(#667,#668,#669,#670));
#135=EDGE_LOOP('',(#671));
#136=EDGE_LOOP('',(#672));
#137=EDGE_LOOP('',(#673,#674,#675,#676));
#138=EDGE_LOOP('',(#677,#678,#679,#680));
#139=EDGE_LOOP('',(#681,#682,#683,#684));
#140=EDGE_LOOP('',(#685,#686,#687,#688));
#141=EDGE_LOOP('',(#689,#690,#691,#692));
#142=EDGE_LOOP('',(#693,#694,#695,#696));
#143=EDGE_LOOP('',(#697,#698,#699,#700));
#144=EDGE_LOOP('',(#701,#702,#703,#704));
#145=EDGE_LOOP('',(#705,#706,#707,#708));
#146=EDGE_LOOP('',(#709,#710,#711,#712));
#147=EDGE_LOOP('',(#713,#714,#715,#716));
#148=EDGE_LOOP('',(#717,#718,#719,#720));
#149=EDGE_LOOP('',(#721));
#150=EDGE_LOOP('',(#722));
#151=EDGE_LOOP('',(#723));
#152=EDGE_LOOP('',(#724));
#153=EDGE_LOOP('',(#725,#726,#727,#728));
#154=EDGE_LOOP('',(#729,#730,#731,#732));
#155=EDGE_LOOP('',(#733,#734,#735,#736));
#156=EDGE_LOOP('',(#737,#738,#739,#740));
#157=EDGE_LOOP('',(#741,#742,#743,#744));
#158=EDGE_LOOP('',(#745,#746,#747,#748));
#159=EDGE_LOOP('',(#749));
#160=EDGE_LOOP('',(#750));
#161=EDGE_LOOP('',(#751));
#162=EDGE_LOOP('',(#752));
#163=EDGE_LOOP('',(#753));
#164=EDGE_LOOP('',(#754));
#165=EDGE_LOOP('',(#755));
#166=EDGE_LOOP('',(#756));
#167=EDGE_LOOP('',(#757,#758,#759,#760));
#168=EDGE_LOOP('',(#761));
#169=EDGE_LOOP('',(#762));
#170=EDGE_LOOP('',(#763,#764,#765,#766));
#171=EDGE_LOOP('',(#767));
#172=EDGE_LOOP('',(#768));
#173=LINE('',#1226,#233);
#174=LINE('',#1232,#234);
#175=LINE('',#1238,#235);
#176=LINE('',#1244,#236);
#177=LINE('',#1257,#237);
#178=LINE('',#1259,#238);
#179=LINE('',#1261,#239);
#180=LINE('',#1262,#240);
#181=LINE('',#1271,#241);
#182=LINE('',#1281,#242);
#183=LINE('',#1291,#243);
#184=LINE('',#1301,#244);
#185=LINE('',#1308,#245);
#186=LINE('',#1311,#246);
#187=LINE('',#1314,#247);
#188=LINE('',#1318,#248);
#189=LINE('',#1322,#249);
#190=LINE('',#1325,#250);
#191=LINE('',#1327,#251);
#192=LINE('',#1331,#252);
#193=LINE('',#1335,#253);
#194=LINE('',#1339,#254);
#195=LINE('',#1343,#255);
#196=LINE('',#1345,#256);
#197=LINE('',#1346,#257);
#198=LINE('',#1349,#258);
#199=LINE('',#1350,#259);
#200=LINE('',#1354,#260);
#201=LINE('',#1359,#261);
#202=LINE('',#1360,#262);
#203=LINE('',#1363,#263);
#204=LINE('',#1364,#264);
#205=LINE('',#1367,#265);
#206=LINE('',#1368,#266);
#207=LINE('',#1370,#267);
#208=LINE('',#1374,#268);
#209=LINE('',#1378,#269);
#210=LINE('',#1382,#270);
#211=LINE('',#1383,#271);
#212=LINE('',#1387,#272);
#213=LINE('',#1390,#273);
#214=LINE('',#1392,#274);
#215=LINE('',#1393,#275);
#216=LINE('',#1395,#276);
#217=LINE('',#1399,#277);
#218=LINE('',#1404,#278);
#219=LINE('',#1408,#279);
#220=LINE('',#1411,#280);
#221=LINE('',#1412,#281);
#222=LINE('',#1415,#282);
#223=LINE('',#1416,#283);
#224=LINE('',#1418,#284);
#225=LINE('',#1421,#285);
#226=LINE('',#1423,#286);
#227=LINE('',#1425,#287);
#228=LINE('',#1437,#288);
#229=LINE('',#1441,#289);
#230=LINE('',#1445,#290);
#231=LINE('',#1449,#291);
#232=LINE('',#1453,#292);
#233=VECTOR('',#961,0.106299212598425);
#234=VECTOR('',#968,0.106299212598425);
#235=VECTOR('',#975,0.106299212598425);
#236=VECTOR('',#982,0.106299212598425);
#237=VECTOR('',#997,0.393700787401575);
#238=VECTOR('',#998,0.393700787401575);
#239=VECTOR('',#999,0.393700787401575);
#240=VECTOR('',#1000,0.393700787401575);
#241=VECTOR('',#1009,0.118110236220472);
#242=VECTOR('',#1022,0.118110236220472);
#243=VECTOR('',#1035,0.118110236220472);
#244=VECTOR('',#1048,0.118110236220472);
#245=VECTOR('',#1055,0.393700787401575);
#246=VECTOR('',#1058,0.393700787401575);
#247=VECTOR('',#1061,0.393700787401575);
#248=VECTOR('',#1064,0.393700787401575);
#249=VECTOR('',#1067,0.393700787401575);
#250=VECTOR('',#1070,0.393700787401575);
#251=VECTOR('',#1071,0.393700787401575);
#252=VECTOR('',#1074,0.393700787401575);
#253=VECTOR('',#1077,0.393700787401575);
#254=VECTOR('',#1080,0.393700787401575);
#255=VECTOR('',#1083,0.393700787401575);
#256=VECTOR('',#1084,0.393700787401575);
#257=VECTOR('',#1085,0.393700787401575);
#258=VECTOR('',#1088,0.393700787401575);
#259=VECTOR('',#1089,0.393700787401575);
#260=VECTOR('',#1094,0.393700787401575);
#261=VECTOR('',#1099,0.393700787401575);
#262=VECTOR('',#1100,0.393700787401575);
#263=VECTOR('',#1103,0.393700787401575);
#264=VECTOR('',#1104,0.393700787401575);
#265=VECTOR('',#1107,0.393700787401575);
#266=VECTOR('',#1108,0.393700787401575);
#267=VECTOR('',#1109,0.393700787401575);
#268=VECTOR('',#1112,0.393700787401575);
#269=VECTOR('',#1115,0.393700787401575);
#270=VECTOR('',#1118,0.393700787401575);
#271=VECTOR('',#1119,0.393700787401575);
#272=VECTOR('',#1122,0.393700787401575);
#273=VECTOR('',#1125,0.393700787401575);
#274=VECTOR('',#1128,0.393700787401575);
#275=VECTOR('',#1129,0.393700787401575);
#276=VECTOR('',#1132,0.393700787401575);
#277=VECTOR('',#1135,0.393700787401575);
#278=VECTOR('',#1142,0.393700787401575);
#279=VECTOR('',#1147,0.393700787401575);
#280=VECTOR('',#1152,0.393700787401575);
#281=VECTOR('',#1153,0.393700787401575);
#282=VECTOR('',#1158,0.393700787401575);
#283=VECTOR('',#1159,0.393700787401575);
#284=VECTOR('',#1162,0.393700787401575);
#285=VECTOR('',#1167,0.393700787401575);
#286=VECTOR('',#1170,0.393700787401575);
#287=VECTOR('',#1173,0.393700787401575);
#288=VECTOR('',#1188,0.393700787401575);
#289=VECTOR('',#1193,0.0570866141732282);
#290=VECTOR('',#1198,0.0570866141732282);
#291=VECTOR('',#1203,0.0570866141732283);
#292=VECTOR('',#1208,0.0570866141732283);
#293=CIRCLE('',#854,0.106299212598425);
#294=CIRCLE('',#855,0.106299212598425);
#295=CIRCLE('',#857,0.106299212598425);
#296=CIRCLE('',#858,0.106299212598425);
#297=CIRCLE('',#860,0.106299212598425);
#298=CIRCLE('',#861,0.106299212598425);
#299=CIRCLE('',#863,0.106299212598425);
#300=CIRCLE('',#864,0.106299212598425);
#301=CIRCLE('',#866,0.137795275590551);
#302=CIRCLE('',#867,0.0196850393700787);
#303=CIRCLE('',#868,0.118110236220472);
#304=CIRCLE('',#869,0.118110236220472);
#305=CIRCLE('',#871,0.137795275590551);
#306=CIRCLE('',#872,0.137795275590551);
#307=CIRCLE('',#873,0.137795275590551);
#308=CIRCLE('',#875,0.118110236220472);
#309=CIRCLE('',#877,0.0196850393700787);
#310=CIRCLE('',#878,0.118110236220472);
#311=CIRCLE('',#879,0.118110236220472);
#312=CIRCLE('',#881,0.118110236220472);
#313=CIRCLE('',#883,0.0196850393700787);
#314=CIRCLE('',#884,0.118110236220472);
#315=CIRCLE('',#885,0.118110236220472);
#316=CIRCLE('',#887,0.118110236220472);
#317=CIRCLE('',#889,0.0196850393700787);
#318=CIRCLE('',#890,0.118110236220472);
#319=CIRCLE('',#891,0.118110236220472);
#320=CIRCLE('',#893,0.118110236220472);
#321=CIRCLE('',#895,0.078740157480315);
#322=CIRCLE('',#896,0.078740157480315);
#323=CIRCLE('',#898,0.078740157480315);
#324=CIRCLE('',#899,0.0787401574803149);
#325=CIRCLE('',#900,0.078740157480315);
#326=CIRCLE('',#901,0.078740157480315);
#327=CIRCLE('',#902,0.078740157480315);
#328=CIRCLE('',#903,0.0787401574803149);
#329=CIRCLE('',#904,0.078740157480315);
#330=CIRCLE('',#907,0.078740157480315);
#331=CIRCLE('',#909,0.078740157480315);
#332=CIRCLE('',#912,0.0787401574803149);
#333=CIRCLE('',#913,0.078740157480315);
#334=CIRCLE('',#914,0.078740157480315);
#335=CIRCLE('',#915,0.078740157480315);
#336=CIRCLE('',#916,0.0787401574803149);
#337=CIRCLE('',#935,0.0570866141732283);
#338=CIRCLE('',#936,0.0570866141732283);
#339=CIRCLE('',#937,0.0570866141732282);
#340=CIRCLE('',#938,0.0570866141732282);
#341=CIRCLE('',#942,0.0570866141732282);
#342=CIRCLE('',#944,0.0570866141732282);
#343=CIRCLE('',#946,0.0570866141732283);
#344=CIRCLE('',#948,0.0570866141732283);
#345=VERTEX_POINT('',#1223);
#346=VERTEX_POINT('',#1225);
#347=VERTEX_POINT('',#1229);
#348=VERTEX_POINT('',#1231);
#349=VERTEX_POINT('',#1235);
#350=VERTEX_POINT('',#1237);
#351=VERTEX_POINT('',#1241);
#352=VERTEX_POINT('',#1243);
#353=VERTEX_POINT('',#1247);
#354=VERTEX_POINT('',#1249);
#355=VERTEX_POINT('',#1251);
#356=VERTEX_POINT('',#1255);
#357=VERTEX_POINT('',#1256);
#358=VERTEX_POINT('',#1258);
#359=VERTEX_POINT('',#1260);
#360=VERTEX_POINT('',#1263);
#361=VERTEX_POINT('',#1265);
#362=VERTEX_POINT('',#1267);
#363=VERTEX_POINT('',#1270);
#364=VERTEX_POINT('',#1274);
#365=VERTEX_POINT('',#1276);
#366=VERTEX_POINT('',#1280);
#367=VERTEX_POINT('',#1284);
#368=VERTEX_POINT('',#1286);
#369=VERTEX_POINT('',#1290);
#370=VERTEX_POINT('',#1294);
#371=VERTEX_POINT('',#1296);
#372=VERTEX_POINT('',#1300);
#373=VERTEX_POINT('',#1304);
#374=VERTEX_POINT('',#1305);
#375=VERTEX_POINT('',#1307);
#376=VERTEX_POINT('',#1309);
#377=VERTEX_POINT('',#1313);
#378=VERTEX_POINT('',#1315);
#379=VERTEX_POINT('',#1317);
#380=VERTEX_POINT('',#1319);
#381=VERTEX_POINT('',#1321);
#382=VERTEX_POINT('',#1324);
#383=VERTEX_POINT('',#1326);
#384=VERTEX_POINT('',#1328);
#385=VERTEX_POINT('',#1330);
#386=VERTEX_POINT('',#1332);
#387=VERTEX_POINT('',#1334);
#388=VERTEX_POINT('',#1336);
#389=VERTEX_POINT('',#1338);
#390=VERTEX_POINT('',#1340);
#391=VERTEX_POINT('',#1342);
#392=VERTEX_POINT('',#1344);
#393=VERTEX_POINT('',#1348);
#394=VERTEX_POINT('',#1352);
#395=VERTEX_POINT('',#1356);
#396=VERTEX_POINT('',#1357);
#397=VERTEX_POINT('',#1362);
#398=VERTEX_POINT('',#1366);
#399=VERTEX_POINT('',#1369);
#400=VERTEX_POINT('',#1371);
#401=VERTEX_POINT('',#1373);
#402=VERTEX_POINT('',#1375);
#403=VERTEX_POINT('',#1377);
#404=VERTEX_POINT('',#1379);
#405=VERTEX_POINT('',#1381);
#406=VERTEX_POINT('',#1384);
#407=VERTEX_POINT('',#1386);
#408=VERTEX_POINT('',#1388);
#409=VERTEX_POINT('',#1397);
#410=VERTEX_POINT('',#1398);
#411=VERTEX_POINT('',#1403);
#412=VERTEX_POINT('',#1407);
#413=VERTEX_POINT('',#1427);
#414=VERTEX_POINT('',#1429);
#415=VERTEX_POINT('',#1431);
#416=VERTEX_POINT('',#1433);
#417=VERTEX_POINT('',#1439);
#418=VERTEX_POINT('',#1443);
#419=VERTEX_POINT('',#1447);
#420=VERTEX_POINT('',#1451);
#421=EDGE_CURVE('',#345,#345,#293,.T.);
#422=EDGE_CURVE('',#345,#346,#173,.T.);
#423=EDGE_CURVE('',#346,#346,#294,.T.);
#424=EDGE_CURVE('',#347,#347,#295,.T.);
#425=EDGE_CURVE('',#347,#348,#174,.T.);
#426=EDGE_CURVE('',#348,#348,#296,.T.);
#427=EDGE_CURVE('',#349,#349,#297,.T.);
#428=EDGE_CURVE('',#349,#350,#175,.T.);
#429=EDGE_CURVE('',#350,#350,#298,.T.);
#430=EDGE_CURVE('',#351,#351,#299,.T.);
#431=EDGE_CURVE('',#351,#352,#176,.T.);
#432=EDGE_CURVE('',#352,#352,#300,.T.);
#433=EDGE_CURVE('',#353,#353,#301,.T.);
#434=EDGE_CURVE('',#353,#354,#302,.T.);
#435=EDGE_CURVE('',#354,#355,#303,.T.);
#436=EDGE_CURVE('',#355,#354,#304,.T.);
#437=EDGE_CURVE('',#356,#357,#177,.T.);
#438=EDGE_CURVE('',#356,#358,#178,.T.);
#439=EDGE_CURVE('',#359,#358,#179,.T.);
#440=EDGE_CURVE('',#357,#359,#180,.T.);
#441=EDGE_CURVE('',#360,#360,#305,.T.);
#442=EDGE_CURVE('',#361,#361,#306,.T.);
#443=EDGE_CURVE('',#362,#362,#307,.T.);
#444=EDGE_CURVE('',#355,#363,#181,.T.);
#445=EDGE_CURVE('',#363,#363,#308,.T.);
#446=EDGE_CURVE('',#360,#364,#309,.T.);
#447=EDGE_CURVE('',#364,#365,#310,.T.);
#448=EDGE_CURVE('',#365,#364,#311,.T.);
#449=EDGE_CURVE('',#365,#366,#182,.T.);
#450=EDGE_CURVE('',#366,#366,#312,.T.);
#451=EDGE_CURVE('',#362,#367,#313,.T.);
#452=EDGE_CURVE('',#367,#368,#314,.T.);
#453=EDGE_CURVE('',#368,#367,#315,.T.);
#454=EDGE_CURVE('',#368,#369,#183,.T.);
#455=EDGE_CURVE('',#369,#369,#316,.T.);
#456=EDGE_CURVE('',#361,#370,#317,.T.);
#457=EDGE_CURVE('',#370,#371,#318,.T.);
#458=EDGE_CURVE('',#371,#370,#319,.T.);
#459=EDGE_CURVE('',#371,#372,#184,.T.);
#460=EDGE_CURVE('',#372,#372,#320,.T.);
#461=EDGE_CURVE('',#373,#374,#321,.T.);
#462=EDGE_CURVE('',#374,#375,#185,.T.);
#463=EDGE_CURVE('',#375,#376,#322,.T.);
#464=EDGE_CURVE('',#376,#373,#186,.T.);
#465=EDGE_CURVE('',#375,#377,#187,.T.);
#466=EDGE_CURVE('',#378,#377,#323,.T.);
#467=EDGE_CURVE('',#379,#378,#188,.T.);
#468=EDGE_CURVE('',#380,#379,#324,.T.);
#469=EDGE_CURVE('',#381,#380,#189,.T.);
#470=EDGE_CURVE('',#358,#381,#325,.T.);
#471=EDGE_CURVE('',#382,#356,#190,.T.);
#472=EDGE_CURVE('',#383,#382,#191,.T.);
#473=EDGE_CURVE('',#384,#383,#326,.T.);
#474=EDGE_CURVE('',#385,#384,#192,.T.);
#475=EDGE_CURVE('',#386,#385,#327,.T.);
#476=EDGE_CURVE('',#387,#386,#193,.T.);
#477=EDGE_CURVE('',#388,#387,#328,.T.);
#478=EDGE_CURVE('',#388,#389,#194,.T.);
#479=EDGE_CURVE('',#390,#389,#329,.T.);
#480=EDGE_CURVE('',#390,#391,#195,.T.);
#481=EDGE_CURVE('',#391,#392,#196,.T.);
#482=EDGE_CURVE('',#392,#376,#197,.T.);
#483=EDGE_CURVE('',#374,#393,#198,.T.);
#484=EDGE_CURVE('',#377,#393,#199,.T.);
#485=EDGE_CURVE('',#393,#394,#330,.T.);
#486=EDGE_CURVE('',#394,#378,#200,.T.);
#487=EDGE_CURVE('',#395,#396,#331,.T.);
#488=EDGE_CURVE('',#396,#390,#201,.T.);
#489=EDGE_CURVE('',#389,#395,#202,.T.);
#490=EDGE_CURVE('',#396,#397,#203,.T.);
#491=EDGE_CURVE('',#391,#397,#204,.T.);
#492=EDGE_CURVE('',#398,#373,#205,.T.);
#493=EDGE_CURVE('',#398,#397,#206,.T.);
#494=EDGE_CURVE('',#399,#395,#207,.T.);
#495=EDGE_CURVE('',#400,#399,#332,.T.);
#496=EDGE_CURVE('',#401,#400,#208,.T.);
#497=EDGE_CURVE('',#402,#401,#333,.T.);
#498=EDGE_CURVE('',#402,#403,#209,.T.);
#499=EDGE_CURVE('',#404,#403,#334,.T.);
#500=EDGE_CURVE('',#404,#405,#210,.T.);
#501=EDGE_CURVE('',#357,#405,#211,.T.);
#502=EDGE_CURVE('',#406,#359,#335,.T.);
#503=EDGE_CURVE('',#406,#407,#212,.T.);
#504=EDGE_CURVE('',#408,#407,#336,.T.);
#505=EDGE_CURVE('',#408,#394,#213,.T.);
#506=EDGE_CURVE('',#399,#388,#214,.T.);
#507=EDGE_CURVE('',#387,#400,#215,.T.);
#508=EDGE_CURVE('',#401,#386,#216,.T.);
#509=EDGE_CURVE('',#409,#410,#217,.T.);
#510=EDGE_CURVE('',#410,#356,#15,.T.);
#511=EDGE_CURVE('',#357,#409,#16,.T.);
#512=EDGE_CURVE('',#410,#411,#218,.T.);
#513=EDGE_CURVE('',#411,#382,#17,.T.);
#514=EDGE_CURVE('',#412,#409,#219,.T.);
#515=EDGE_CURVE('',#412,#405,#18,.T.);
#516=EDGE_CURVE('',#405,#382,#220,.T.);
#517=EDGE_CURVE('',#411,#412,#221,.T.);
#518=EDGE_CURVE('',#407,#380,#222,.T.);
#519=EDGE_CURVE('',#379,#408,#223,.T.);
#520=EDGE_CURVE('',#381,#406,#224,.T.);
#521=EDGE_CURVE('',#385,#402,#225,.T.);
#522=EDGE_CURVE('',#403,#384,#226,.T.);
#523=EDGE_CURVE('',#383,#404,#227,.T.);
#524=EDGE_CURVE('',#413,#413,#337,.T.);
#525=EDGE_CURVE('',#414,#414,#338,.T.);
#526=EDGE_CURVE('',#415,#415,#339,.T.);
#527=EDGE_CURVE('',#416,#416,#340,.T.);
#528=EDGE_CURVE('',#392,#398,#228,.T.);
#529=EDGE_CURVE('',#417,#417,#341,.T.);
#530=EDGE_CURVE('',#417,#416,#229,.T.);
#531=EDGE_CURVE('',#418,#418,#342,.T.);
#532=EDGE_CURVE('',#418,#415,#230,.T.);
#533=EDGE_CURVE('',#419,#419,#343,.T.);
#534=EDGE_CURVE('',#419,#414,#231,.T.);
#535=EDGE_CURVE('',#420,#420,#344,.T.);
#536=EDGE_CURVE('',#420,#413,#232,.T.);
#537=ORIENTED_EDGE('',*,*,#421,.F.);
#538=ORIENTED_EDGE('',*,*,#422,.T.);
#539=ORIENTED_EDGE('',*,*,#423,.F.);
#540=ORIENTED_EDGE('',*,*,#422,.F.);
#541=ORIENTED_EDGE('',*,*,#424,.F.);
#542=ORIENTED_EDGE('',*,*,#425,.T.);
#543=ORIENTED_EDGE('',*,*,#426,.F.);
#544=ORIENTED_EDGE('',*,*,#425,.F.);
#545=ORIENTED_EDGE('',*,*,#427,.F.);
#546=ORIENTED_EDGE('',*,*,#428,.T.);
#547=ORIENTED_EDGE('',*,*,#429,.F.);
#548=ORIENTED_EDGE('',*,*,#428,.F.);
#549=ORIENTED_EDGE('',*,*,#430,.F.);
#550=ORIENTED_EDGE('',*,*,#431,.T.);
#551=ORIENTED_EDGE('',*,*,#432,.F.);
#552=ORIENTED_EDGE('',*,*,#431,.F.);
#553=ORIENTED_EDGE('',*,*,#433,.T.);
#554=ORIENTED_EDGE('',*,*,#434,.T.);
#555=ORIENTED_EDGE('',*,*,#435,.T.);
#556=ORIENTED_EDGE('',*,*,#436,.T.);
#557=ORIENTED_EDGE('',*,*,#434,.F.);
#558=ORIENTED_EDGE('',*,*,#437,.F.);
#559=ORIENTED_EDGE('',*,*,#438,.T.);
#560=ORIENTED_EDGE('',*,*,#439,.F.);
#561=ORIENTED_EDGE('',*,*,#440,.F.);
#562=ORIENTED_EDGE('',*,*,#441,.F.);
#563=ORIENTED_EDGE('',*,*,#442,.F.);
#564=ORIENTED_EDGE('',*,*,#443,.F.);
#565=ORIENTED_EDGE('',*,*,#433,.F.);
#566=ORIENTED_EDGE('',*,*,#436,.F.);
#567=ORIENTED_EDGE('',*,*,#444,.T.);
#568=ORIENTED_EDGE('',*,*,#445,.T.);
#569=ORIENTED_EDGE('',*,*,#444,.F.);
#570=ORIENTED_EDGE('',*,*,#435,.F.);
#571=ORIENTED_EDGE('',*,*,#441,.T.);
#572=ORIENTED_EDGE('',*,*,#446,.T.);
#573=ORIENTED_EDGE('',*,*,#447,.T.);
#574=ORIENTED_EDGE('',*,*,#448,.T.);
#575=ORIENTED_EDGE('',*,*,#446,.F.);
#576=ORIENTED_EDGE('',*,*,#448,.F.);
#577=ORIENTED_EDGE('',*,*,#449,.T.);
#578=ORIENTED_EDGE('',*,*,#450,.T.);
#579=ORIENTED_EDGE('',*,*,#449,.F.);
#580=ORIENTED_EDGE('',*,*,#447,.F.);
#581=ORIENTED_EDGE('',*,*,#443,.T.);
#582=ORIENTED_EDGE('',*,*,#451,.T.);
#583=ORIENTED_EDGE('',*,*,#452,.T.);
#584=ORIENTED_EDGE('',*,*,#453,.T.);
#585=ORIENTED_EDGE('',*,*,#451,.F.);
#586=ORIENTED_EDGE('',*,*,#453,.F.);
#587=ORIENTED_EDGE('',*,*,#454,.T.);
#588=ORIENTED_EDGE('',*,*,#455,.T.);
#589=ORIENTED_EDGE('',*,*,#454,.F.);
#590=ORIENTED_EDGE('',*,*,#452,.F.);
#591=ORIENTED_EDGE('',*,*,#442,.T.);
#592=ORIENTED_EDGE('',*,*,#456,.T.);
#593=ORIENTED_EDGE('',*,*,#457,.T.);
#594=ORIENTED_EDGE('',*,*,#458,.T.);
#595=ORIENTED_EDGE('',*,*,#456,.F.);
#596=ORIENTED_EDGE('',*,*,#458,.F.);
#597=ORIENTED_EDGE('',*,*,#459,.T.);
#598=ORIENTED_EDGE('',*,*,#460,.T.);
#599=ORIENTED_EDGE('',*,*,#459,.F.);
#600=ORIENTED_EDGE('',*,*,#457,.F.);
#601=ORIENTED_EDGE('',*,*,#461,.T.);
#602=ORIENTED_EDGE('',*,*,#462,.T.);
#603=ORIENTED_EDGE('',*,*,#463,.T.);
#604=ORIENTED_EDGE('',*,*,#464,.T.);
#605=ORIENTED_EDGE('',*,*,#463,.F.);
#606=ORIENTED_EDGE('',*,*,#465,.T.);
#607=ORIENTED_EDGE('',*,*,#466,.F.);
#608=ORIENTED_EDGE('',*,*,#467,.F.);
#609=ORIENTED_EDGE('',*,*,#468,.F.);
#610=ORIENTED_EDGE('',*,*,#469,.F.);
#611=ORIENTED_EDGE('',*,*,#470,.F.);
#612=ORIENTED_EDGE('',*,*,#438,.F.);
#613=ORIENTED_EDGE('',*,*,#471,.F.);
#614=ORIENTED_EDGE('',*,*,#472,.F.);
#615=ORIENTED_EDGE('',*,*,#473,.F.);
#616=ORIENTED_EDGE('',*,*,#474,.F.);
#617=ORIENTED_EDGE('',*,*,#475,.F.);
#618=ORIENTED_EDGE('',*,*,#476,.F.);
#619=ORIENTED_EDGE('',*,*,#477,.F.);
#620=ORIENTED_EDGE('',*,*,#478,.T.);
#621=ORIENTED_EDGE('',*,*,#479,.F.);
#622=ORIENTED_EDGE('',*,*,#480,.T.);
#623=ORIENTED_EDGE('',*,*,#481,.T.);
#624=ORIENTED_EDGE('',*,*,#482,.T.);
#625=ORIENTED_EDGE('',*,*,#462,.F.);
#626=ORIENTED_EDGE('',*,*,#483,.T.);
#627=ORIENTED_EDGE('',*,*,#484,.F.);
#628=ORIENTED_EDGE('',*,*,#465,.F.);
#629=ORIENTED_EDGE('',*,*,#485,.T.);
#630=ORIENTED_EDGE('',*,*,#486,.T.);
#631=ORIENTED_EDGE('',*,*,#466,.T.);
#632=ORIENTED_EDGE('',*,*,#484,.T.);
#633=ORIENTED_EDGE('',*,*,#487,.T.);
#634=ORIENTED_EDGE('',*,*,#488,.T.);
#635=ORIENTED_EDGE('',*,*,#479,.T.);
#636=ORIENTED_EDGE('',*,*,#489,.T.);
#637=ORIENTED_EDGE('',*,*,#488,.F.);
#638=ORIENTED_EDGE('',*,*,#490,.T.);
#639=ORIENTED_EDGE('',*,*,#491,.F.);
#640=ORIENTED_EDGE('',*,*,#480,.F.);
#641=ORIENTED_EDGE('',*,*,#424,.T.);
#642=ORIENTED_EDGE('',*,*,#430,.T.);
#643=ORIENTED_EDGE('',*,*,#461,.F.);
#644=ORIENTED_EDGE('',*,*,#492,.F.);
#645=ORIENTED_EDGE('',*,*,#493,.T.);
#646=ORIENTED_EDGE('',*,*,#490,.F.);
#647=ORIENTED_EDGE('',*,*,#487,.F.);
#648=ORIENTED_EDGE('',*,*,#494,.F.);
#649=ORIENTED_EDGE('',*,*,#495,.F.);
#650=ORIENTED_EDGE('',*,*,#496,.F.);
#651=ORIENTED_EDGE('',*,*,#497,.F.);
#652=ORIENTED_EDGE('',*,*,#498,.T.);
#653=ORIENTED_EDGE('',*,*,#499,.F.);
#654=ORIENTED_EDGE('',*,*,#500,.T.);
#655=ORIENTED_EDGE('',*,*,#501,.F.);
#656=ORIENTED_EDGE('',*,*,#440,.T.);
#657=ORIENTED_EDGE('',*,*,#502,.F.);
#658=ORIENTED_EDGE('',*,*,#503,.T.);
#659=ORIENTED_EDGE('',*,*,#504,.F.);
#660=ORIENTED_EDGE('',*,*,#505,.T.);
#661=ORIENTED_EDGE('',*,*,#485,.F.);
#662=ORIENTED_EDGE('',*,*,#483,.F.);
#663=ORIENTED_EDGE('',*,*,#495,.T.);
#664=ORIENTED_EDGE('',*,*,#506,.T.);
#665=ORIENTED_EDGE('',*,*,#477,.T.);
#666=ORIENTED_EDGE('',*,*,#507,.T.);
#667=ORIENTED_EDGE('',*,*,#507,.F.);
#668=ORIENTED_EDGE('',*,*,#476,.T.);
#669=ORIENTED_EDGE('',*,*,#508,.F.);
#670=ORIENTED_EDGE('',*,*,#496,.T.);
#671=ORIENTED_EDGE('',*,*,#426,.T.);
#672=ORIENTED_EDGE('',*,*,#432,.T.);
#673=ORIENTED_EDGE('',*,*,#509,.T.);
#674=ORIENTED_EDGE('',*,*,#510,.T.);
#675=ORIENTED_EDGE('',*,*,#437,.T.);
#676=ORIENTED_EDGE('',*,*,#511,.T.);
#677=ORIENTED_EDGE('',*,*,#471,.T.);
#678=ORIENTED_EDGE('',*,*,#510,.F.);
#679=ORIENTED_EDGE('',*,*,#512,.T.);
#680=ORIENTED_EDGE('',*,*,#513,.T.);
#681=ORIENTED_EDGE('',*,*,#514,.T.);
#682=ORIENTED_EDGE('',*,*,#511,.F.);
#683=ORIENTED_EDGE('',*,*,#501,.T.);
#684=ORIENTED_EDGE('',*,*,#515,.F.);
#685=ORIENTED_EDGE('',*,*,#516,.T.);
#686=ORIENTED_EDGE('',*,*,#513,.F.);
#687=ORIENTED_EDGE('',*,*,#517,.T.);
#688=ORIENTED_EDGE('',*,*,#515,.T.);
#689=ORIENTED_EDGE('',*,*,#509,.F.);
#690=ORIENTED_EDGE('',*,*,#514,.F.);
#691=ORIENTED_EDGE('',*,*,#517,.F.);
#692=ORIENTED_EDGE('',*,*,#512,.F.);
#693=ORIENTED_EDGE('',*,*,#504,.T.);
#694=ORIENTED_EDGE('',*,*,#518,.T.);
#695=ORIENTED_EDGE('',*,*,#468,.T.);
#696=ORIENTED_EDGE('',*,*,#519,.T.);
#697=ORIENTED_EDGE('',*,*,#518,.F.);
#698=ORIENTED_EDGE('',*,*,#503,.F.);
#699=ORIENTED_EDGE('',*,*,#520,.F.);
#700=ORIENTED_EDGE('',*,*,#469,.T.);
#701=ORIENTED_EDGE('',*,*,#470,.T.);
#702=ORIENTED_EDGE('',*,*,#520,.T.);
#703=ORIENTED_EDGE('',*,*,#502,.T.);
#704=ORIENTED_EDGE('',*,*,#439,.T.);
#705=ORIENTED_EDGE('',*,*,#497,.T.);
#706=ORIENTED_EDGE('',*,*,#508,.T.);
#707=ORIENTED_EDGE('',*,*,#475,.T.);
#708=ORIENTED_EDGE('',*,*,#521,.T.);
#709=ORIENTED_EDGE('',*,*,#521,.F.);
#710=ORIENTED_EDGE('',*,*,#474,.T.);
#711=ORIENTED_EDGE('',*,*,#522,.F.);
#712=ORIENTED_EDGE('',*,*,#498,.F.);
#713=ORIENTED_EDGE('',*,*,#473,.T.);
#714=ORIENTED_EDGE('',*,*,#523,.T.);
#715=ORIENTED_EDGE('',*,*,#499,.T.);
#716=ORIENTED_EDGE('',*,*,#522,.T.);
#717=ORIENTED_EDGE('',*,*,#516,.F.);
#718=ORIENTED_EDGE('',*,*,#500,.F.);
#719=ORIENTED_EDGE('',*,*,#523,.F.);
#720=ORIENTED_EDGE('',*,*,#472,.T.);
#721=ORIENTED_EDGE('',*,*,#524,.T.);
#722=ORIENTED_EDGE('',*,*,#525,.T.);
#723=ORIENTED_EDGE('',*,*,#526,.T.);
#724=ORIENTED_EDGE('',*,*,#527,.T.);
#725=ORIENTED_EDGE('',*,*,#489,.F.);
#726=ORIENTED_EDGE('',*,*,#478,.F.);
#727=ORIENTED_EDGE('',*,*,#506,.F.);
#728=ORIENTED_EDGE('',*,*,#494,.T.);
#729=ORIENTED_EDGE('',*,*,#481,.F.);
#730=ORIENTED_EDGE('',*,*,#491,.T.);
#731=ORIENTED_EDGE('',*,*,#493,.F.);
#732=ORIENTED_EDGE('',*,*,#528,.F.);
#733=ORIENTED_EDGE('',*,*,#529,.F.);
#734=ORIENTED_EDGE('',*,*,#530,.T.);
#735=ORIENTED_EDGE('',*,*,#527,.F.);
#736=ORIENTED_EDGE('',*,*,#530,.F.);
#737=ORIENTED_EDGE('',*,*,#531,.F.);
#738=ORIENTED_EDGE('',*,*,#532,.T.);
#739=ORIENTED_EDGE('',*,*,#526,.F.);
#740=ORIENTED_EDGE('',*,*,#532,.F.);
#741=ORIENTED_EDGE('',*,*,#533,.F.);
#742=ORIENTED_EDGE('',*,*,#534,.T.);
#743=ORIENTED_EDGE('',*,*,#525,.F.);
#744=ORIENTED_EDGE('',*,*,#534,.F.);
#745=ORIENTED_EDGE('',*,*,#535,.F.);
#746=ORIENTED_EDGE('',*,*,#536,.T.);
#747=ORIENTED_EDGE('',*,*,#524,.F.);
#748=ORIENTED_EDGE('',*,*,#536,.F.);
#749=ORIENTED_EDGE('',*,*,#445,.F.);
#750=ORIENTED_EDGE('',*,*,#533,.T.);
#751=ORIENTED_EDGE('',*,*,#450,.F.);
#752=ORIENTED_EDGE('',*,*,#535,.T.);
#753=ORIENTED_EDGE('',*,*,#460,.F.);
#754=ORIENTED_EDGE('',*,*,#529,.T.);
#755=ORIENTED_EDGE('',*,*,#455,.F.);
#756=ORIENTED_EDGE('',*,*,#531,.T.);
#757=ORIENTED_EDGE('',*,*,#464,.F.);
#758=ORIENTED_EDGE('',*,*,#482,.F.);
#759=ORIENTED_EDGE('',*,*,#528,.T.);
#760=ORIENTED_EDGE('',*,*,#492,.T.);
#761=ORIENTED_EDGE('',*,*,#423,.T.);
#762=ORIENTED_EDGE('',*,*,#429,.T.);
#763=ORIENTED_EDGE('',*,*,#486,.F.);
#764=ORIENTED_EDGE('',*,*,#505,.F.);
#765=ORIENTED_EDGE('',*,*,#519,.F.);
#766=ORIENTED_EDGE('',*,*,#467,.T.);
#767=ORIENTED_EDGE('',*,*,#421,.T.);
#768=ORIENTED_EDGE('',*,*,#427,.T.);
#769=CYLINDRICAL_SURFACE('',#853,0.106299212598425);
#770=CYLINDRICAL_SURFACE('',#856,0.106299212598425);
#771=CYLINDRICAL_SURFACE('',#859,0.106299212598425);
#772=CYLINDRICAL_SURFACE('',#862,0.106299212598425);
#773=CYLINDRICAL_SURFACE('',#874,0.118110236220472);
#774=CYLINDRICAL_SURFACE('',#880,0.118110236220472);
#775=CYLINDRICAL_SURFACE('',#886,0.118110236220472);
#776=CYLINDRICAL_SURFACE('',#892,0.118110236220472);
#777=CYLINDRICAL_SURFACE('',#894,0.078740157480315);
#778=CYLINDRICAL_SURFACE('',#906,0.078740157480315);
#779=CYLINDRICAL_SURFACE('',#908,0.078740157480315);
#780=CYLINDRICAL_SURFACE('',#917,0.0787401574803149);
#781=CYLINDRICAL_SURFACE('',#919,0.078740157480315);
#782=CYLINDRICAL_SURFACE('',#922,0.0787401574803149);
#783=CYLINDRICAL_SURFACE('',#924,0.078740157480315);
#784=CYLINDRICAL_SURFACE('',#926,0.078740157480315);
#785=CYLINDRICAL_SURFACE('',#928,0.0787401574803149);
#786=CYLINDRICAL_SURFACE('',#930,0.078740157480315);
#787=CYLINDRICAL_SURFACE('',#931,0.078740157480315);
#788=CYLINDRICAL_SURFACE('',#933,0.078740157480315);
#789=CYLINDRICAL_SURFACE('',#941,0.0570866141732282);
#790=CYLINDRICAL_SURFACE('',#943,0.0570866141732282);
#791=CYLINDRICAL_SURFACE('',#945,0.0570866141732283);
#792=CYLINDRICAL_SURFACE('',#947,0.0570866141732283);
#793=ADVANCED_FACE('',(#61),#769,.F.);
#794=ADVANCED_FACE('',(#62),#770,.F.);
#795=ADVANCED_FACE('',(#63),#771,.F.);
#796=ADVANCED_FACE('',(#64),#772,.F.);
#797=ADVANCED_FACE('',(#65),#57,.T.);
#798=ADVANCED_FACE('',(#66,#19,#20,#21,#22),#39,.T.);
#799=ADVANCED_FACE('',(#67),#773,.F.);
#800=ADVANCED_FACE('',(#68),#58,.T.);
#801=ADVANCED_FACE('',(#69),#774,.F.);
#802=ADVANCED_FACE('',(#70),#59,.T.);
#803=ADVANCED_FACE('',(#71),#775,.F.);
#804=ADVANCED_FACE('',(#72),#60,.T.);
#805=ADVANCED_FACE('',(#73),#776,.F.);
#806=ADVANCED_FACE('',(#74),#777,.T.);
#807=ADVANCED_FACE('',(#75),#40,.T.);
#808=ADVANCED_FACE('',(#76),#41,.T.);
#809=ADVANCED_FACE('',(#77),#778,.T.);
#810=ADVANCED_FACE('',(#78),#779,.T.);
#811=ADVANCED_FACE('',(#79,#23,#24),#42,.T.);
#812=ADVANCED_FACE('',(#80),#43,.F.);
#813=ADVANCED_FACE('',(#81),#780,.T.);
#814=ADVANCED_FACE('',(#82,#25,#26),#44,.T.);
#815=ADVANCED_FACE('',(#83),#781,.T.);
#816=ADVANCED_FACE('',(#84),#782,.T.);
#817=ADVANCED_FACE('',(#85),#783,.T.);
#818=ADVANCED_FACE('',(#86),#784,.T.);
#819=ADVANCED_FACE('',(#87),#45,.T.);
#820=ADVANCED_FACE('',(#88),#785,.T.);
#821=ADVANCED_FACE('',(#89),#46,.T.);
#822=ADVANCED_FACE('',(#90),#786,.F.);
#823=ADVANCED_FACE('',(#91),#787,.T.);
#824=ADVANCED_FACE('',(#92),#47,.T.);
#825=ADVANCED_FACE('',(#93),#788,.F.);
#826=ADVANCED_FACE('',(#94,#27,#28,#29,#30),#48,.T.);
#827=ADVANCED_FACE('',(#95),#49,.T.);
#828=ADVANCED_FACE('',(#96),#50,.T.);
#829=ADVANCED_FACE('',(#97),#789,.F.);
#830=ADVANCED_FACE('',(#98),#790,.F.);
#831=ADVANCED_FACE('',(#99),#791,.F.);
#832=ADVANCED_FACE('',(#100),#792,.F.);
#833=ADVANCED_FACE('',(#101,#31),#51,.T.);
#834=ADVANCED_FACE('',(#102,#32),#52,.T.);
#835=ADVANCED_FACE('',(#103,#33),#53,.T.);
#836=ADVANCED_FACE('',(#104,#34),#54,.T.);
#837=ADVANCED_FACE('',(#105,#35,#36),#55,.T.);
#838=ADVANCED_FACE('',(#106,#37,#38),#56,.T.);
#839=CLOSED_SHELL('',(#793,#794,#795,#796,#797,#798,#799,#800,#801,#802,
#803,#804,#805,#806,#807,#808,#809,#810,#811,#812,#813,#814,#815,#816,#817,
#818,#819,#820,#821,#822,#823,#824,#825,#826,#827,#828,#829,#830,#831,#832,
#833,#834,#835,#836,#837,#838));
#840=DERIVED_UNIT_ELEMENT(#842,1.);
#841=DERIVED_UNIT_ELEMENT(#1467,-3.);
#842=(
MASS_UNIT()
NAMED_UNIT(*)
SI_UNIT(.KILO.,.GRAM.)
);
#843=DERIVED_UNIT((#840,#841));
#844=MEASURE_REPRESENTATION_ITEM('density measure',
POSITIVE_RATIO_MEASURE(7850.),#843);
#845=PROPERTY_DEFINITION_REPRESENTATION(#850,#847);
#846=PROPERTY_DEFINITION_REPRESENTATION(#851,#848);
#847=REPRESENTATION('material name',(#849),#1462);
#848=REPRESENTATION('density',(#844),#1462);
#849=DESCRIPTIVE_REPRESENTATION_ITEM('Steel','Steel');
#850=PROPERTY_DEFINITION('material property','material name',#1475);
#851=PROPERTY_DEFINITION('material property','density of part',#1475);
#852=AXIS2_PLACEMENT_3D('',#1221,#955,#956);
#853=AXIS2_PLACEMENT_3D('',#1222,#957,#958);
#854=AXIS2_PLACEMENT_3D('',#1224,#959,#960);
#855=AXIS2_PLACEMENT_3D('',#1227,#962,#963);
#856=AXIS2_PLACEMENT_3D('',#1228,#964,#965);
#857=AXIS2_PLACEMENT_3D('',#1230,#966,#967);
#858=AXIS2_PLACEMENT_3D('',#1233,#969,#970);
#859=AXIS2_PLACEMENT_3D('',#1234,#971,#972);
#860=AXIS2_PLACEMENT_3D('',#1236,#973,#974);
#861=AXIS2_PLACEMENT_3D('',#1239,#976,#977);
#862=AXIS2_PLACEMENT_3D('',#1240,#978,#979);
#863=AXIS2_PLACEMENT_3D('',#1242,#980,#981);
#864=AXIS2_PLACEMENT_3D('',#1245,#983,#984);
#865=AXIS2_PLACEMENT_3D('',#1246,#985,#986);
#866=AXIS2_PLACEMENT_3D('',#1248,#987,#988);
#867=AXIS2_PLACEMENT_3D('',#1250,#989,#990);
#868=AXIS2_PLACEMENT_3D('',#1252,#991,#992);
#869=AXIS2_PLACEMENT_3D('',#1253,#993,#994);
#870=AXIS2_PLACEMENT_3D('',#1254,#995,#996);
#871=AXIS2_PLACEMENT_3D('',#1264,#1001,#1002);
#872=AXIS2_PLACEMENT_3D('',#1266,#1003,#1004);
#873=AXIS2_PLACEMENT_3D('',#1268,#1005,#1006);
#874=AXIS2_PLACEMENT_3D('',#1269,#1007,#1008);
#875=AXIS2_PLACEMENT_3D('',#1272,#1010,#1011);
#876=AXIS2_PLACEMENT_3D('',#1273,#1012,#1013);
#877=AXIS2_PLACEMENT_3D('',#1275,#1014,#1015);
#878=AXIS2_PLACEMENT_3D('',#1277,#1016,#1017);
#879=AXIS2_PLACEMENT_3D('',#1278,#1018,#1019);
#880=AXIS2_PLACEMENT_3D('',#1279,#1020,#1021);
#881=AXIS2_PLACEMENT_3D('',#1282,#1023,#1024);
#882=AXIS2_PLACEMENT_3D('',#1283,#1025,#1026);
#883=AXIS2_PLACEMENT_3D('',#1285,#1027,#1028);
#884=AXIS2_PLACEMENT_3D('',#1287,#1029,#1030);
#885=AXIS2_PLACEMENT_3D('',#1288,#1031,#1032);
#886=AXIS2_PLACEMENT_3D('',#1289,#1033,#1034);
#887=AXIS2_PLACEMENT_3D('',#1292,#1036,#1037);
#888=AXIS2_PLACEMENT_3D('',#1293,#1038,#1039);
#889=AXIS2_PLACEMENT_3D('',#1295,#1040,#1041);
#890=AXIS2_PLACEMENT_3D('',#1297,#1042,#1043);
#891=AXIS2_PLACEMENT_3D('',#1298,#1044,#1045);
#892=AXIS2_PLACEMENT_3D('',#1299,#1046,#1047);
#893=AXIS2_PLACEMENT_3D('',#1302,#1049,#1050);
#894=AXIS2_PLACEMENT_3D('',#1303,#1051,#1052);
#895=AXIS2_PLACEMENT_3D('',#1306,#1053,#1054);
#896=AXIS2_PLACEMENT_3D('',#1310,#1056,#1057);
#897=AXIS2_PLACEMENT_3D('',#1312,#1059,#1060);
#898=AXIS2_PLACEMENT_3D('',#1316,#1062,#1063);
#899=AXIS2_PLACEMENT_3D('',#1320,#1065,#1066);
#900=AXIS2_PLACEMENT_3D('',#1323,#1068,#1069);
#901=AXIS2_PLACEMENT_3D('',#1329,#1072,#1073);
#902=AXIS2_PLACEMENT_3D('',#1333,#1075,#1076);
#903=AXIS2_PLACEMENT_3D('',#1337,#1078,#1079);
#904=AXIS2_PLACEMENT_3D('',#1341,#1081,#1082);
#905=AXIS2_PLACEMENT_3D('',#1347,#1086,#1087);
#906=AXIS2_PLACEMENT_3D('',#1351,#1090,#1091);
#907=AXIS2_PLACEMENT_3D('',#1353,#1092,#1093);
#908=AXIS2_PLACEMENT_3D('',#1355,#1095,#1096);
#909=AXIS2_PLACEMENT_3D('',#1358,#1097,#1098);
#910=AXIS2_PLACEMENT_3D('',#1361,#1101,#1102);
#911=AXIS2_PLACEMENT_3D('',#1365,#1105,#1106);
#912=AXIS2_PLACEMENT_3D('',#1372,#1110,#1111);
#913=AXIS2_PLACEMENT_3D('',#1376,#1113,#1114);
#914=AXIS2_PLACEMENT_3D('',#1380,#1116,#1117);
#915=AXIS2_PLACEMENT_3D('',#1385,#1120,#1121);
#916=AXIS2_PLACEMENT_3D('',#1389,#1123,#1124);
#917=AXIS2_PLACEMENT_3D('',#1391,#1126,#1127);
#918=AXIS2_PLACEMENT_3D('',#1394,#1130,#1131);
#919=AXIS2_PLACEMENT_3D('',#1396,#1133,#1134);
#920=AXIS2_PLACEMENT_3D('',#1400,#1136,#1137);
#921=AXIS2_PLACEMENT_3D('',#1401,#1138,#1139);
#922=AXIS2_PLACEMENT_3D('',#1402,#1140,#1141);
#923=AXIS2_PLACEMENT_3D('',#1405,#1143,#1144);
#924=AXIS2_PLACEMENT_3D('',#1406,#1145,#1146);
#925=AXIS2_PLACEMENT_3D('',#1409,#1148,#1149);
#926=AXIS2_PLACEMENT_3D('',#1410,#1150,#1151);
#927=AXIS2_PLACEMENT_3D('',#1413,#1154,#1155);
#928=AXIS2_PLACEMENT_3D('',#1414,#1156,#1157);
#929=AXIS2_PLACEMENT_3D('',#1417,#1160,#1161);
#930=AXIS2_PLACEMENT_3D('',#1419,#1163,#1164);
#931=AXIS2_PLACEMENT_3D('',#1420,#1165,#1166);
#932=AXIS2_PLACEMENT_3D('',#1422,#1168,#1169);
#933=AXIS2_PLACEMENT_3D('',#1424,#1171,#1172);
#934=AXIS2_PLACEMENT_3D('',#1426,#1174,#1175);
#935=AXIS2_PLACEMENT_3D('',#1428,#1176,#1177);
#936=AXIS2_PLACEMENT_3D('',#1430,#1178,#1179);
#937=AXIS2_PLACEMENT_3D('',#1432,#1180,#1181);
#938=AXIS2_PLACEMENT_3D('',#1434,#1182,#1183);
#939=AXIS2_PLACEMENT_3D('',#1435,#1184,#1185);
#940=AXIS2_PLACEMENT_3D('',#1436,#1186,#1187);
#941=AXIS2_PLACEMENT_3D('',#1438,#1189,#1190);
#942=AXIS2_PLACEMENT_3D('',#1440,#1191,#1192);
#943=AXIS2_PLACEMENT_3D('',#1442,#1194,#1195);
#944=AXIS2_PLACEMENT_3D('',#1444,#1196,#1197);
#945=AXIS2_PLACEMENT_3D('',#1446,#1199,#1200);
#946=AXIS2_PLACEMENT_3D('',#1448,#1201,#1202);
#947=AXIS2_PLACEMENT_3D('',#1450,#1204,#1205);
#948=AXIS2_PLACEMENT_3D('',#1452,#1206,#1207);
#949=AXIS2_PLACEMENT_3D('',#1454,#1209,#1210);
#950=AXIS2_PLACEMENT_3D('',#1455,#1211,#1212);
#951=AXIS2_PLACEMENT_3D('',#1456,#1213,#1214);
#952=AXIS2_PLACEMENT_3D('',#1457,#1215,#1216);
#953=AXIS2_PLACEMENT_3D('',#1458,#1217,#1218);
#954=AXIS2_PLACEMENT_3D('',#1459,#1219,#1220);
#955=DIRECTION('axis',(0.,0.,1.));
#956=DIRECTION('refdir',(1.,0.,0.));
#957=DIRECTION('center_axis',(1.,0.,0.));
#958=DIRECTION('ref_axis',(0.,0.,1.));
#959=DIRECTION('center_axis',(1.,0.,-7.36059463839884E-16));
#960=DIRECTION('ref_axis',(0.,0.,1.));
#961=DIRECTION('',(1.,0.,0.));
#962=DIRECTION('center_axis',(-1.,0.,2.52630251110498E-15));
#963=DIRECTION('ref_axis',(0.,0.,1.));
#964=DIRECTION('center_axis',(1.,0.,0.));
#965=DIRECTION('ref_axis',(0.,0.,1.));
#966=DIRECTION('center_axis',(1.,0.,0.));
#967=DIRECTION('ref_axis',(0.,0.,1.));
#968=DIRECTION('',(1.,0.,0.));
#969=DIRECTION('center_axis',(-1.,0.,7.36059463839883E-16));
#970=DIRECTION('ref_axis',(0.,0.,1.));
#971=DIRECTION('center_axis',(1.,0.,0.));
#972=DIRECTION('ref_axis',(0.,0.,1.));
#973=DIRECTION('center_axis',(1.,0.,-7.36059463839884E-16));
#974=DIRECTION('ref_axis',(0.,0.,1.));
#975=DIRECTION('',(1.,0.,0.));
#976=DIRECTION('center_axis',(-1.,0.,2.52630251110498E-15));
#977=DIRECTION('ref_axis',(0.,0.,1.));
#978=DIRECTION('center_axis',(1.,0.,0.));
#979=DIRECTION('ref_axis',(0.,0.,1.));
#980=DIRECTION('center_axis',(1.,0.,0.));
#981=DIRECTION('ref_axis',(0.,0.,1.));
#982=DIRECTION('',(1.,0.,0.));
#983=DIRECTION('center_axis',(-1.,0.,7.36059463839883E-16));
#984=DIRECTION('ref_axis',(0.,0.,1.));
#985=DIRECTION('center_axis',(1.,0.,-7.7715611723761E-16));
#986=DIRECTION('ref_axis',(-7.04991620636975E-16,0.,-1.));
#987=DIRECTION('center_axis',(-1.,0.,7.7715611723761E-16));
#988=DIRECTION('ref_axis',(7.7715611723761E-16,0.,1.));
#989=DIRECTION('center_axis',(0.,-1.,0.));
#990=DIRECTION('ref_axis',(8.32667268468868E-16,0.,1.));
#991=DIRECTION('center_axis',(1.,0.,-7.7715611723761E-16));
#992=DIRECTION('ref_axis',(7.86407975776153E-16,0.,1.));
#993=DIRECTION('center_axis',(1.,0.,-7.7715611723761E-16));
#994=DIRECTION('ref_axis',(7.86407975776153E-16,0.,1.));
#995=DIRECTION('center_axis',(-1.,0.,7.7715611723761E-16));
#996=DIRECTION('ref_axis',(7.7715611723761E-16,0.,1.));
#997=DIRECTION('',(0.,1.,0.));
#998=DIRECTION('',(7.7715611723761E-16,0.,1.));
#999=DIRECTION('',(0.,-1.,0.));
#1000=DIRECTION('',(7.7715611723761E-16,0.,1.));
#1001=DIRECTION('center_axis',(-1.,0.,7.7715611723761E-16));
#1002=DIRECTION('ref_axis',(7.7715611723761E-16,0.,1.));
#1003=DIRECTION('center_axis',(-1.,0.,7.7715611723761E-16));
#1004=DIRECTION('ref_axis',(7.7715611723761E-16,0.,1.));
#1005=DIRECTION('center_axis',(-1.,0.,7.7715611723761E-16));
#1006=DIRECTION('ref_axis',(7.7715611723761E-16,0.,1.));
#1007=DIRECTION('center_axis',(1.,0.,0.));
#1008=DIRECTION('ref_axis',(0.,0.,1.));
#1009=DIRECTION('',(1.,0.,0.));
#1010=DIRECTION('center_axis',(1.,0.,0.));
#1011=DIRECTION('ref_axis',(0.,0.,1.));
#1012=DIRECTION('center_axis',(1.,0.,-7.7715611723761E-16));
#1013=DIRECTION('ref_axis',(-7.04991620636975E-16,0.,-1.));
#1014=DIRECTION('center_axis',(0.,-1.,0.));
#1015=DIRECTION('ref_axis',(8.32667268468868E-16,0.,1.));
#1016=DIRECTION('center_axis',(1.,0.,-7.7715611723761E-16));
#1017=DIRECTION('ref_axis',(7.86407975776153E-16,0.,1.));
#1018=DIRECTION('center_axis',(1.,0.,-7.7715611723761E-16));
#1019=DIRECTION('ref_axis',(7.86407975776153E-16,0.,1.));
#1020=DIRECTION('center_axis',(1.,0.,0.));
#1021=DIRECTION('ref_axis',(0.,0.,1.));
#1022=DIRECTION('',(1.,0.,0.));
#1023=DIRECTION('center_axis',(1.,0.,0.));
#1024=DIRECTION('ref_axis',(0.,0.,1.));
#1025=DIRECTION('center_axis',(1.,0.,-7.7715611723761E-16));
#1026=DIRECTION('ref_axis',(-7.04991620636975E-16,0.,-1.));
#1027=DIRECTION('center_axis',(0.,-1.,0.));
#1028=DIRECTION('ref_axis',(8.32667268468868E-16,0.,1.));
#1029=DIRECTION('center_axis',(1.,0.,-7.7715611723761E-16));
#1030=DIRECTION('ref_axis',(7.86407975776153E-16,0.,1.));
#1031=DIRECTION('center_axis',(1.,0.,-7.7715611723761E-16));
#1032=DIRECTION('ref_axis',(7.86407975776153E-16,0.,1.));
#1033=DIRECTION('center_axis',(1.,0.,0.));
#1034=DIRECTION('ref_axis',(0.,0.,1.));
#1035=DIRECTION('',(1.,0.,0.));
#1036=DIRECTION('center_axis',(1.,0.,0.));
#1037=DIRECTION('ref_axis',(0.,0.,1.));
#1038=DIRECTION('center_axis',(1.,0.,-7.7715611723761E-16));
#1039=DIRECTION('ref_axis',(-7.04991620636975E-16,0.,-1.));
#1040=DIRECTION('center_axis',(0.,-1.,0.));
#1041=DIRECTION('ref_axis',(8.32667268468868E-16,0.,1.));
#1042=DIRECTION('center_axis',(1.,0.,-7.7715611723761E-16));
#1043=DIRECTION('ref_axis',(7.86407975776153E-16,0.,1.));
#1044=DIRECTION('center_axis',(1.,0.,-7.7715611723761E-16));
#1045=DIRECTION('ref_axis',(7.86407975776153E-16,0.,1.));
#1046=DIRECTION('center_axis',(1.,0.,0.));
#1047=DIRECTION('ref_axis',(0.,0.,1.));
#1048=DIRECTION('',(1.,0.,0.));
#1049=DIRECTION('center_axis',(1.,0.,0.));
#1050=DIRECTION('ref_axis',(0.,0.,1.));
#1051=DIRECTION('center_axis',(0.,1.,0.));
#1052=DIRECTION('ref_axis',(0.707106781186549,0.,0.707106781186546));
#1053=DIRECTION('center_axis',(0.,-1.,0.));
#1054=DIRECTION('ref_axis',(0.707106781186549,0.,0.707106781186546));
#1055=DIRECTION('',(0.,-1.,0.));
#1056=DIRECTION('center_axis',(0.,1.,0.));
#1057=DIRECTION('ref_axis',(0.707106781186549,0.,0.707106781186546));
#1058=DIRECTION('',(0.,1.,0.));
#1059=DIRECTION('center_axis',(0.,-1.,0.));
#1060=DIRECTION('ref_axis',(1.,0.,0.));
#1061=DIRECTION('',(-1.,0.,1.7763568394003E-15));
#1062=DIRECTION('center_axis',(0.,1.,0.));
#1063=DIRECTION('ref_axis',(-0.707106781186546,0.,0.707106781186549));
#1064=DIRECTION('',(7.36059463839884E-16,0.,1.));
#1065=DIRECTION('center_axis',(0.,1.,0.));
#1066=DIRECTION('ref_axis',(-0.707106781186548,0.,-0.707106781186547));
#1067=DIRECTION('',(-1.,0.,8.45884209238209E-16));
#1068=DIRECTION('center_axis',(0.,-1.,0.));
#1069=DIRECTION('ref_axis',(0.707106781186547,0.,0.707106781186547));
#1070=DIRECTION('',(-1.,0.,8.88178419700127E-16));
#1071=DIRECTION('',(-6.66133814775094E-16,0.,-1.));
#1072=DIRECTION('center_axis',(0.,-1.,0.));
#1073=DIRECTION('ref_axis',(-0.707106781186547,0.,0.707106781186547));
#1074=DIRECTION('',(-1.,0.,8.45884209238215E-16));
#1075=DIRECTION('center_axis',(0.,1.,0.));
#1076=DIRECTION('ref_axis',(0.707106781186547,0.,-0.707106781186547));
#1077=DIRECTION('',(-7.36059463839883E-16,0.,-1.));
#1078=DIRECTION('center_axis',(0.,1.,0.));
#1079=DIRECTION('ref_axis',(0.707106781186548,0.,0.707106781186547));
#1080=DIRECTION('',(-1.,0.,4.44089209850055E-16));
#1081=DIRECTION('center_axis',(0.,1.,0.));
#1082=DIRECTION('ref_axis',(-0.707106781186547,0.,0.707106781186548));
#1083=DIRECTION('',(6.3935022429775E-15,0.,-1.));
#1084=DIRECTION('',(-1.,0.,-1.62471662140267E-16));
#1085=DIRECTION('',(2.52630251110498E-15,0.,1.));
#1086=DIRECTION('center_axis',(1.7763568394003E-15,0.,1.));
#1087=DIRECTION('ref_axis',(1.,0.,-1.7763568394003E-15));
#1088=DIRECTION('',(-1.,0.,1.7763568394003E-15));
#1089=DIRECTION('',(0.,1.,0.));
#1090=DIRECTION('center_axis',(0.,1.,0.));
#1091=DIRECTION('ref_axis',(-0.707106781186546,0.,0.707106781186549));
#1092=DIRECTION('center_axis',(0.,-1.,0.));
#1093=DIRECTION('ref_axis',(-0.707106781186546,0.,0.707106781186549));
#1094=DIRECTION('',(0.,-1.,0.));
#1095=DIRECTION('center_axis',(0.,1.,0.));
#1096=DIRECTION('ref_axis',(-0.707106781186547,0.,0.707106781186548));
#1097=DIRECTION('center_axis',(0.,-1.,0.));
#1098=DIRECTION('ref_axis',(-0.707106781186547,0.,0.707106781186548));
#1099=DIRECTION('',(0.,-1.,0.));
#1100=DIRECTION('',(0.,1.,0.));
#1101=DIRECTION('center_axis',(-1.,0.,0.));
#1102=DIRECTION('ref_axis',(0.,0.,1.));
#1103=DIRECTION('',(6.3935022429775E-15,0.,-1.));
#1104=DIRECTION('',(0.,1.,0.));
#1105=DIRECTION('center_axis',(0.,-1.,0.));
#1106=DIRECTION('ref_axis',(1.,0.,0.));
#1107=DIRECTION('',(-9.33105732758886E-15,0.,1.));
#1108=DIRECTION('',(1.,0.,1.62471662140267E-16));
#1109=DIRECTION('',(-1.,0.,4.44089209850055E-16));
#1110=DIRECTION('center_axis',(0.,-1.,0.));
#1111=DIRECTION('ref_axis',(0.707106781186548,0.,0.707106781186547));
#1112=DIRECTION('',(-3.10551895000038E-16,0.,1.));
#1113=DIRECTION('center_axis',(0.,-1.,0.));
#1114=DIRECTION('ref_axis',(0.707106781186547,0.,-0.707106781186547));
#1115=DIRECTION('',(-1.,0.,8.45884209238215E-16));
#1116=DIRECTION('center_axis',(0.,1.,0.));
#1117=DIRECTION('ref_axis',(-0.707106781186547,0.,0.707106781186547));
#1118=DIRECTION('',(-6.66133814775094E-16,0.,-1.));
#1119=DIRECTION('',(1.,0.,-8.88178419700127E-16));
#1120=DIRECTION('center_axis',(0.,1.,0.));
#1121=DIRECTION('ref_axis',(0.707106781186547,0.,0.707106781186547));
#1122=DIRECTION('',(-1.,0.,8.45884209238209E-16));
#1123=DIRECTION('center_axis',(0.,-1.,0.));
#1124=DIRECTION('ref_axis',(-0.707106781186548,0.,-0.707106781186547));
#1125=DIRECTION('',(7.36059463839884E-16,0.,1.));
#1126=DIRECTION('center_axis',(0.,1.,0.));
#1127=DIRECTION('ref_axis',(0.707106781186548,0.,0.707106781186547));
#1128=DIRECTION('',(0.,-1.,0.));
#1129=DIRECTION('',(0.,1.,0.));
#1130=DIRECTION('center_axis',(1.,0.,-7.36059463839883E-16));
#1131=DIRECTION('ref_axis',(-7.36059463839883E-16,0.,-1.));
#1132=DIRECTION('',(0.,-1.,0.));
#1133=DIRECTION('center_axis',(0.,1.,0.));
#1134=DIRECTION('ref_axis',(-0.707106781186549,0.,-0.707106781186546));
#1135=DIRECTION('',(0.,-1.,0.));
#1136=DIRECTION('center_axis',(-0.707106781186548,0.707106781186547,1.17756934401284E-15));
#1137=DIRECTION('ref_axis',(-0.707106781186547,-0.707106781186548,1.17756934401284E-15));
#1138=DIRECTION('center_axis',(-0.707106781186548,-0.707106781186547,1.17756934401284E-15));
#1139=DIRECTION('ref_axis',(0.707106781186547,-0.707106781186548,-1.17756934401283E-15));
#1140=DIRECTION('center_axis',(-1.,0.,8.88178419700127E-16));
#1141=DIRECTION('ref_axis',(-7.85046229341886E-16,-0.707106781186546,-0.707106781186549));
#1142=DIRECTION('',(1.,0.,-8.88178419700127E-16));
#1143=DIRECTION('center_axis',(-0.707106781186547,-0.707106781186548,7.85046229341883E-16));
#1144=DIRECTION('ref_axis',(0.707106781186548,-0.707106781186547,-4.71027737605139E-16));
#1145=DIRECTION('center_axis',(-1.,0.,8.88178419700127E-16));
#1146=DIRECTION('ref_axis',(-7.85046229341889E-16,0.707106781186549,-0.707106781186546));
#1147=DIRECTION('',(-1.,0.,8.88178419700127E-16));
#1148=DIRECTION('center_axis',(0.707106781186548,-0.707106781186547,-7.85046229341891E-16));
#1149=DIRECTION('ref_axis',(-0.707106781186547,-0.707106781186548,7.8504622934189E-16));
#1150=DIRECTION('center_axis',(0.,1.,0.));
#1151=DIRECTION('ref_axis',(0.707106781186549,0.,-0.707106781186546));
#1152=DIRECTION('',(0.,-1.,0.));
#1153=DIRECTION('',(0.,1.,0.));
#1154=DIRECTION('center_axis',(-8.88178419700127E-16,0.,-1.));
#1155=DIRECTION('ref_axis',(-1.,0.,8.88178419700127E-16));
#1156=DIRECTION('center_axis',(0.,1.,0.));
#1157=DIRECTION('ref_axis',(-0.707106781186548,0.,-0.707106781186547));
#1158=DIRECTION('',(0.,-1.,0.));
#1159=DIRECTION('',(0.,1.,0.));
#1160=DIRECTION('center_axis',(-8.45884209238209E-16,0.,-1.));
#1161=DIRECTION('ref_axis',(-1.,0.,8.45884209238209E-16));
#1162=DIRECTION('',(0.,1.,0.));
#1163=DIRECTION('center_axis',(0.,1.,0.));
#1164=DIRECTION('ref_axis',(0.707106781186547,0.,0.707106781186547));
#1165=DIRECTION('center_axis',(0.,1.,0.));
#1166=DIRECTION('ref_axis',(0.707106781186547,0.,-0.707106781186547));
#1167=DIRECTION('',(0.,1.,0.));
#1168=DIRECTION('center_axis',(-8.45884209238215E-16,0.,-1.));
#1169=DIRECTION('ref_axis',(-1.,0.,8.45884209238215E-16));
#1170=DIRECTION('',(0.,-1.,0.));
#1171=DIRECTION('center_axis',(0.,1.,0.));
#1172=DIRECTION('ref_axis',(-0.707106781186547,0.,0.707106781186547));
#1173=DIRECTION('',(0.,1.,0.));
#1174=DIRECTION('center_axis',(1.,0.,-6.66133814775094E-16));
#1175=DIRECTION('ref_axis',(-6.66133814775094E-16,0.,-1.));
#1176=DIRECTION('center_axis',(-1.,0.,6.66133814775094E-16));
#1177=DIRECTION('ref_axis',(0.,0.,1.));
#1178=DIRECTION('center_axis',(-1.,0.,6.66133814775094E-16));
#1179=DIRECTION('ref_axis',(0.,0.,1.));
#1180=DIRECTION('center_axis',(-1.,0.,6.66133814775094E-16));
#1181=DIRECTION('ref_axis',(0.,0.,1.));
#1182=DIRECTION('center_axis',(-1.,0.,6.66133814775094E-16));
#1183=DIRECTION('ref_axis',(0.,0.,1.));
#1184=DIRECTION('center_axis',(4.44089209850055E-16,0.,1.));
#1185=DIRECTION('ref_axis',(1.,0.,-4.44089209850055E-16));
#1186=DIRECTION('center_axis',(-1.62471662140267E-16,0.,1.));
#1187=DIRECTION('ref_axis',(1.,0.,1.62471662140267E-16));
#1188=DIRECTION('',(0.,1.,0.));
#1189=DIRECTION('center_axis',(1.,0.,0.));
#1190=DIRECTION('ref_axis',(0.,0.,1.));
#1191=DIRECTION('center_axis',(1.,0.,0.));
#1192=DIRECTION('ref_axis',(0.,0.,1.));
#1193=DIRECTION('',(1.,0.,0.));
#1194=DIRECTION('center_axis',(1.,0.,0.));
#1195=DIRECTION('ref_axis',(0.,0.,1.));
#1196=DIRECTION('center_axis',(1.,0.,0.));
#1197=DIRECTION('ref_axis',(0.,0.,1.));
#1198=DIRECTION('',(1.,0.,0.));
#1199=DIRECTION('center_axis',(1.,0.,0.));
#1200=DIRECTION('ref_axis',(0.,0.,1.));
#1201=DIRECTION('center_axis',(1.,0.,0.));
#1202=DIRECTION('ref_axis',(0.,0.,1.));
#1203=DIRECTION('',(1.,0.,0.));
#1204=DIRECTION('center_axis',(1.,0.,0.));
#1205=DIRECTION('ref_axis',(0.,0.,1.));
#1206=DIRECTION('center_axis',(1.,0.,0.));
#1207=DIRECTION('ref_axis',(0.,0.,1.));
#1208=DIRECTION('',(1.,0.,0.));
#1209=DIRECTION('center_axis',(-1.,0.,0.));
#1210=DIRECTION('ref_axis',(0.,0.,1.));
#1211=DIRECTION('center_axis',(-1.,0.,0.));
#1212=DIRECTION('ref_axis',(0.,0.,1.));
#1213=DIRECTION('center_axis',(-1.,0.,0.));
#1214=DIRECTION('ref_axis',(0.,0.,1.));
#1215=DIRECTION('center_axis',(-1.,0.,0.));
#1216=DIRECTION('ref_axis',(0.,0.,1.));
#1217=DIRECTION('center_axis',(1.,0.,-2.52630251110498E-15));
#1218=DIRECTION('ref_axis',(-2.52630251110498E-15,0.,-1.));
#1219=DIRECTION('center_axis',(-1.,0.,7.36059463839884E-16));
#1220=DIRECTION('ref_axis',(7.36059463839884E-16,0.,1.));
#1221=CARTESIAN_POINT('',(0.,0.,0.));
#1222=CARTESIAN_POINT('Origin',(-0.600393700787401,0.393700787401575,-2.41072204556566E-17));
#1223=CARTESIAN_POINT('',(-0.600393700787401,0.393700787401575,-0.106299212598425));
#1224=CARTESIAN_POINT('Origin',(-0.600393700787402,0.393700787401575,-2.41072204556566E-17));
#1225=CARTESIAN_POINT('',(-0.403543307086614,0.393700787401575,-0.106299212598425));
#1226=CARTESIAN_POINT('',(-0.600393700787401,0.393700787401575,-0.106299212598425));
#1227=CARTESIAN_POINT('Origin',(-0.403543307086614,0.393700787401575,-2.41072204556566E-17));
#1228=CARTESIAN_POINT('Origin',(-0.600393700787401,0.393700787401575,-2.41072204556566E-17));
#1229=CARTESIAN_POINT('',(0.403543307086614,0.393700787401575,-0.106299212598425));
#1230=CARTESIAN_POINT('Origin',(0.403543307086614,0.393700787401575,-2.41072204556566E-17));
#1231=CARTESIAN_POINT('',(0.600393700787402,0.393700787401575,-0.106299212598425));
#1232=CARTESIAN_POINT('',(-0.600393700787401,0.393700787401575,-0.106299212598425));
#1233=CARTESIAN_POINT('Origin',(0.600393700787402,0.393700787401575,-2.41072204556566E-17));
#1234=CARTESIAN_POINT('Origin',(-0.600393700787401,1.18110236220472,-7.23216613669697E-17));
#1235=CARTESIAN_POINT('',(-0.600393700787401,1.18110236220472,-0.106299212598425));
#1236=CARTESIAN_POINT('Origin',(-0.600393700787402,1.18110236220472,-7.23216613669697E-17));
#1237=CARTESIAN_POINT('',(-0.403543307086614,1.18110236220472,-0.106299212598425));
#1238=CARTESIAN_POINT('',(-0.600393700787401,1.18110236220472,-0.106299212598425));
#1239=CARTESIAN_POINT('Origin',(-0.403543307086614,1.18110236220472,-7.23216613669697E-17));
#1240=CARTESIAN_POINT('Origin',(-0.600393700787401,1.18110236220472,-7.23216613669697E-17));
#1241=CARTESIAN_POINT('',(0.403543307086614,1.18110236220472,-0.106299212598425));
#1242=CARTESIAN_POINT('Origin',(0.403543307086614,1.18110236220472,-7.23216613669697E-17));
#1243=CARTESIAN_POINT('',(0.600393700787402,1.18110236220472,-0.106299212598425));
#1244=CARTESIAN_POINT('',(-0.600393700787401,1.18110236220472,-0.106299212598425));
#1245=CARTESIAN_POINT('Origin',(0.600393700787402,1.18110236220472,-7.23216613669697E-17));
#1246=CARTESIAN_POINT('Origin',(-0.374015748031496,0.425496529313972,-1.02589023010137));
#1247=CARTESIAN_POINT('',(-0.393700787401574,0.425496529313972,-0.888094954510822));
#1248=CARTESIAN_POINT('Origin',(-0.393700787401574,0.425496529313972,-1.02589023010137));
#1249=CARTESIAN_POINT('',(-0.374015748031496,0.425496529313972,-0.9077799938809));
#1250=CARTESIAN_POINT('Origin',(-0.374015748031496,0.425496529313972,-0.888094954510822));
#1251=CARTESIAN_POINT('',(-0.374015748031496,0.425496529313972,-1.14400046632185));
#1252=CARTESIAN_POINT('Origin',(-0.374015748031496,0.425496529313972,-1.02589023010137));
#1253=CARTESIAN_POINT('Origin',(-0.374015748031496,0.425496529313972,-1.02589023010137));
#1254=CARTESIAN_POINT('Origin',(-0.393700787401575,0.,-2.1751968503937));
#1255=CARTESIAN_POINT('',(-0.393700787401575,0.,-2.09645669291339));
#1256=CARTESIAN_POINT('',(-0.393700787401575,1.5748031496063,-2.09645669291338));
#1257=CARTESIAN_POINT('',(-0.393700787401575,0.,-2.09645669291339));
#1258=CARTESIAN_POINT('',(-0.393700787401574,0.,-0.679133858267716));
#1259=CARTESIAN_POINT('',(-0.393700787401575,0.,-2.1751968503937));
#1260=CARTESIAN_POINT('',(-0.393700787401574,1.5748031496063,-0.679133858267716));
#1261=CARTESIAN_POINT('',(-0.393700787401574,0.,-0.679133858267716));
#1262=CARTESIAN_POINT('',(-0.393700787401575,1.5748031496063,-2.1751968503937));
#1263=CARTESIAN_POINT('',(-0.393700787401574,1.14930662029233,-0.888094954510822));
#1264=CARTESIAN_POINT('Origin',(-0.393700787401574,1.14930662029233,-1.02589023010137));
#1265=CARTESIAN_POINT('',(-0.393700787401574,0.425496529313972,-1.61190504548918));
#1266=CARTESIAN_POINT('Origin',(-0.393700787401574,0.425496529313972,-1.74970032107973));
#1267=CARTESIAN_POINT('',(-0.393700787401574,1.14930662029233,-1.61190504548918));
#1268=CARTESIAN_POINT('Origin',(-0.393700787401574,1.14930662029233,-1.74970032107973));
#1269=CARTESIAN_POINT('Origin',(-0.393700787401574,0.425496529313972,-1.02589023010137));
#1270=CARTESIAN_POINT('',(6.11933950580795E-16,0.425496529313972,-1.14400046632185));
#1271=CARTESIAN_POINT('',(-0.393700787401574,0.425496529313972,-1.14400046632185));
#1272=CARTESIAN_POINT('Origin',(6.11933950580795E-16,0.425496529313972,
-1.02589023010137));
#1273=CARTESIAN_POINT('Origin',(-0.374015748031496,1.14930662029233,-1.02589023010137));
#1274=CARTESIAN_POINT('',(-0.374015748031496,1.14930662029233,-0.9077799938809));
#1275=CARTESIAN_POINT('Origin',(-0.374015748031496,1.14930662029233,-0.888094954510822));
#1276=CARTESIAN_POINT('',(-0.374015748031496,1.14930662029233,-1.14400046632185));
#1277=CARTESIAN_POINT('Origin',(-0.374015748031496,1.14930662029233,-1.02589023010137));
#1278=CARTESIAN_POINT('Origin',(-0.374015748031496,1.14930662029233,-1.02589023010137));
#1279=CARTESIAN_POINT('Origin',(-0.393700787401574,1.14930662029233,-1.02589023010137));
#1280=CARTESIAN_POINT('',(6.11933950580795E-16,1.14930662029233,-1.14400046632185));
#1281=CARTESIAN_POINT('',(-0.393700787401574,1.14930662029233,-1.14400046632185));
#1282=CARTESIAN_POINT('Origin',(6.11933950580795E-16,1.14930662029233,-1.02589023010137));
#1283=CARTESIAN_POINT('Origin',(-0.374015748031496,1.14930662029233,-1.74970032107973));
#1284=CARTESIAN_POINT('',(-0.374015748031496,1.14930662029233,-1.63159008485926));
#1285=CARTESIAN_POINT('Origin',(-0.374015748031496,1.14930662029233,-1.61190504548918));
#1286=CARTESIAN_POINT('',(-0.374015748031496,1.14930662029233,-1.8678105573002));
#1287=CARTESIAN_POINT('Origin',(-0.374015748031496,1.14930662029233,-1.74970032107973));
#1288=CARTESIAN_POINT('Origin',(-0.374015748031496,1.14930662029233,-1.74970032107973));
#1289=CARTESIAN_POINT('Origin',(-0.393700787401574,1.14930662029233,-1.74970032107973));
#1290=CARTESIAN_POINT('',(6.11933950580795E-16,1.14930662029233,-1.8678105573002));
#1291=CARTESIAN_POINT('',(-0.393700787401574,1.14930662029233,-1.8678105573002));
#1292=CARTESIAN_POINT('Origin',(6.11933950580795E-16,1.14930662029233,-1.74970032107973));
#1293=CARTESIAN_POINT('Origin',(-0.374015748031496,0.425496529313972,-1.74970032107973));
#1294=CARTESIAN_POINT('',(-0.374015748031496,0.425496529313972,-1.63159008485926));
#1295=CARTESIAN_POINT('Origin',(-0.374015748031496,0.425496529313972,-1.61190504548918));
#1296=CARTESIAN_POINT('',(-0.374015748031496,0.425496529313972,-1.8678105573002));
#1297=CARTESIAN_POINT('Origin',(-0.374015748031496,0.425496529313972,-1.74970032107973));
#1298=CARTESIAN_POINT('Origin',(-0.374015748031496,0.425496529313972,-1.74970032107973));
#1299=CARTESIAN_POINT('Origin',(-0.393700787401574,0.425496529313972,-1.74970032107973));
#1300=CARTESIAN_POINT('',(6.11933950580795E-16,0.425496529313972,-1.8678105573002));
#1301=CARTESIAN_POINT('',(-0.393700787401574,0.425496529313972,-1.8678105573002));
#1302=CARTESIAN_POINT('Origin',(6.11933950580795E-16,0.425496529313972,
-1.74970032107973));
#1303=CARTESIAN_POINT('Origin',(-0.482283464566927,0.,0.31496062992126));
#1304=CARTESIAN_POINT('',(-0.403543307086618,1.5748031496063,0.31496062992126));
#1305=CARTESIAN_POINT('',(-0.482283464566927,1.5748031496063,0.393700787401575));
#1306=CARTESIAN_POINT('Origin',(-0.482283464566927,1.5748031496063,0.31496062992126));
#1307=CARTESIAN_POINT('',(-0.482283464566927,0.,0.393700787401575));
#1308=CARTESIAN_POINT('',(-0.482283464566927,0.,0.393700787401575));
#1309=CARTESIAN_POINT('',(-0.403543307086612,0.,0.31496062992126));
#1310=CARTESIAN_POINT('Origin',(-0.482283464566927,0.,0.31496062992126));
#1311=CARTESIAN_POINT('',(-0.403543307086612,0.,0.31496062992126));
#1312=CARTESIAN_POINT('Origin',(0.,0.,-0.969558137610104));
#1313=CARTESIAN_POINT('',(-0.521653543307086,0.,0.393700787401575));
#1314=CARTESIAN_POINT('',(-0.403543307086619,0.,0.393700787401575));
#1315=CARTESIAN_POINT('',(-0.600393700787401,0.,0.31496062992126));
#1316=CARTESIAN_POINT('Origin',(-0.521653543307086,0.,0.31496062992126));
#1317=CARTESIAN_POINT('',(-0.600393700787402,0.,-0.521653543307086));
#1318=CARTESIAN_POINT('',(-0.600393700787402,0.,-0.600393700787401));
#1319=CARTESIAN_POINT('',(-0.521653543307087,0.,-0.600393700787401));
#1320=CARTESIAN_POINT('Origin',(-0.521653543307087,0.,-0.521653543307086));
#1321=CARTESIAN_POINT('',(-0.472440944881888,0.,-0.600393700787401));
#1322=CARTESIAN_POINT('',(-0.393700787401574,0.,-0.600393700787401));
#1323=CARTESIAN_POINT('Origin',(-0.472440944881888,0.,-0.679133858267716));
#1324=CARTESIAN_POINT('',(0.393700787401574,0.,-2.09645669291339));
#1325=CARTESIAN_POINT('',(0.196850393700786,0.,-2.09645669291339));
#1326=CARTESIAN_POINT('',(0.393700787401575,0.,-0.679133858267716));
#1327=CARTESIAN_POINT('',(0.393700787401575,0.,-0.600393700787402));
#1328=CARTESIAN_POINT('',(0.47244094488189,0.,-0.600393700787402));
#1329=CARTESIAN_POINT('Origin',(0.47244094488189,0.,-0.679133858267716));
#1330=CARTESIAN_POINT('',(0.521653543307086,0.,-0.600393700787402));
#1331=CARTESIAN_POINT('',(0.600393700787401,0.,-0.600393700787402));
#1332=CARTESIAN_POINT('',(0.600393700787401,0.,-0.521653543307087));
#1333=CARTESIAN_POINT('Origin',(0.521653543307086,0.,-0.521653543307087));
#1334=CARTESIAN_POINT('',(0.600393700787402,0.,0.314960629921264));
#1335=CARTESIAN_POINT('',(0.600393700787402,0.,0.112204724409449));
#1336=CARTESIAN_POINT('',(0.521653543307087,0.,0.393700787401579));
#1337=CARTESIAN_POINT('Origin',(0.521653543307087,0.,0.314960629921265));
#1338=CARTESIAN_POINT('',(0.482283464566929,0.,0.393700787401579));
#1339=CARTESIAN_POINT('',(0.600393700787402,0.,0.393700787401579));
#1340=CARTESIAN_POINT('',(0.403543307086611,0.,0.314960629921265));
#1341=CARTESIAN_POINT('Origin',(0.482283464566929,0.,0.314960629921265));
#1342=CARTESIAN_POINT('',(0.403543307086614,0.,-0.393700787401575));
#1343=CARTESIAN_POINT('',(0.403543307086615,0.,-0.317526182793108));
#1344=CARTESIAN_POINT('',(-0.403543307086614,0.,-0.393700787401575));
#1345=CARTESIAN_POINT('',(0.403543307086614,0.,-0.393700787401575));
#1346=CARTESIAN_POINT('',(-0.403543307086614,0.,-0.393700787401575));
#1347=CARTESIAN_POINT('Origin',(-0.600393700787401,0.,0.393700787401575));
#1348=CARTESIAN_POINT('',(-0.521653543307086,1.5748031496063,0.393700787401575));
#1349=CARTESIAN_POINT('',(-0.3001968503937,1.5748031496063,0.393700787401575));
#1350=CARTESIAN_POINT('',(-0.521653543307086,0.,0.393700787401575));
#1351=CARTESIAN_POINT('Origin',(-0.521653543307086,0.,0.31496062992126));
#1352=CARTESIAN_POINT('',(-0.600393700787401,1.5748031496063,0.31496062992126));
#1353=CARTESIAN_POINT('Origin',(-0.521653543307086,1.5748031496063,0.31496062992126));
#1354=CARTESIAN_POINT('',(-0.600393700787401,0.,0.31496062992126));
#1355=CARTESIAN_POINT('Origin',(0.482283464566929,0.,0.314960629921265));
#1356=CARTESIAN_POINT('',(0.482283464566929,1.5748031496063,0.393700787401579));
#1357=CARTESIAN_POINT('',(0.403543307086611,1.5748031496063,0.314960629921265));
#1358=CARTESIAN_POINT('Origin',(0.482283464566929,1.5748031496063,0.314960629921265));
#1359=CARTESIAN_POINT('',(0.403543307086614,0.,0.314960629921265));
#1360=CARTESIAN_POINT('',(0.482283464566929,0.,0.393700787401579));
#1361=CARTESIAN_POINT('Origin',(0.403543307086614,0.,-0.393700787401575));
#1362=CARTESIAN_POINT('',(0.403543307086614,1.5748031496063,-0.393700787401575));
#1363=CARTESIAN_POINT('',(0.403543307086612,1.5748031496063,0.182578740157483));
#1364=CARTESIAN_POINT('',(0.403543307086614,0.,-0.393700787401575));
#1365=CARTESIAN_POINT('Origin',(0.,1.5748031496063,-0.969558137610104));
#1366=CARTESIAN_POINT('',(-0.403543307086614,1.5748031496063,-0.393700787401575));
#1367=CARTESIAN_POINT('',(-0.403543307086618,1.5748031496063,0.323326771653543));
#1368=CARTESIAN_POINT('',(0.403543307086614,1.5748031496063,-0.393700787401575));
#1369=CARTESIAN_POINT('',(0.521653543307087,1.5748031496063,0.393700787401579));
#1370=CARTESIAN_POINT('',(0.201771653543306,1.5748031496063,0.39370078740158));
#1371=CARTESIAN_POINT('',(0.600393700787402,1.5748031496063,0.314960629921264));
#1372=CARTESIAN_POINT('Origin',(0.521653543307087,1.5748031496063,0.314960629921265));
#1373=CARTESIAN_POINT('',(0.600393700787402,1.5748031496063,-0.521653543307087));
#1374=CARTESIAN_POINT('',(0.600393700787402,1.5748031496063,0.323326771653547));
#1375=CARTESIAN_POINT('',(0.521653543307086,1.5748031496063,-0.600393700787402));
#1376=CARTESIAN_POINT('Origin',(0.521653543307086,1.5748031496063,-0.521653543307087));
#1377=CARTESIAN_POINT('',(0.47244094488189,1.5748031496063,-0.600393700787402));
#1378=CARTESIAN_POINT('',(0.600393700787401,1.5748031496063,-0.600393700787402));
#1379=CARTESIAN_POINT('',(0.393700787401575,1.5748031496063,-0.679133858267716));
#1380=CARTESIAN_POINT('Origin',(0.47244094488189,1.5748031496063,-0.679133858267716));
#1381=CARTESIAN_POINT('',(0.393700787401574,1.5748031496063,-2.09645669291339));
#1382=CARTESIAN_POINT('',(0.393700787401575,1.5748031496063,-0.600393700787402));
#1383=CARTESIAN_POINT('',(0.196850393700786,1.5748031496063,-2.09645669291339));
#1384=CARTESIAN_POINT('',(-0.472440944881888,1.5748031496063,-0.600393700787401));
#1385=CARTESIAN_POINT('Origin',(-0.472440944881888,1.5748031496063,-0.679133858267716));
#1386=CARTESIAN_POINT('',(-0.521653543307087,1.5748031496063,-0.600393700787401));
#1387=CARTESIAN_POINT('',(-0.393700787401574,1.5748031496063,-0.600393700787401));
#1388=CARTESIAN_POINT('',(-0.600393700787402,1.5748031496063,-0.521653543307086));
#1389=CARTESIAN_POINT('Origin',(-0.521653543307087,1.5748031496063,-0.521653543307086));
#1390=CARTESIAN_POINT('',(-0.600393700787402,1.5748031496063,-0.600393700787401));
#1391=CARTESIAN_POINT('Origin',(0.521653543307087,0.,0.314960629921265));
#1392=CARTESIAN_POINT('',(0.521653543307087,0.,0.393700787401579));
#1393=CARTESIAN_POINT('',(0.600393700787402,0.,0.314960629921264));
#1394=CARTESIAN_POINT('Origin',(0.600393700787402,0.,0.112204724409449));
#1395=CARTESIAN_POINT('',(0.600393700787401,0.,-0.521653543307087));
#1396=CARTESIAN_POINT('Origin',(-0.31496062992126,0.,-2.09645669291339));
#1397=CARTESIAN_POINT('',(-0.31496062992126,1.49606299212598,-2.1751968503937));
#1398=CARTESIAN_POINT('',(-0.31496062992126,0.078740157480315,-2.1751968503937));
#1399=CARTESIAN_POINT('',(-0.31496062992126,0.,-2.1751968503937));
#1400=CARTESIAN_POINT('Origin',(-0.31496062992126,0.078740157480315,-2.09645669291339));
#1401=CARTESIAN_POINT('Origin',(-0.31496062992126,1.49606299212598,-2.09645669291339));
#1402=CARTESIAN_POINT('Origin',(0.196850393700786,0.078740157480315,-2.09645669291339));
#1403=CARTESIAN_POINT('',(0.314960629921259,0.078740157480315,-2.1751968503937));
#1404=CARTESIAN_POINT('',(0.196850393700786,0.078740157480315,-2.1751968503937));
#1405=CARTESIAN_POINT('Origin',(0.314960629921259,0.078740157480315,-2.09645669291339));
#1406=CARTESIAN_POINT('Origin',(0.196850393700786,1.49606299212598,-2.09645669291339));
#1407=CARTESIAN_POINT('',(0.314960629921259,1.49606299212598,-2.1751968503937));
#1408=CARTESIAN_POINT('',(0.196850393700786,1.49606299212598,-2.1751968503937));
#1409=CARTESIAN_POINT('Origin',(0.314960629921259,1.49606299212598,-2.09645669291339));
#1410=CARTESIAN_POINT('Origin',(0.314960629921259,0.,-2.09645669291339));
#1411=CARTESIAN_POINT('',(0.393700787401574,0.,-2.09645669291339));
#1412=CARTESIAN_POINT('',(0.314960629921259,0.,-2.1751968503937));
#1413=CARTESIAN_POINT('Origin',(0.393700787401574,0.,-2.1751968503937));
#1414=CARTESIAN_POINT('Origin',(-0.521653543307087,0.,-0.521653543307086));
#1415=CARTESIAN_POINT('',(-0.521653543307087,0.,-0.600393700787401));
#1416=CARTESIAN_POINT('',(-0.600393700787402,0.,-0.521653543307086));
#1417=CARTESIAN_POINT('Origin',(-0.393700787401574,0.,-0.600393700787401));
#1418=CARTESIAN_POINT('',(-0.472440944881888,0.,-0.600393700787401));
#1419=CARTESIAN_POINT('Origin',(-0.472440944881888,0.,-0.679133858267716));
#1420=CARTESIAN_POINT('Origin',(0.521653543307086,0.,-0.521653543307087));
#1421=CARTESIAN_POINT('',(0.521653543307086,0.,-0.600393700787402));
#1422=CARTESIAN_POINT('Origin',(0.600393700787401,0.,-0.600393700787402));
#1423=CARTESIAN_POINT('',(0.47244094488189,0.,-0.600393700787402));
#1424=CARTESIAN_POINT('Origin',(0.47244094488189,0.,-0.679133858267716));
#1425=CARTESIAN_POINT('',(0.393700787401575,0.,-0.679133858267716));
#1426=CARTESIAN_POINT('Origin',(0.393700787401575,0.,-0.600393700787402));
#1427=CARTESIAN_POINT('',(0.393700787401575,1.14930662029233,-1.0829768442746));
#1428=CARTESIAN_POINT('Origin',(0.393700787401575,1.14930662029233,-1.02589023010137));
#1429=CARTESIAN_POINT('',(0.393700787401575,0.425496529313972,-1.0829768442746));
#1430=CARTESIAN_POINT('Origin',(0.393700787401575,0.425496529313972,-1.02589023010137));
#1431=CARTESIAN_POINT('',(0.393700787401575,1.14930662029233,-1.80678693525296));
#1432=CARTESIAN_POINT('Origin',(0.393700787401575,1.14930662029233,-1.74970032107973));
#1433=CARTESIAN_POINT('',(0.393700787401575,0.425496529313972,-1.80678693525296));
#1434=CARTESIAN_POINT('Origin',(0.393700787401575,0.425496529313972,-1.74970032107973));
#1435=CARTESIAN_POINT('Origin',(0.403543307086611,0.,0.393700787401579));
#1436=CARTESIAN_POINT('Origin',(-0.403543307086614,0.,-0.393700787401575));
#1437=CARTESIAN_POINT('',(-0.403543307086614,0.,-0.393700787401575));
#1438=CARTESIAN_POINT('Origin',(-0.393700787401574,0.425496529313972,-1.74970032107973));
#1439=CARTESIAN_POINT('',(6.11933950580795E-16,0.425496529313972,-1.80678693525296));
#1440=CARTESIAN_POINT('Origin',(6.11933950580795E-16,0.425496529313972,
-1.74970032107973));
#1441=CARTESIAN_POINT('',(-0.393700787401574,0.425496529313972,-1.80678693525296));
#1442=CARTESIAN_POINT('Origin',(-0.393700787401574,1.14930662029233,-1.74970032107973));
#1443=CARTESIAN_POINT('',(6.11933950580795E-16,1.14930662029233,-1.80678693525296));
#1444=CARTESIAN_POINT('Origin',(6.11933950580795E-16,1.14930662029233,-1.74970032107973));
#1445=CARTESIAN_POINT('',(-0.393700787401574,1.14930662029233,-1.80678693525296));
#1446=CARTESIAN_POINT('Origin',(-0.393700787401574,0.425496529313972,-1.02589023010137));
#1447=CARTESIAN_POINT('',(6.11933950580795E-16,0.425496529313972,-1.0829768442746));
#1448=CARTESIAN_POINT('Origin',(6.11933950580795E-16,0.425496529313972,
-1.02589023010137));
#1449=CARTESIAN_POINT('',(-0.393700787401574,0.425496529313972,-1.0829768442746));
#1450=CARTESIAN_POINT('Origin',(-0.393700787401574,1.14930662029233,-1.02589023010137));
#1451=CARTESIAN_POINT('',(6.11933950580795E-16,1.14930662029233,-1.0829768442746));
#1452=CARTESIAN_POINT('Origin',(6.11933950580795E-16,1.14930662029233,-1.02589023010137));
#1453=CARTESIAN_POINT('',(-0.393700787401574,1.14930662029233,-1.0829768442746));
#1454=CARTESIAN_POINT('Origin',(6.11933950580795E-16,0.425496529313972,
-1.02589023010137));
#1455=CARTESIAN_POINT('Origin',(6.11933950580795E-16,1.14930662029233,-1.02589023010137));
#1456=CARTESIAN_POINT('Origin',(6.11933950580795E-16,0.425496529313972,
-1.74970032107973));
#1457=CARTESIAN_POINT('Origin',(6.11933950580795E-16,1.14930662029233,-1.74970032107973));
#1458=CARTESIAN_POINT('Origin',(-0.403543307086614,0.,-0.112204724409449));
#1459=CARTESIAN_POINT('Origin',(-0.600393700787402,0.,-0.600393700787401));
#1460=UNCERTAINTY_MEASURE_WITH_UNIT(LENGTH_MEASURE(0.000393700787401575),
#1465,'DISTANCE_ACCURACY_VALUE',
'Maximum model space distance between geometric entities at asserted c
onnectivities');
#1461=UNCERTAINTY_MEASURE_WITH_UNIT(LENGTH_MEASURE(0.000393700787401575),
#1465,'DISTANCE_ACCURACY_VALUE',
'Maximum model space distance between geometric entities at asserted c
onnectivities');
#1462=(
GEOMETRIC_REPRESENTATION_CONTEXT(3)
GLOBAL_UNCERTAINTY_ASSIGNED_CONTEXT((#1460))
GLOBAL_UNIT_ASSIGNED_CONTEXT((#1465,#1469,#1470))
REPRESENTATION_CONTEXT('','3D')
);
#1463=(
GEOMETRIC_REPRESENTATION_CONTEXT(3)
GLOBAL_UNCERTAINTY_ASSIGNED_CONTEXT((#1461))
GLOBAL_UNIT_ASSIGNED_CONTEXT((#1465,#1469,#1470))
REPRESENTATION_CONTEXT('','3D')
);
#1464=DIMENSIONAL_EXPONENTS(1.,0.,0.,0.,0.,0.,0.);
#1465=(
CONVERSION_BASED_UNIT('inch',#1468)
LENGTH_UNIT()
NAMED_UNIT(#1464)
);
#1466=(
LENGTH_UNIT()
NAMED_UNIT(*)
SI_UNIT(.MILLI.,.METRE.)
);
#1467=(
LENGTH_UNIT()
NAMED_UNIT(*)
SI_UNIT($,.METRE.)
);
#1468=LENGTH_MEASURE_WITH_UNIT(LENGTH_MEASURE(25.4),#1466);
#1469=(
NAMED_UNIT(*)
PLANE_ANGLE_UNIT()
SI_UNIT($,.RADIAN.)
);
#1470=(
NAMED_UNIT(*)
SI_UNIT($,.STERADIAN.)
SOLID_ANGLE_UNIT()
);
#1471=SHAPE_DEFINITION_REPRESENTATION(#1472,#1473);
#1472=PRODUCT_DEFINITION_SHAPE('',$,#1475);
#1473=SHAPE_REPRESENTATION('',(#852),#1462);
#1474=PRODUCT_DEFINITION_CONTEXT('part definition',#1479,'design');
#1475=PRODUCT_DEFINITION('2026-10-07-21-06-42-488','(Unsaved)',#1476,#1474);
#1476=PRODUCT_DEFINITION_FORMATION('',$,#1481);
#1477=PRODUCT_RELATED_PRODUCT_CATEGORY('(Unsaved)','(Unsaved)',(#1481));
#1478=APPLICATION_PROTOCOL_DEFINITION('international standard',
'automotive_design',2009,#1479);
#1479=APPLICATION_CONTEXT(
'Core Data for Automotive Mechanical Design Process');
#1480=PRODUCT_CONTEXT('part definition',#1479,'mechanical');
#1481=PRODUCT('2026-10-07-21-06-42-488','(Unsaved)',$,(#1480));
#1482=PRESENTATION_STYLE_ASSIGNMENT((#1483));
#1483=SURFACE_STYLE_USAGE(.BOTH.,#1484);
#1484=SURFACE_SIDE_STYLE('',(#1485));
#1485=SURFACE_STYLE_FILL_AREA(#1486);
#1486=FILL_AREA_STYLE('Steel - Satin',(#1487));
#1487=FILL_AREA_STYLE_COLOUR('Steel - Satin',#1488);
#1488=COLOUR_RGB('Steel - Satin',0.627450980392157,0.627450980392157,0.627450980392157);
ENDSEC;
END-ISO-10303-21;
