0
SECTION
2
HEADER
9
$INSUNITS
70
4
0
ENDSEC
0
SECTION
2
ENTITIES
0
CIRCLE
8
CARRIER_CUT
10
0.00000000
20
0.00000000
30
0
40
35.00000000
0
CIRCLE
8
CARRIER_CUT
10
0.00000000
20
0.00000000
30
0
40
4.10000000
0
CIRCLE
8
CARRIER_CUT
10
25.00000000
20
0.00000000
30
0
40
3.20000000
0
CIRCLE
8
CARRIER_CUT
10
17.67766953
20
17.67766953
30
0
40
3.20000000
0
CIRCLE
8
CARRIER_CUT
10
0.00000000
20
25.00000000
30
0
40
3.20000000
0
CIRCLE
8
CARRIER_CUT
10
-17.67766953
20
17.67766953
30
0
40
3.20000000
0
CIRCLE
8
CARRIER_CUT
10
-25.00000000
20
0.00000000
30
0
40
3.20000000
0
CIRCLE
8
CARRIER_CUT
10
-17.67766953
20
-17.67766953
30
0
40
3.20000000
0
CIRCLE
8
CARRIER_CUT
10
-0.00000000
20
-25.00000000
30
0
40
3.20000000
0
CIRCLE
8
CARRIER_CUT
10
17.67766953
20
-17.67766953
30
0
40
3.20000000
0
CIRCLE
8
CARRIER_CUT
10
0.00000000
20
8.00000000
30
0
40
1.60000000
0
CIRCLE
8
CARRIER_CUT
10
-6.92820323
20
-4.00000000
30
0
40
1.60000000
0
CIRCLE
8
CARRIER_CUT
10
6.92820323
20
-4.00000000
30
0
40
1.60000000
0
ENDSEC
0
EOF
